<svg width="338" height="300" viewBox="0 0 338 300" fill="none" xmlns="http://www.w3.org/2000/svg">
  <path
    d="M304.787 247.99C304.531 247.915 304.443 248.192 304.188 248.117C303.588 248.244 302.989 248.371 302.39 248.498C301.191 248.751 299.393 249.132 297.684 249.236C297.084 249.362 296.829 249.288 296.229 249.414C295.63 249.541 295.119 249.392 294.775 249.593C293.665 249.57 292.555 249.547 291.356 249.801C289.135 249.755 286.571 249.911 284.094 249.791C281.618 249.67 278.886 249.475 275.899 249.205C270.18 248.739 264.205 248.199 258.318 247.382C252.431 246.565 246.289 245.673 240.658 244.931C235.027 244.189 229.74 243.246 225.475 242.601C216.433 241.163 210.635 240.07 210.635 240.07C210.635 240.07 212.168 240.519 214.556 240.916C217.2 241.388 220.866 242.159 225.298 243.154C229.731 244.15 235.018 245.094 240.649 245.836C246.192 246.854 252.079 247.671 258.221 248.563C261.208 248.833 264.196 249.103 267.095 249.65C270.082 249.92 273.07 250.19 275.802 250.386C278.534 250.581 281.265 250.776 284.085 250.695C286.562 250.816 289.126 250.66 291.347 250.705C292.457 250.728 293.568 250.751 294.766 250.497C295.366 250.371 295.877 250.52 296.22 250.319C296.82 250.192 297.075 250.267 297.675 250.14C299.472 249.759 301.182 249.655 302.469 249.125C303.068 248.999 303.667 248.872 304.267 248.745C304.188 248.117 304.531 247.915 304.787 247.99C305.042 248.065 305.131 247.789 305.386 247.863C306.074 247.46 306.329 247.535 306.329 247.535C306.329 247.535 305.985 247.737 305.386 247.863C305.131 247.789 304.875 247.714 304.787 247.99Z"
    fill="#8A94A8" />
  <path
    d="M113.54 212.442C114.481 213.034 116.106 214.14 119.017 215.635C144.483 220.55 169.678 228.155 193.575 238.139C196.834 238.507 198.808 238.487 199.924 238.516C172.258 227.087 143.206 218.318 113.54 212.442Z"
    fill="#D1C7BA" />
  <path
    d="M122.034 162.365C126.2 163.275 130.622 164.259 135.043 165.243C137.082 165.836 139.21 166.153 141.504 166.82C176.895 172.897 158.848 163.148 160.995 161.669C159.466 161.225 157.937 160.781 156.574 160.685C152.662 159.849 148.751 159.013 145.094 158.251C141.437 157.489 138.035 156.801 134.8 156.462C131.653 155.848 128.673 155.583 126.036 155.117C123.31 154.926 121.183 154.608 119.31 154.365C117.438 154.121 115.82 153.951 114.967 154.004C113.859 153.983 113.349 153.834 113.349 153.834C113.349 153.834 113.947 153.708 115.055 153.729C116.163 153.751 117.614 153.572 119.575 153.541C120.428 153.488 121.536 153.509 122.899 153.605C124.006 153.626 125.369 153.722 126.732 153.818C129.457 154.009 132.349 154.548 135.585 154.888C138.82 155.227 142.222 155.915 145.879 156.677C147.496 156.846 149.025 157.291 150.898 157.534L151.153 157.608C154.555 158.296 157.957 158.984 161.525 160.021C165.093 161.058 168.75 161.82 172.319 162.856C175.887 163.893 179.455 164.93 183.024 165.966C186.592 167.003 189.818 168.241 193.131 169.203C196.356 170.441 199.582 171.678 202.64 172.567C205.611 173.73 208.326 174.819 211.042 175.908C213.502 176.924 215.963 177.939 217.913 178.806C219.864 179.673 221.815 180.54 223.256 181.259C226.138 182.697 227.834 183.49 227.834 183.49C227.834 183.49 227.324 183.342 226.648 182.846C225.972 182.349 224.785 181.704 223.344 180.985C221.903 180.266 220.296 179.198 218.09 178.257C216.139 177.39 213.767 176.1 211.306 175.084C208.846 174.069 205.964 172.631 202.993 171.468C200.023 170.304 196.798 169.067 193.573 167.83C190.347 166.592 186.779 165.556 183.554 164.318C181.769 163.8 179.985 163.281 178.201 162.763C176.417 162.245 174.633 161.726 172.848 161.208C170.3 160.467 168.006 159.801 165.368 159.335C182.604 157.734 178.999 144.672 181.167 141.397L182.441 141.767L183.206 141.989L183.971 142.212C185.245 142.582 186.265 142.878 187.539 143.248C189.833 143.915 192.039 144.856 194.244 145.797C194.754 145.945 195.264 146.093 195.94 146.59C196.45 146.738 196.871 147.161 197.636 147.383C198.567 147.954 199.842 148.324 200.773 148.895L201.538 149.118L202.214 149.614C202.724 149.763 203.145 150.185 203.655 150.333C204.586 150.904 205.518 151.475 206.704 152.12C208.566 153.262 210.429 154.404 212.203 155.821C213.134 156.391 213.977 157.237 214.654 157.734C215.497 158.58 216.173 159.077 217.016 159.922C219.966 162.882 222.662 165.768 224.759 168.78C226.856 171.792 228.787 174.456 230.463 177.045C232.139 179.635 233.393 181.801 234.481 183.619C235.069 184.391 235.569 185.437 235.902 186.135C236.235 186.832 236.912 187.329 236.99 187.953C236.569 187.53 236.235 186.832 235.902 186.135C235.569 185.437 234.981 184.666 234.481 183.619C233.393 181.801 232.227 179.36 230.551 176.771C229.885 175.376 228.964 173.906 228.043 172.437C227.121 170.968 226.2 169.499 225.024 167.956C222.927 164.943 220.319 161.783 217.457 158.549C216.614 157.703 215.938 157.206 215.095 156.36C214.252 155.515 213.321 154.944 212.478 154.098C210.704 152.682 208.841 151.54 207.067 150.123C206.136 149.552 205.205 148.981 204.018 148.336C203.509 148.188 203.087 147.765 202.577 147.617L201.646 147.046L200.97 146.55C200.038 145.979 198.764 145.608 197.833 145.037C197.323 144.889 196.902 144.467 196.137 144.244C195.627 144.096 194.862 143.874 194.441 143.451C192.235 142.51 190.03 141.569 187.736 140.902C186.461 140.532 185.442 140.236 184.167 139.866L183.402 139.644L182.383 139.347L180.599 138.829C178.305 138.163 176.011 137.496 173.374 137.03C170.815 137.188 168.521 136.522 166.05 136.405C164.687 136.309 163.579 136.288 162.56 135.991C161.452 135.97 160.089 135.874 158.982 135.853C158.383 135.979 157.874 135.831 157.276 135.958C156.677 136.085 156.168 135.936 155.57 136.063C154.462 136.042 153.266 136.295 152.158 136.273C151.56 136.4 151.05 136.252 150.452 136.379C149.854 136.505 149.256 136.632 148.658 136.758C147.461 137.012 146.354 136.99 145.157 137.243C143.961 137.497 143.02 137.824 141.824 138.077C141.226 138.204 140.628 138.33 140.285 138.531C139.687 138.658 139.343 138.858 138.745 138.985C137.804 139.312 136.608 139.565 135.667 139.893C134.725 140.22 133.784 140.547 132.754 141.149C131.813 141.477 130.872 141.804 129.842 142.406C128.901 142.733 127.96 143.06 127.185 143.737C123.587 145.394 120.586 146.926 117.841 148.531C116.468 149.334 115.184 149.862 113.899 150.39C112.615 150.918 111.585 151.52 110.556 152.122C109.526 152.724 108.585 153.051 107.898 153.452C107.212 153.854 106.359 153.906 105.928 154.382C104.898 154.984 104.3 155.11 104.3 155.11C100.535 156.419 95.9269 156.883 90.3877 156.775C92.77 157.167 95.4071 157.633 97.7894 158.025C105.113 158.65 113.446 160.471 122.034 162.365Z"
    fill="#8A7E7F" />
  <path
    d="M133.509 221.508C139.249 223.86 146.62 226.397 155.62 229.119C164.878 231.919 172.166 233.814 178.512 235.117C163.858 229.761 148.685 225.173 133.509 221.508Z"
    fill="#D1C7BA" />
  <path
    d="M307.761 237.276C305.889 236.117 303.337 234.454 299.849 232.211C292.786 228.002 282.826 222.333 270.307 215.909C257.788 209.485 243.045 203.013 226.677 196.366C218.494 193.042 210.222 189.996 201.438 186.8C192.911 183.678 184.039 180.76 175.167 177.841C172.863 177.162 170.559 176.482 168.512 175.879C166.208 175.2 164.16 174.596 161.856 173.917C159.552 173.238 157.504 172.634 155.2 171.955C152.896 171.276 150.848 170.672 148.544 169.993C144.192 168.71 139.752 167.705 135.401 166.422C130.961 165.417 126.609 164.135 122.425 163.205C113.889 160.993 105.521 159.134 97.5773 157.703C89.7215 155.995 82.2896 154.716 75.3697 153.587C68.4498 152.459 62.0419 151.481 56.3139 151.008L56.0579 150.932C38.362 149.361 22.9618 149.378 20.2327 157.99C20.2327 157.99 20.2327 157.99 20.1447 158.267L20.0566 158.545C19.9686 158.823 19.9686 158.823 19.8805 159.101C19.8724 160.01 20.0323 161.272 20.5361 162.331C21.208 163.745 22.1358 165.233 23.4076 166.519C24.5914 168.083 26.3752 169.52 28.1591 170.957C29.9429 172.394 32.2387 173.982 34.2785 175.495C36.5743 177.083 38.9582 178.393 41.51 180.056C44.1498 181.442 46.7016 183.106 49.5975 184.567C52.2373 185.952 55.1332 187.413 58.029 188.875C60.9248 190.336 63.6527 191.443 66.5485 192.905C69.4444 194.366 72.1722 195.474 74.9001 196.581C80.3559 198.797 85.5556 200.937 89.9874 202.851C94.5073 204.487 98.2591 205.897 100.731 206.929C103.203 207.962 104.739 208.414 104.739 208.414C104.739 208.414 98.8591 205.77 90.2515 202.018C85.8197 200.104 80.964 197.761 75.5083 195.546C72.7804 194.438 70.1405 193.052 67.2447 191.591C64.3489 190.13 61.621 189.022 58.7252 187.561C58.2132 187.41 57.5332 186.906 57.0212 186.755C46.126 180.506 36.7748 173.801 32.9755 168.124C28.4163 161.313 39.3047 158.751 51.9689 158.536C50.8569 158.512 49.8329 158.21 48.7209 158.186C47.3529 158.086 46.0729 157.709 44.9609 157.685C42.569 157.284 40.089 157.16 38.209 156.91C36.073 156.584 34.449 156.409 32.825 156.234C31.969 156.285 31.201 156.059 30.689 155.908C30.1771 155.757 29.321 155.808 28.8091 155.658C26.6731 155.332 25.5611 155.308 25.5611 155.308C25.5611 155.308 25.8171 155.383 26.4171 155.256C27.0171 155.129 27.8731 155.078 28.9851 155.102C30.0971 155.126 31.5532 154.948 33.2652 154.845C34.1212 154.793 34.9772 154.742 35.8332 154.691C36.6893 154.639 37.8013 154.663 38.9133 154.687C40.0253 154.711 41.1373 154.735 42.2493 154.759C43.3613 154.783 44.7293 154.883 45.7533 155.185C47.1213 155.284 48.2333 155.308 49.6013 155.408C50.9693 155.507 52.3373 155.607 53.6172 155.984C54.9852 156.083 56.6092 156.258 57.8892 156.636C59.5132 156.811 60.8812 156.91 62.4171 157.363C65.6651 157.713 69.081 158.416 72.585 158.841C76.089 159.267 79.7609 160.045 83.4328 160.824C85.3128 161.074 87.1047 161.603 89.2407 161.928C91.1207 162.179 93.1686 162.783 95.0486 163.033C97.1846 163.359 98.9765 163.887 101.113 164.213C103.248 164.539 105.296 165.142 107.344 165.746C109.392 166.35 111.528 166.676 113.576 167.279C114.6 167.581 115.624 167.883 116.736 167.907C117.76 168.209 118.784 168.511 119.896 168.535C124.336 169.54 128.432 170.747 132.872 171.752C137.312 172.757 141.664 174.04 146.359 175.12C150.799 176.125 155.407 177.484 159.759 178.766C164.367 180.125 168.807 181.13 173.415 182.488C182.374 185.129 191.59 187.845 200.118 190.967C208.99 193.885 217.517 197.007 225.701 200.33C233.972 203.376 241.812 206.902 249.228 209.999C256.555 213.374 263.715 216.396 269.931 219.747C282.538 225.893 293.009 231.713 300.073 235.922C303.561 238.165 306.368 239.904 308.24 241.063C308.496 241.138 308.664 241.492 308.92 241.567C309.016 240.38 309.112 239.194 308.609 238.134C308.697 237.856 308.273 237.427 307.761 237.276Z"
    fill="#D6CEC3" />
  <path
    d="M241.214 214.454C242.669 215.199 244.21 215.663 245.665 216.408C247.119 217.152 248.661 217.616 250.116 218.361C253.112 219.57 255.851 220.701 258.503 222.114C263.895 224.658 268.859 226.766 272.966 228.923C275.191 229.9 277.072 231.081 279.041 231.98C281.009 232.88 282.721 233.702 284.175 234.447C287.341 236.014 289.479 237.272 291.191 238.094C292.902 238.916 293.586 239.429 293.586 239.429C293.586 239.429 292.645 238.839 291.191 238.094C289.567 236.991 287.429 235.733 284.263 234.166C282.808 233.421 281.184 232.317 279.216 231.418C277.247 230.518 275.366 229.338 273.398 228.438C269.034 226.204 264.414 223.892 259.022 221.348C256.283 220.216 253.631 218.804 250.635 217.595C249.18 216.85 247.638 216.386 246.184 215.642C244.729 214.897 243.187 214.433 241.733 213.688C238.737 212.479 235.571 210.912 232.317 209.626C229.064 208.34 225.811 207.054 222.301 205.691C218.79 204.328 215.28 202.964 211.77 201.601C208.26 200.238 204.662 199.156 200.895 197.715C197.297 196.633 193.53 195.192 189.932 194.11C186.078 192.951 182.567 191.587 178.713 190.428C174.858 189.268 171.261 188.186 167.406 187.027C163.552 185.867 159.954 184.785 156.356 183.703C148.904 181.461 141.622 179.578 134.596 177.772C130.999 176.69 127.571 175.966 124.23 174.961C120.802 174.237 117.461 173.233 114.29 172.586C107.779 170.935 101.437 169.642 95.9532 168.3C93.0392 167.731 90.3821 167.239 87.8124 166.466C85.1554 165.974 82.7553 165.559 80.3553 165.145C75.5551 164.316 71.5259 163.718 68.0979 162.995C64.5826 162.552 61.9256 162.06 60.2965 161.877C58.4103 161.617 57.5521 161.667 57.5521 161.667C57.5521 161.667 58.58 161.976 60.2091 162.158C62.0953 162.418 64.7523 162.91 67.9233 163.557C71.3512 164.281 75.2931 165.159 80.0933 165.988C84.8061 167.098 90.0328 168.363 95.6039 169.424C101.345 170.844 107.342 172.34 113.854 173.992C120.365 175.643 127.134 177.372 134.329 179.536C137.927 180.618 141.612 181.419 145.209 182.501C148.807 183.584 152.404 184.666 156.259 185.825C159.857 186.907 163.711 188.067 167.309 189.149C170.906 190.231 174.761 191.391 178.616 192.55C182.47 193.71 186.068 194.792 189.835 196.232C193.432 197.315 197.2 198.755 200.797 199.837C204.308 201.201 207.905 202.283 211.672 203.723C215.183 205.087 218.78 206.169 222.034 207.455C228.458 209.387 235.052 211.678 241.214 214.454Z"
    fill="#D1C7BA" />
  <path
    d="M310.73 243.241C313.645 234.217 304.033 226.955 300.914 224.558C294.167 219.618 284.865 214.837 275.564 210.056C262.713 203.352 249.353 196.501 243.987 189.867C240.8 185.957 238.388 181.373 235.721 176.715C227.134 161.976 217.716 145.501 184.651 135.944C151.586 126.387 134.043 135.069 118.213 142.751C113.25 145.203 108.629 147.455 103.588 149.286C95.2189 151.95 80.004 150.841 65.4744 149.332C55.1909 148.452 44.3988 147.426 35.8852 147.954C31.8827 148.292 19.7093 148.959 16.7063 158.256C15.6464 161.537 16.7096 165.133 19.6416 168.97C21.8211 171.693 25.3607 174.51 30.0837 177.968C37.5939 183.128 48.4989 188.971 62.5443 195.422C81.1574 204.091 100.466 211.466 107.92 214.218C107.733 215.659 108.143 216.973 109.238 217.888C109.658 218.308 119.27 225.571 152.589 235.201C185.909 244.832 198.17 243.892 198.768 243.765C200.216 243.586 201.332 242.713 202.028 241.419C209.835 243.078 230.204 247.171 250.76 249.824C266.219 251.901 278.714 252.822 287.991 252.513C293.862 252.417 298.295 251.605 301.966 250.573C306.918 249.015 309.67 246.522 310.73 243.241ZM104.651 152.882C104.651 152.882 105.248 152.756 106.276 152.156C106.873 152.03 107.558 151.63 108.244 151.23C108.929 150.83 109.869 150.504 110.897 149.904C111.836 149.578 112.864 148.978 114.235 148.178C115.517 147.652 116.888 146.852 118.171 146.326C120.824 145 124.162 143.274 127.5 141.549C128.44 141.222 129.125 140.823 130.153 140.223C131.093 139.896 132.121 139.297 133.061 138.97C134 138.644 134.94 138.318 135.968 137.718C136.908 137.392 138.102 137.139 139.042 136.812C139.639 136.686 139.981 136.486 140.578 136.36C141.175 136.233 141.772 136.107 142.115 135.907C143.309 135.654 144.249 135.328 145.443 135.075C146.637 134.822 147.742 134.843 148.936 134.59C149.533 134.464 150.13 134.337 150.727 134.211C151.325 134.085 151.833 134.232 152.43 134.105C153.536 134.126 154.73 133.873 155.836 133.894C156.433 133.767 156.941 133.914 157.538 133.788C158.135 133.661 158.644 133.808 159.241 133.682C160.347 133.703 161.707 133.797 162.813 133.817C163.918 133.838 165.19 134.206 166.296 134.226C168.761 134.341 171.051 135.003 173.428 135.391C175.805 135.779 178.095 136.441 180.638 137.176L182.418 137.691L183.436 137.985L184.199 138.205C185.471 138.573 186.488 138.867 187.76 139.234C190.049 139.896 192.25 140.831 194.45 141.766C194.959 141.913 195.722 142.134 196.143 142.554C196.651 142.701 197.072 143.122 197.835 143.342C198.764 143.91 200.035 144.277 200.964 144.845L201.639 145.339L202.314 145.833C202.823 145.98 203.243 146.4 203.752 146.547C204.681 147.115 205.864 147.756 206.793 148.323C208.563 149.732 210.675 150.94 212.191 152.275C213.032 153.116 213.961 153.684 214.801 154.525C215.642 155.366 216.317 155.86 217.158 156.7C220.1 159.644 222.7 162.787 224.703 166.057C225.876 167.591 226.794 169.053 227.713 170.514C228.631 171.975 229.295 173.363 230.214 174.825C231.63 177.327 233.047 179.829 234.131 181.637C233.047 179.829 231.542 177.6 230.125 175.098C228.454 172.522 226.618 169.6 224.438 166.877C222.347 163.881 219.659 161.011 216.716 158.068C215.875 157.227 215.201 156.733 214.36 155.892C213.519 155.051 212.59 154.483 211.915 153.989C210.146 152.581 208.287 151.446 206.429 150.311C205.5 149.743 204.571 149.176 203.388 148.535C202.879 148.388 202.459 147.967 201.95 147.82L201.275 147.326L200.512 147.106C199.583 146.538 198.311 146.171 197.382 145.603C196.874 145.456 196.453 145.036 195.69 144.815C195.182 144.668 194.673 144.521 193.998 144.027C191.797 143.092 189.597 142.157 187.307 141.495C186.036 141.128 185.018 140.834 183.747 140.466L182.984 140.246L182.221 140.025L180.949 139.657C178.529 142.845 182.372 155.914 165.168 157.519C167.712 158.254 170.089 158.642 172.632 159.377C174.413 159.892 176.193 160.406 177.974 160.921C179.754 161.436 181.535 161.95 183.315 162.465C186.876 163.494 190.094 164.723 193.312 165.952C196.53 167.181 199.748 168.411 202.712 169.566C205.676 170.722 208.297 172.077 211.007 173.16C213.462 174.168 215.829 175.45 217.775 176.312C219.722 177.173 221.58 178.308 223.018 179.023C224.455 179.737 225.639 180.378 226.313 180.872C226.988 181.366 227.497 181.513 227.497 181.513C227.497 181.513 225.805 180.725 222.929 179.296C221.491 178.582 219.799 177.794 217.599 176.859C215.652 175.997 213.197 174.988 210.742 173.98C208.287 172.971 205.323 171.816 202.359 170.66C199.395 169.504 196.431 168.349 192.871 167.32C189.652 166.09 186.346 165.135 182.785 164.105C179.224 163.076 175.663 162.047 172.102 161.018C168.542 159.989 164.892 159.233 161.332 158.204C157.682 157.448 154.376 156.492 150.981 155.81L150.727 155.736C149.112 155.569 147.332 155.054 145.718 154.886C142.068 154.131 138.585 153.722 135.445 153.113C132.216 152.778 129.33 152.242 126.61 152.054C125.25 151.96 123.89 151.866 122.784 151.845C121.678 151.824 120.572 151.804 119.467 151.783C117.51 151.816 116.15 151.721 114.956 151.974C113.85 151.954 113.253 152.08 113.253 152.08C113.253 152.08 113.762 152.227 114.867 152.248C115.973 152.268 117.333 152.362 119.202 152.604C121.071 152.845 123.536 152.96 125.914 153.348C128.634 153.536 131.52 154.071 134.66 154.68C137.801 155.289 141.284 155.698 144.933 156.453C148.582 157.209 152.486 158.038 156.389 158.868C157.916 159.309 159.442 159.75 160.802 159.844C158.912 161.391 176.917 171.079 141.344 164.983C139.309 164.395 137.186 164.08 134.897 163.418C130.485 162.442 126.072 161.466 121.915 160.563C113.345 158.684 104.941 157.151 97.0451 155.766C94.4134 155.305 92.0359 154.916 89.6585 154.528C96.2927 154.652 100.981 153.914 104.651 152.882ZM153.992 231.72C145.09 229.147 137.802 226.742 132.129 224.504C147.146 227.948 161.898 232.212 176.385 237.296C170.358 236.152 163.148 234.367 153.992 231.72ZM191.755 239.646C168.133 230.127 143.207 222.923 117.995 218.326C115.12 216.897 113.516 215.836 112.587 215.268C141.957 220.768 170.443 229.001 198.047 239.97C197.107 240.296 194.984 239.981 191.755 239.646ZM210.313 202.856C206.841 201.553 203.28 200.524 199.553 199.148C195.992 198.118 192.265 196.742 188.705 195.713C185.144 194.684 181.329 193.581 177.602 192.205C173.787 191.102 170.226 190.073 166.411 188.97C162.85 187.941 159.034 186.838 155.474 185.809C151.913 184.78 148.098 183.677 144.537 182.648C140.976 181.619 137.415 180.589 133.766 179.834C126.81 178.122 119.943 176.137 113.496 174.573C107.049 173.008 100.856 171.517 95.4267 170.247C89.7428 168.903 84.5676 167.706 80.067 167.003C75.4005 165.953 71.497 165.124 68.0138 164.715C64.619 164.033 61.9872 163.571 60.3728 163.403C58.5041 163.162 57.741 162.942 57.741 162.942C57.741 162.942 58.8467 162.962 60.4611 163.13C62.3299 163.371 64.9617 163.833 68.1905 164.168C71.6736 164.577 75.5771 165.406 80.332 166.183C82.7094 166.571 85.0869 166.959 87.7187 167.421C90.3505 167.883 92.9822 168.344 95.78 169.153C101.552 170.224 107.491 171.641 113.938 173.205C117.332 173.888 120.385 174.77 123.779 175.452C127.086 176.408 130.735 177.164 134.042 178.119C140.997 179.831 148.373 181.963 155.583 183.748C159.144 184.777 162.959 185.88 166.52 186.909C170.335 188.012 173.896 189.041 177.711 190.144C181.527 191.246 184.999 192.549 188.814 193.652C192.629 194.755 196.102 196.057 199.663 197.087C203.135 198.389 206.95 199.492 210.423 200.795C213.896 202.097 217.368 203.4 220.841 204.703C224.313 206.005 227.531 207.234 230.749 208.464C233.968 209.693 237.186 210.922 240.061 212.351C241.499 213.065 243.025 213.507 244.463 214.221C245.901 214.936 247.427 215.377 248.864 216.091C251.828 217.247 254.449 218.602 257.159 219.685C262.49 222.122 267.057 224.339 271.37 226.483C273.483 227.691 275.429 228.553 277.121 229.341C279.068 230.203 280.417 231.191 282.109 231.979C284.897 233.681 287.263 234.963 288.955 235.751C290.559 236.813 291.322 237.033 291.322 237.033C291.322 237.033 290.393 236.466 288.955 235.751C287.263 234.963 284.897 233.681 282.021 232.252C280.583 231.538 278.891 230.749 276.945 229.888C274.998 229.026 273.052 228.165 270.939 226.956C266.538 225.086 261.97 222.869 256.64 220.431C253.93 219.349 251.309 217.994 248.345 216.838C246.907 216.123 245.381 215.682 243.944 214.968C242.506 214.253 240.98 213.812 239.542 213.098C233.36 210.713 226.924 208.255 220.233 205.723C217.347 205.188 213.874 203.885 210.313 202.856ZM302.683 247.492C302.429 247.419 302.34 247.692 302.086 247.618C301.831 247.545 301.743 247.818 301.489 247.745C300.892 247.871 300.549 248.071 299.698 248.124C298.504 248.377 296.713 248.756 294.922 249.135C294.325 249.262 294.07 249.188 293.473 249.315C292.876 249.441 292.622 249.368 292.025 249.494C290.919 249.473 289.725 249.726 288.619 249.705C286.32 249.938 283.854 249.823 281.388 249.708C278.922 249.593 276.114 249.678 273.14 249.417C270.419 249.228 267.445 248.967 264.47 248.705C261.496 248.443 258.522 248.181 255.635 247.646C249.775 246.849 243.66 245.978 238.142 244.981C232.624 243.984 227.361 243.061 222.86 242.358C218.448 241.382 214.799 240.626 212.167 240.164C209.535 239.702 208.263 239.335 208.263 239.335C208.263 239.335 214.036 240.405 223.037 241.811C227.537 242.514 232.546 243.364 238.153 244.088C243.759 244.811 249.619 245.608 255.734 246.479C261.595 247.276 267.798 247.873 273.238 248.249C275.959 248.438 278.679 248.626 281.399 248.814C283.865 248.929 286.33 249.044 288.63 248.812C289.736 248.832 290.841 248.853 292.035 248.6C292.633 248.474 293.141 248.621 293.484 248.421C294.081 248.294 294.335 248.368 294.932 248.242C296.635 248.136 298.426 247.757 299.62 247.504C300.217 247.377 300.814 247.251 301.411 247.124C301.665 247.198 302.008 246.998 302.008 246.998C302.429 247.419 302.683 247.492 302.683 247.492C303.368 247.092 303.623 247.166 303.623 247.166C303.623 247.166 303.623 247.166 302.683 247.492ZM307.102 240.697C305.244 239.562 302.457 237.86 298.995 235.663C291.983 231.544 281.587 225.848 269.067 219.838C262.808 216.833 255.785 213.607 248.508 210.308C241.142 207.282 233.357 203.836 225.14 200.863C216.923 197.89 208.452 194.844 199.727 191.724C190.913 188.877 182.099 186.031 173.197 183.458C168.619 182.134 164.295 180.884 159.628 179.835C155.05 178.511 150.726 177.262 146.314 176.285C141.902 175.309 137.323 173.986 132.911 173.009C128.499 172.033 124.087 171.057 120.017 169.88C119 169.586 117.983 169.292 116.877 169.272C115.859 168.977 114.842 168.683 113.736 168.663C111.702 168.075 109.578 167.76 107.544 167.172C105.509 166.584 103.386 166.269 101.351 165.681C98.8853 165.566 97.1049 165.051 94.9818 164.737C92.8587 164.422 91.0783 163.907 89.2095 163.666C87.3408 163.425 85.306 162.837 83.4373 162.596C79.7881 161.84 76.0506 161.358 72.6558 160.675C69.261 159.993 65.7778 159.584 62.549 159.249C60.9346 159.081 59.3202 158.914 58.0485 158.546C56.4341 158.378 55.074 158.284 53.8023 157.917C52.4423 157.823 51.0822 157.728 49.8105 157.361C48.4504 157.267 47.0904 157.173 45.9847 157.152C44.6246 157.058 43.5189 157.037 42.5015 156.743C41.3958 156.722 40.2901 156.702 39.1844 156.681C38.0787 156.661 37.2273 156.713 36.1216 156.693C35.2703 156.746 34.4189 156.799 33.5675 156.851C31.8648 156.957 30.5047 156.863 29.3107 157.116C28.205 157.095 27.3536 157.148 26.7566 157.275C26.1596 157.401 25.9053 157.327 25.9053 157.327C25.9053 157.327 27.011 157.348 29.1341 157.663C29.6428 157.81 30.2398 157.683 31.0028 157.904C31.5115 158.051 32.3629 157.998 33.1259 158.219C34.7403 158.386 36.6091 158.627 38.4778 158.869C40.6009 159.183 42.8123 159.225 45.1897 159.613C46.5498 159.707 47.5672 160.001 48.9272 160.095C50.0329 160.116 51.0503 160.41 52.156 160.431C39.5623 160.677 28.7276 163.226 33.2421 169.912C37.0042 175.484 46.3725 181.779 57.1008 188.169C57.6095 188.316 58.2842 188.81 58.7929 188.957C61.6684 190.386 64.2896 191.741 67.2534 192.897C70.1289 194.326 72.8384 195.408 75.4595 196.764C80.7902 199.201 85.9548 201.292 90.102 203.089C98.6508 206.756 104.49 209.34 104.49 209.34C104.49 209.34 102.964 208.899 100.509 207.891C98.0538 206.882 94.2386 205.779 89.8371 203.909C85.3471 202.312 80.4369 200.295 74.8519 197.784C72.1424 196.702 69.5213 195.346 66.5574 194.191C63.6819 192.762 60.9724 191.679 58.0969 190.25C55.2214 188.821 52.6003 187.466 49.7248 186.037C47.1036 184.681 44.2281 183.252 41.6953 181.623C39.0741 180.268 36.7956 178.712 34.5171 177.157C32.2387 175.601 30.2145 174.119 28.4447 172.711C26.6749 171.302 24.9935 169.62 23.7324 168.359C22.4712 167.098 21.2985 165.563 20.8887 164.249C20.2246 162.861 20.0692 161.62 20.2459 161.073C20.3342 160.8 20.3342 160.8 20.4225 160.526C20.5109 160.253 20.5109 160.253 20.5109 160.253C20.5992 159.979 20.5992 159.979 20.5992 159.979C23.3372 151.503 38.8172 151.792 56.2435 152.942L56.4979 153.015C62.1041 153.739 68.5617 154.41 75.4397 155.501C82.3176 156.592 89.7043 157.83 97.5113 159.489C105.318 161.147 113.634 162.953 122.204 164.832C126.362 165.735 130.686 166.985 135.098 167.961C139.422 169.211 143.834 170.187 148.158 171.437C150.447 172.099 152.482 172.687 154.771 173.348C157.06 174.01 159.095 174.598 161.384 175.26C163.673 175.921 165.708 176.509 167.997 177.171C170.286 177.833 172.575 178.494 174.61 179.083C183.424 181.929 192.238 184.776 200.709 187.822C209.18 190.868 217.651 193.915 225.779 197.161C241.782 203.58 256.59 210.252 269.11 216.263C281.541 222.546 291.429 228.095 298.441 232.215C301.903 234.411 304.435 236.04 306.293 237.175C306.714 237.595 306.968 237.669 307.477 237.816C307.975 238.857 307.876 240.024 307.777 241.191C307.523 241.118 307.268 241.044 307.102 240.697Z"
    fill="#423B3C" />
  <path
    d="M163.109 156.881V143.555L168.074 145.907V156.881L175.651 164.981L168.074 162.107L158.667 170.729L161.019 162.107L147.432 164.981L163.109 156.881Z"
    fill="#EB9F59" />
  <path
    d="M194.725 162.107L186.625 164.981L194.725 156.881V143.555H199.167V156.881L214.061 164.981L202.564 162.107L203.87 170.729L194.725 162.107Z"
    fill="#EB9F59" />
  <path
    d="M163.109 156.881V143.555L168.074 145.907V156.881L175.651 164.981L168.074 162.107L158.667 170.729L161.019 162.107L147.432 164.981L163.109 156.881Z"
    stroke="black" />
  <path
    d="M194.725 162.107L186.625 164.981L194.725 156.881V143.555H199.167V156.881L214.061 164.981L202.564 162.107L203.87 170.729L194.725 162.107Z"
    stroke="black" />
  <path
    d="M223.505 98.8743C223.505 126.22 203.906 148.281 179.855 148.281C155.803 148.281 136.205 126.22 136.205 98.8743C136.205 71.5286 155.803 49.468 179.855 49.468C203.906 49.468 223.505 71.5286 223.505 98.8743Z"
    fill="#FA9579" stroke="#423B3C" />
  <path
    d="M134.876 91.1662C136.291 53.1486 159.933 40.6718 160.592 38.1243C161.251 35.5767 136.291 30.4163 136.291 30.4163C136.291 30.4163 150.348 29.7715 156.672 30.0244C163.028 30.2785 172.872 31.7227 172.872 31.7227L134.723 18.9196C134.723 18.9196 188.602 18.8816 207.89 44.5259C225.563 68.0231 224.891 94.9549 224.891 94.9549C224.891 94.9549 223.721 96.9146 220.432 101.748C216.573 107.42 212.977 117.918 211.153 117.948C209.33 117.979 206.854 106.324 203.576 106.324C200.298 106.324 199.218 119.516 195.737 119.516C193.458 119.516 188.732 108.414 186.325 108.414C183.918 108.414 181.565 121.695 179.143 121.868C176.72 122.04 174.122 108.606 171.699 108.414C169.275 108.223 164.901 121.991 161.897 121.868C158.894 121.745 158.021 106.605 155.888 106.719C153.754 106.832 149 118.017 147.526 117.948C144.467 117.805 144.498 101.748 141.778 101.748C139.818 101.748 133.462 129.184 134.876 91.1662Z"
    fill="#D9D9D9" stroke="#423B3C" stroke-linejoin="round" />
  <path
    d="M233.179 111.388C235.605 97.9337 224.183 86.9274 224.183 86.9274L214.061 130.593C214.061 130.593 230.228 127.756 233.179 111.388Z"
    fill="#D9D9D9" stroke="#423B3C" />
  <path
    d="M127.93 118.743C124.121 103.074 134.45 91.068 134.45 91.068L147.539 133.042C147.539 133.042 130.487 129.264 127.93 118.743Z"
    fill="#D9D9D9" stroke="#423B3C" />
  <path
    d="M167.836 81.8415C165.223 86.4139 178.81 105.358 178.81 105.358C178.81 105.358 192.397 86.8059 189.784 81.8415C187.593 77.679 183.514 76.877 178.81 76.877C174.106 76.877 170.169 77.7574 167.836 81.8415Z"
    fill="#EB9F59" stroke="#423B3C" />
  <circle cx="193.768" cy="67.2533" r="9.42901" fill="#D9D9D9" stroke="#423B3C" />
  <circle cx="195.868" cy="64.3943" r="5.84221" fill="#423B3C" />
  <circle cx="165.941" cy="67.2533" r="9.42901" fill="#D9D9D9" stroke="#423B3C" />
  <path
    d="M169.304 63.6692C169.304 66.3154 167.159 68.4606 164.513 68.4606C161.867 68.4606 159.722 66.3154 159.722 63.6692C159.722 61.023 161.867 58.8778 164.513 58.8778C167.159 58.8778 169.304 61.023 169.304 63.6692Z"
    fill="#423B3C" />
  <path
    d="M89.8877 234.263C89.8877 251.845 75.6348 266.098 58.053 266.098C40.4711 266.098 26.2183 251.845 26.2183 234.263C26.2183 216.681 40.4711 202.428 58.053 202.428C75.6348 202.428 89.8877 216.681 89.8877 234.263Z"
    fill="#D1BB9F" stroke="#FAF9F8" />
  <path
    d="M70.0242 221.378C76.6359 227.989 76.6359 238.709 70.0242 245.321C63.4126 251.932 52.693 251.932 46.0814 245.321C39.4697 238.709 39.4697 227.989 46.0814 221.378C52.693 214.766 63.4126 214.766 70.0242 221.378Z"
    fill="#FAF9F8" stroke="#FAF9F8" />
  <path
    d="M65.2726 222.99C64.9492 222.829 62.8982 221.877 60.9434 223.5C59.0746 225.052 58.4155 227.776 57.9754 229.608C57.9488 229.714 57.9201 229.843 57.8853 229.989L53.2798 229.364L53.0076 230.623L57.5988 231.237C57.437 231.95 57.2446 232.801 57.0379 233.708L52.6473 233.12L52.373 234.377L56.7513 234.971C56.1557 237.572 55.5027 240.303 55.1589 241.384C54.8887 242.239 54.0433 243.584 53.2511 243.529C51.9534 243.437 52.0701 242.505 51.5584 242.172C51.0466 241.838 50.5042 242.219 50.3896 242.729C50.275 243.238 51.151 244.012 51.8224 244.131C53.1099 244.364 54.3155 244.157 55.6829 242.95C56.8741 241.895 57.8935 238.713 58.4032 236.76C58.5096 236.35 58.6324 235.831 58.7614 235.243L63.2912 235.857L63.5654 234.6L59.0275 233.986C59.1974 233.168 59.3714 232.306 59.529 231.507L63.6903 232.07L63.9625 230.812L59.7807 230.247C59.9097 229.604 60.0182 229.066 60.096 228.716C60.8042 225.529 61.8358 223.314 62.9616 223.322C63.8275 223.322 64.0035 223.84 64.4211 224.345C64.8939 224.925 65.5039 225.019 65.8191 224.501C66.2019 223.885 65.598 223.156 65.2726 222.99Z"
    fill="black" />
  <path
    d="M305.829 157.659C305.829 175.24 291.576 189.493 273.994 189.493C256.412 189.493 242.159 175.24 242.159 157.659C242.159 140.077 256.412 125.824 273.994 125.824C291.576 125.824 305.829 140.077 305.829 157.659Z"
    fill="#D1BB9F" stroke="#FAF9F8" />
  <path
    d="M285.965 144.773C292.577 151.385 292.577 162.105 285.965 168.716C279.354 175.328 268.634 175.328 262.022 168.716C255.411 162.105 255.411 151.385 262.022 144.773C268.634 138.162 279.354 138.162 285.965 144.773Z"
    fill="#FAF9F8" stroke="#FAF9F8" />
  <path
    d="M281.213 146.386C280.89 146.224 278.839 145.272 276.884 146.896C275.015 148.447 274.356 151.172 273.916 153.003C273.89 153.11 273.861 153.239 273.826 153.384L269.221 152.76L268.948 154.019L273.54 154.633C273.378 155.345 273.186 156.197 272.979 157.103L268.588 156.516L268.314 157.773L272.692 158.366C272.097 160.968 271.444 163.699 271.1 164.779C270.83 165.635 269.984 166.98 269.192 166.924C267.894 166.832 268.011 165.901 267.499 165.567C266.988 165.234 266.445 165.614 266.331 166.124C266.216 166.634 267.092 167.407 267.763 167.526C269.051 167.76 270.256 167.553 271.624 166.345C272.815 165.291 273.834 162.108 274.344 160.155C274.451 159.746 274.573 159.226 274.702 158.639L279.232 159.253L279.506 157.996L274.968 157.382C275.138 156.563 275.312 155.701 275.47 154.903L279.631 155.466L279.903 154.207L275.722 153.642C275.851 152.999 275.959 152.461 276.037 152.111C276.745 148.924 277.777 146.709 278.903 146.717C279.768 146.717 279.944 147.235 280.362 147.741C280.835 148.32 281.445 148.414 281.76 147.896C282.143 147.28 281.539 146.552 281.213 146.386Z"
    fill="black" />
</svg>