<svg width="104" height="29" viewBox="0 0 104 29" fill="none" xmlns="http://www.w3.org/2000/svg">
  <path
    d="M100.185 9.69644C99.1115 9.08322 97.9235 8.73828 96.6971 8.73828C95.3556 8.73828 94.129 9.12155 93.0558 9.81142C91.9446 10.5013 91.063 11.4595 90.4114 12.6093L90.2963 12.3793C89.6833 11.1912 88.8783 10.2714 87.8434 9.65811C86.7704 9.04488 85.6206 8.73828 84.3174 8.73828C83.2059 8.73828 82.171 9.00657 81.2129 9.46649C80.2165 9.9264 79.4115 10.578 78.7216 11.4211V8.96824H74.6973V28.7448H78.7216V17.0169C78.7216 15.8288 79.105 14.7939 79.948 13.9507C80.7913 13.1075 81.7879 12.6859 82.976 12.6859C84.1258 12.6859 85.1222 13.1075 85.9654 13.9507C86.8087 14.7939 87.2303 15.8288 87.2303 17.0169V28.7448H91.2162V17.0169C91.2162 15.8288 91.5995 14.7939 92.4428 13.9507C93.2858 13.1075 94.2824 12.6859 95.4705 12.6859C96.6203 12.6859 97.6169 13.1075 98.4599 13.9507C99.3032 14.7939 99.7248 15.8288 99.7248 17.0169V28.7448H103.711V16.7103C103.711 15.0622 103.366 13.6441 102.753 12.4177C102.101 11.2295 101.258 10.3097 100.185 9.69644Z"
    fill="#FAF9F8" />
  <path
    d="M34.8441 8.35278C32.4302 8.35278 30.1695 9.50225 28.6369 11.4563V8.58266H24.6138V28.3536H28.6369V16.8588C28.6369 14.3683 30.6294 12.2993 33.1198 12.2993C35.6103 12.2993 37.6028 14.3683 37.6028 16.8588V28.3536H41.5876V16.7056C41.5876 11.4947 38.5607 8.35278 34.8441 8.35278Z"
    fill="#FAF9F8" />
  <path
    d="M48.1175 0C46.508 0 45.2437 1.30273 45.2437 2.91198C45.2437 4.52126 46.508 5.82399 48.1175 5.82399C49.7266 5.82399 50.991 4.52126 50.991 2.91198C50.991 1.30273 49.7266 0 48.1175 0ZM50.0714 8.58271H46.0867V28.3536H50.0714V8.58271Z"
    fill="#FAF9F8" />
  <path
    d="M55.5515 8.84058V12.5189H66.8163V16.1589H62.6015C56.969 16.1589 53.9038 18.8793 53.9038 22.8641C53.9038 26.4275 56.8159 28.8414 60.4559 28.8414C62.7546 28.8414 65.1685 27.9601 66.8163 25.8144V28.6115H70.7627V8.84058H55.5515ZM61.6054 25.5079C59.5363 25.5079 57.9654 24.3201 57.9654 22.6342C57.9654 20.91 59.1147 19.3008 63.138 19.3008H66.8163C66.8163 23.6304 64.249 25.5079 61.6054 25.5079Z"
    fill="#FAF9F8" />
  <path
    d="M10.6118 4.30206C11.5697 4.30206 12.336 4.53194 12.8725 4.76184V1.16017C12.2211 0.853643 11.0716 0.547119 9.80719 0.547119C6.43543 0.547119 3.9449 3.07595 3.9449 6.67762V8.59341H0.917969V12.0801H3.9449V28.3642H7.92973V12.0801H15.9371V8.59341H7.92973V6.75426C7.92973 5.06837 9.19415 4.30206 10.6118 4.30206Z"
    fill="#FAF9F8" />
  <path d="M19.9223 8.59326H15.9375V28.3641H19.9223V8.59326Z" fill="#FAF9F8" />
</svg>
