<svg width="49" height="49" viewBox="0 0 49 49" fill="black" xmlns="http://www.w3.org/2000/svg">
  <path fill-rule="evenodd" clip-rule="evenodd"
    d="M48.4443 0.299316H0.444336V48.2993H18.4369C18.4403 47.916 18.4753 43.8967 18.4632 41.8342C11.7874 43.284 10.3789 38.6164 10.3789 38.6164C9.28718 35.8451 7.71365 35.1069 7.71365 35.1069C5.53458 33.6174 7.87867 33.6468 7.87867 33.6468C10.2876 33.8177 11.5547 36.1206 11.5547 36.1206C13.6954 39.7877 17.1725 38.7284 18.5398 38.1155C18.7578 36.5641 19.3766 35.5062 20.0632 34.9065C14.7341 34.301 9.13101 32.2413 9.13101 23.0447C9.13101 20.4251 10.0666 18.2828 11.6018 16.6047C11.3543 15.9977 10.5307 13.5578 11.8361 10.2531C11.8361 10.2531 13.8516 9.6078 18.4366 12.7136C20.3505 12.1817 22.4043 11.9151 24.4449 11.9062C26.4826 11.9151 28.5364 12.1817 30.4532 12.7136C35.0353 9.6078 37.0464 10.2531 37.0464 10.2531C38.3562 13.5578 37.5326 15.9977 37.2851 16.6047C38.8233 18.2828 39.7529 20.4251 39.7529 23.0447C39.7529 32.2649 34.141 34.2936 28.7942 34.8874C29.6561 35.6285 30.4237 37.093 30.4237 39.3325C30.4237 42.209 30.4508 47.8429 30.4531 48.2993H48.4443V0.299316Z"
    fill="#FAF9F8" />
</svg>