<svg width="49" height="49" viewBox="0 0 49 49" fill="none" xmlns="http://www.w3.org/2000/svg">
  <path fill-rule="evenodd" clip-rule="evenodd"
    d="M48.3926 0.299316H0.392578V48.2993H48.3926V0.299316ZM11.1664 15.2059C13.4661 15.2059 15.3304 13.3416 15.3304 11.0419C15.3304 8.74221 13.4661 6.87793 11.1664 6.87793C8.86668 6.87793 7.0024 8.74221 7.0024 11.0419C7.0024 13.3416 8.86668 15.2059 11.1664 15.2059ZM19.1439 18.2832H26.045V21.4446C26.045 21.4446 27.9176 17.6992 33.013 17.6992C37.5583 17.6992 41.3235 19.9383 41.3235 26.7633V41.1553H34.1721V28.5073C34.1721 24.4812 32.0226 24.0383 30.3847 24.0383C26.9855 24.0383 26.4036 26.9704 26.4036 29.0324V41.1553H19.1439V18.2832ZM14.7963 18.2832H7.53653V41.1553H14.7963V18.2832Z"
    fill="#FAF9F8" />
</svg>