<svg width="207" height="117" viewBox="0 0 207 117" fill="none" xmlns="http://www.w3.org/2000/svg">
<path d="M13.25 56.4919C9.27083 56.4919 6.0625 55.2524 3.625 52.7732C1.20833 50.294 0 46.8253 0 42.3669V16.9919C0 11.6586 1.05208 7.57528 3.15625 4.74194C5.28125 1.90861 8.72917 0.491943 13.5 0.491943C16.1042 0.491943 18.4167 0.97111 20.4375 1.92944C22.4792 2.88778 24.0833 4.32528 25.25 6.24194C26.4167 8.13778 27 10.5336 27 13.4294V22.9294H16.0625V14.8044C16.0625 13.1586 15.8542 12.0544 15.4375 11.4919C15.0208 10.9086 14.375 10.6169 13.5 10.6169C12.4792 10.6169 11.7917 10.9919 11.4375 11.7419C11.0833 12.4711 10.9062 13.4503 10.9062 14.6794V42.2107C10.9062 43.7315 11.125 44.8044 11.5625 45.4294C12.0208 46.0544 12.6667 46.3669 13.5 46.3669C14.4375 46.3669 15.0938 45.9815 15.4688 45.2107C15.8646 44.4399 16.0625 43.4399 16.0625 42.2107V32.3044H27.125V42.7107C27.125 47.544 25.9062 51.0544 23.4688 53.2419C21.0312 55.4086 17.625 56.4919 13.25 56.4919Z" fill="#262525"/>
<path d="M85.24 56.4919C80.2192 56.4919 76.5942 55.2419 74.365 52.7419C72.1567 50.2419 71.0525 46.2628 71.0525 40.8044V35.4294H81.9275V42.3044C81.9275 43.5753 82.115 44.5753 82.49 45.3044C82.8858 46.0128 83.5629 46.3669 84.5212 46.3669C85.5212 46.3669 86.2087 46.0753 86.5837 45.4919C86.9796 44.9086 87.1775 43.9503 87.1775 42.6169C87.1775 40.9294 87.0108 39.5232 86.6775 38.3982C86.3442 37.2524 85.7608 36.169 84.9275 35.1482C84.115 34.1065 82.9796 32.8982 81.5212 31.5232L76.5837 26.8357C72.8962 23.3565 71.0525 19.3774 71.0525 14.8982C71.0525 10.2107 72.1358 6.63778 74.3025 4.17944C76.49 1.72111 79.6462 0.491943 83.7712 0.491943C88.8129 0.491943 92.3858 1.83569 94.49 4.52319C96.615 7.21069 97.6775 11.294 97.6775 16.7732H86.49V12.9919C86.49 12.2419 86.2712 11.6586 85.8337 11.2419C85.4171 10.8253 84.8442 10.6169 84.115 10.6169C83.24 10.6169 82.5942 10.8669 82.1775 11.3669C81.7817 11.8461 81.5837 12.4711 81.5837 13.2419C81.5837 14.0128 81.7921 14.8461 82.2087 15.7419C82.6254 16.6378 83.4483 17.669 84.6775 18.8357L91.0212 24.9294C92.2921 26.1378 93.4587 27.419 94.5212 28.7732C95.5837 30.1065 96.4379 31.669 97.0837 33.4607C97.7296 35.2315 98.0525 37.3982 98.0525 39.9607C98.0525 45.1274 97.0942 49.1794 95.1775 52.1169C93.2817 55.0336 89.9692 56.4919 85.24 56.4919Z" fill="#262525"/>
<path d="M106.86 55.9919V0.991943H123.61L128.235 34.5232L132.829 0.991943H149.735V55.9919H139.673V16.3669L133.36 55.9919H123.485L116.798 16.3669V55.9919H106.86Z" fill="#262525"/>
<path d="M159.23 55.9919V0.991943H169.855V55.9919H159.23Z" fill="#262525"/>
<path d="M192.163 56.4919C188.183 56.4919 184.975 55.2524 182.538 52.7732C180.121 50.294 178.913 46.8253 178.913 42.3669V16.9919C178.913 11.6586 179.965 7.57528 182.069 4.74194C184.194 1.90861 187.642 0.491943 192.413 0.491943C195.017 0.491943 197.329 0.97111 199.35 1.92944C201.392 2.88778 202.996 4.32528 204.163 6.24194C205.329 8.13778 205.913 10.5336 205.913 13.4294V22.9294H194.975V14.8044C194.975 13.1586 194.767 12.0544 194.35 11.4919C193.933 10.9086 193.288 10.6169 192.413 10.6169C191.392 10.6169 190.704 10.9919 190.35 11.7419C189.996 12.4711 189.819 13.4503 189.819 14.6794V42.2107C189.819 43.7315 190.038 44.8044 190.475 45.4294C190.933 46.0544 191.579 46.3669 192.413 46.3669C193.35 46.3669 194.006 45.9815 194.381 45.2107C194.777 44.4399 194.975 43.4399 194.975 42.2107V32.3044H206.038V42.7107C206.038 47.544 204.819 51.0544 202.381 53.2419C199.944 55.4086 196.538 56.4919 192.163 56.4919Z" fill="#262525"/>
<path d="M13.25 116.492C9.27083 116.492 6.0625 115.252 3.625 112.773C1.20833 110.294 0 106.825 0 102.367V76.9919C0 71.6586 1.05208 67.5753 3.15625 64.7419C5.28125 61.9086 8.72917 60.4919 13.5 60.4919C16.1042 60.4919 18.4167 60.9711 20.4375 61.9294C22.4792 62.8878 24.0833 64.3253 25.25 66.2419C26.4167 68.1378 27 70.5336 27 73.4294V82.9294H16.0625V74.8044C16.0625 73.1586 15.8542 72.0544 15.4375 71.4919C15.0208 70.9086 14.375 70.6169 13.5 70.6169C12.4792 70.6169 11.7917 70.9919 11.4375 71.7419C11.0833 72.4711 10.9062 73.4503 10.9062 74.6794V102.211C10.9062 103.732 11.125 104.804 11.5625 105.429C12.0208 106.054 12.6667 106.367 13.5 106.367C14.4375 106.367 15.0938 105.982 15.4688 105.211C15.8646 104.44 16.0625 103.44 16.0625 102.211V92.3044H27.125V102.711C27.125 107.544 25.9062 111.054 23.4688 113.242C21.0312 115.409 17.625 116.492 13.25 116.492Z" fill="#262525"/>
<path d="M33.3725 115.992V60.9919H44.31V80.6482H49.4975V60.9919H60.435V115.992H49.4975V91.0544H44.31V115.992H33.3725Z" fill="#262525"/>
<path d="M67.37 115.992V60.9919H77.995V115.992H67.37Z" fill="#262525"/>
<path d="M97.7425 116.492C93.7633 116.492 90.555 115.252 88.1175 112.773C85.7008 110.294 84.4925 106.825 84.4925 102.367V76.9919C84.4925 71.6586 85.5446 67.5753 87.6488 64.7419C89.7738 61.9086 93.2217 60.4919 97.9925 60.4919C100.597 60.4919 102.909 60.9711 104.93 61.9294C106.972 62.8878 108.576 64.3253 109.743 66.2419C110.909 68.1378 111.493 70.5336 111.493 73.4294V82.9294H100.555V74.8044C100.555 73.1586 100.347 72.0544 99.93 71.4919C99.5133 70.9086 98.8675 70.6169 97.9925 70.6169C96.9717 70.6169 96.2842 70.9919 95.93 71.7419C95.5758 72.4711 95.3988 73.4503 95.3988 74.6794V102.211C95.3988 103.732 95.6175 104.804 96.055 105.429C96.5133 106.054 97.1592 106.367 97.9925 106.367C98.93 106.367 99.5863 105.982 99.9613 105.211C100.357 104.44 100.555 103.44 100.555 102.211V92.3044H111.618V102.711C111.618 107.544 110.399 111.054 107.961 113.242C105.524 115.409 102.118 116.492 97.7425 116.492Z" fill="#262525"/>
<path d="M117.865 115.992V60.9919H128.74V83.0232L133.865 60.9919H144.927L138.771 86.1794L146.209 115.992H134.802L128.802 89.3669V115.992H117.865Z" fill="#262525"/>
<path d="M150.675 115.992V60.9919H172.675V71.6169H161.863V82.3357H172.238V92.6794H161.863V105.273H173.394V115.992H150.675Z" fill="#262525"/>
<path d="M179.61 115.992V60.9919H190.923L195.985 87.3357V60.9919H206.61V115.992H195.86L190.36 88.4919V115.992H179.61Z" fill="#262525"/>
<path d="M56.0881 8.32465C53.8379 7.33956 51.4002 7.03645 49.1501 7.26378C46.8374 7.49111 44.7122 8.32465 42.8371 9.53707C40.9619 10.7495 39.4618 12.265 38.2117 13.9321C37.0241 15.5992 36.1491 17.342 35.524 18.9334C34.899 20.6004 34.5865 22.116 34.3989 23.3284C34.2114 24.6166 34.1489 25.6017 34.1489 26.2837C34.1489 26.9657 34.1489 27.3445 34.1489 27.3445C34.1489 32.5731 35.8366 37.347 38.5243 40.8327C38.5243 40.757 38.4618 40.6812 38.4618 40.6054C38.3367 39.9992 38.3367 39.3172 38.0242 38.8625C37.9617 38.711 37.8367 38.6352 37.7117 38.4837C37.6492 38.3321 37.5242 38.1806 37.5867 38.029C37.5867 37.8775 37.7117 37.6501 37.8992 37.7259C38.0242 37.7259 38.0867 37.8017 38.1492 37.9532C38.2117 38.029 38.2117 38.1806 38.2742 38.3321C38.3367 38.5594 38.5243 38.7868 38.7118 38.8625C38.7743 38.9383 38.8368 38.9383 38.8993 39.0141C39.0243 39.1657 39.1493 39.393 39.1493 39.6203C39.2118 39.8476 39.2118 40.075 39.3368 40.2265C39.4618 40.4539 39.6493 40.5296 39.7744 40.6812C40.0244 40.9085 40.2744 41.2116 40.4619 41.5905C40.6494 41.8936 40.8994 42.2725 41.087 42.5756C43.0246 43.0303 45.6498 43.1818 47.9 41.8178C47.9 41.8178 47.9 41.8178 47.8375 41.8178C47.2749 41.5905 46.7124 41.3632 46.1498 41.1358C45.8373 40.9843 45.5248 40.9085 45.2123 40.757C45.1498 40.757 45.1498 40.757 45.0873 40.6812C45.0247 40.6054 45.0873 40.4539 45.1498 40.3781C45.2748 40.3023 45.3373 40.3781 45.4623 40.4539C45.5248 40.5296 45.5873 40.6054 45.7123 40.6812C46.0248 40.9085 46.3999 40.8327 46.7124 40.8327C47.0874 40.9085 47.3999 41.0601 47.775 41.2116C48.0875 41.2874 48.3375 41.2874 48.65 41.2874C49.6501 40.3023 47.775 38.6352 45.6498 37.4986C44.6497 37.8017 43.5246 37.5744 42.6496 36.9681C42.3995 36.7408 42.1495 36.5135 41.837 36.5135C41.6495 36.5135 41.462 36.5893 41.2745 36.5893C41.0244 36.5893 40.8994 36.4377 40.7119 36.2861C40.5244 36.1346 40.1494 36.1346 40.0244 35.9073C39.9619 35.8315 39.9619 35.6799 40.0869 35.6042C40.1494 35.6042 40.2119 35.6042 40.2744 35.6799C40.3369 35.7557 40.3369 35.8315 40.3994 35.8315C40.4619 35.9073 40.5869 35.9073 40.7119 35.8315C40.7744 35.7557 40.8369 35.6042 40.8369 35.5284C40.8369 35.5284 40.8369 35.5284 40.8369 35.4526C37.4617 33.634 35.274 31.2849 38.5243 31.0576C38.6493 31.0576 38.7743 31.0576 38.8993 31.0576C38.6493 30.9818 38.3992 30.8302 38.1492 30.6787C37.8992 30.5271 37.7117 30.3756 37.4617 30.224C37.3992 30.1483 37.3367 30.1483 37.3367 30.0725C37.3367 29.9209 37.4617 29.8452 37.5867 29.8452C37.8992 29.9209 38.1492 30.2998 38.4618 30.3756C38.6493 30.4514 38.8368 30.2998 39.0868 30.224C40.1494 29.8452 41.2745 29.6178 42.3995 29.7694C42.4621 29.6936 42.5246 29.6178 42.5871 29.5421C42.8371 29.3147 43.0871 29.0116 43.2746 28.7085C43.3996 28.4054 43.3996 28.0265 43.5871 27.7992C43.7747 27.6476 43.9622 27.5719 44.2122 27.4961C44.9622 27.3445 45.7123 27.193 46.5249 27.1172C47.5874 26.9656 48.65 26.7383 49.7126 26.9657C50.6502 27.1172 51.5252 27.6476 52.4628 27.7234C53.4629 27.7992 54.463 27.4961 55.338 27.0414C56.2131 26.2837 56.9006 25.2228 57.4007 24.0861C58.0257 22.4948 58.2758 20.6004 59.2133 19.2365C59.2133 19.1607 59.2758 19.0849 59.3383 19.0849C59.2758 19.1607 59.2758 19.2365 59.2133 19.2365C59.1508 19.388 59.1508 19.5396 59.2133 19.6911C59.3383 19.9184 59.5884 19.9184 59.7134 19.7669C59.8384 19.6911 59.9009 19.5396 59.9634 19.388C60.2134 18.706 60.4634 18.024 60.7134 17.4178C60.6509 17.7209 60.9635 17.8725 61.2135 17.7209C61.4635 17.5694 61.526 17.342 61.5885 17.0389V16.9632C61.8385 15.3719 61.7135 14.1594 61.651 13.629C61.7135 13.7048 61.7135 13.7048 61.776 13.7806C63.2136 15.5234 64.3387 17.5694 65.1513 19.7669C67.6515 27.0414 66.4639 35.7557 61.5885 41.6663C61.4635 41.8178 61.276 42.0452 61.151 42.1967C60.5259 42.8787 59.9009 43.4091 59.2758 43.9396C58.5883 44.47 57.9007 44.9247 57.2757 45.3035C55.9631 46.0613 54.713 46.516 53.7129 46.8191C52.7128 47.1222 51.8378 47.198 51.2752 47.2737C50.7127 47.2737 50.4002 47.3495 50.4002 47.3495C50.4002 47.3495 50.7127 47.3495 51.2752 47.3495C51.8378 47.2737 52.6503 47.2737 53.7129 47.0464C54.7755 46.8191 56.0256 46.3644 57.3382 45.6824C58.7133 44.9247 60.1509 43.8638 61.4635 42.424C62.8386 40.9843 64.0887 39.0899 65.0888 36.8166C66.0888 34.5433 66.7764 31.9669 66.9639 29.1632C67.1514 26.4352 66.9014 23.4799 66.0888 20.752C65.2763 18.024 63.9637 15.4476 62.2136 13.3259C60.4634 10.9768 58.3383 9.30975 56.0881 8.32465ZM44.6497 41.4389C44.7122 41.4389 44.7747 41.4389 44.8372 41.4389C45.1498 41.5147 45.4623 41.5905 45.5873 41.7421C45.6498 41.8178 45.6498 41.8178 45.6498 41.8936C45.6498 41.9694 45.5873 41.9694 45.4623 41.9694C45.3998 41.9694 45.2748 41.9694 45.2123 41.9694C45.1498 41.9694 45.0873 41.8936 45.0247 41.8936C44.8372 41.8178 44.7122 41.6663 44.6497 41.5147C44.5872 41.5147 44.5872 41.4389 44.6497 41.4389ZM41.212 41.5147C41.212 41.4389 41.2745 41.4389 41.337 41.4389C41.5245 41.4389 41.8995 41.5905 42.212 41.8178C42.2745 41.8936 42.337 41.8936 42.337 41.9694C42.3995 42.0452 42.337 42.1209 42.337 42.1209C42.212 42.1967 41.962 42.1967 41.7745 42.1209C41.712 42.1209 41.6495 42.0452 41.5245 42.0452C41.462 41.9694 41.337 41.8936 41.2745 41.8178C41.212 41.6663 41.212 41.5905 41.212 41.5147ZM38.2742 34.1644C38.3367 34.1644 38.4618 34.2402 38.5243 34.2402C38.8993 34.4675 39.2743 34.7706 39.3993 34.998C39.4618 35.0737 39.4618 35.1495 39.3993 35.2253C39.3368 35.3011 39.2743 35.3011 39.0868 35.3011C38.9618 35.3011 38.8368 35.2253 38.7118 35.1495C38.5868 35.0737 38.5243 34.998 38.4618 34.9222C38.2117 34.6948 38.0867 34.4675 38.0867 34.2402C38.1492 34.2402 38.2117 34.1644 38.2742 34.1644ZM47.9 8.70354C47.9625 8.62776 48.0875 8.55198 48.2125 8.4762C48.525 8.32465 48.9625 8.32465 49.2126 8.4762C49.2751 8.4762 49.3376 8.55198 49.3376 8.62775C49.3376 8.70353 49.2751 8.85509 49.1501 8.85509C48.9 9.08241 48.5875 9.23397 48.275 9.23397C48.2125 9.23397 48.0875 9.23397 48.025 9.23397C47.9625 9.23397 47.9 9.15819 47.8375 9.00664C47.775 9.00664 47.8375 8.85509 47.9 8.70354ZM35.8366 29.6178C35.774 29.7694 35.7115 29.8452 35.649 29.8452C35.774 30.2998 35.8366 30.7545 35.8366 30.9818C35.8366 31.0576 35.8366 31.1334 35.774 31.1334C35.7115 31.1334 35.649 31.0576 35.5865 30.906C35.524 30.7545 35.4615 30.6029 35.4615 30.4514C35.399 30.2998 35.399 30.224 35.399 30.0725C35.399 29.9209 35.399 29.7694 35.399 29.6178C35.3365 29.542 35.3365 29.542 35.3365 29.4663C35.2115 29.3147 35.2115 29.0874 35.149 28.8601C35.024 28.2539 35.0865 27.4961 35.274 27.1172C35.3365 27.0414 35.3365 26.9657 35.399 26.9657C35.524 26.9657 35.5865 27.193 35.649 27.3445C35.8366 27.875 35.9616 28.4812 35.9616 29.0874C35.8366 29.3147 35.8366 29.542 35.8366 29.6178ZM35.9616 23.3284C35.8366 23.783 35.5865 24.0861 35.3365 24.3135C35.274 24.3893 35.149 24.3893 35.0865 24.2377C35.0865 24.0861 35.0865 24.0104 35.0865 23.8588C35.0865 23.1768 35.2115 22.4948 35.4615 22.1917C35.524 22.116 35.649 21.9644 35.7115 22.0402C35.8366 22.0402 35.9616 22.116 36.0241 22.3433C36.0866 22.4948 36.0866 22.7222 36.0866 22.8737C36.0866 23.0253 36.0241 23.1768 35.9616 23.3284ZM37.0241 36.8924C37.0241 36.9681 37.0241 37.0439 37.0241 37.0439C36.9616 37.0439 36.8991 37.0439 36.7741 36.8924C36.6491 36.8166 36.5866 36.665 36.5241 36.5893C36.4616 36.5135 36.3991 36.3619 36.3366 36.2861C36.2116 35.983 36.1491 35.7557 36.1491 35.6042C36.1491 35.5284 36.2116 35.5284 36.2741 35.6042C36.3366 35.6799 36.3991 35.7557 36.4616 35.8315C36.7116 36.2104 36.9616 36.665 37.0241 36.8924ZM36.7116 20.752C36.5866 20.6762 36.5241 20.4489 36.5241 20.2215C36.5241 19.1607 37.0241 18.2514 37.5242 17.4178C37.8992 16.7358 38.3367 15.9781 38.7118 15.2961C38.9618 14.8414 39.2743 14.311 39.7744 14.0837C39.8369 14.0079 39.9619 14.0079 40.0869 14.0837C40.1494 14.1594 40.1494 14.311 40.0869 14.4625C39.8369 15.2203 39.3368 15.7507 38.9618 16.357C38.5243 17.0389 38.1492 17.7967 37.8367 18.5545C37.7117 18.9334 37.5867 19.388 37.5242 19.7669C37.4617 19.9942 37.3992 20.3731 37.2742 20.6004C37.0866 20.752 36.8991 20.8278 36.7116 20.752ZM39.3368 28.3296C39.2743 28.7085 39.0868 29.0116 38.8993 29.2389C38.8368 29.3147 38.7743 29.3147 38.6493 29.2389C38.5868 29.1632 38.5868 29.0874 38.5868 28.9358C38.5243 28.4054 38.5868 27.7992 38.7743 27.4961C38.8368 27.4203 38.8993 27.3445 38.9618 27.2688C39.0243 27.2688 39.1493 27.3445 39.2743 27.4203C39.3368 27.5719 39.3993 27.7234 39.3993 27.875C39.3993 28.1023 39.3993 28.1781 39.3368 28.3296ZM40.2119 24.6166C40.1494 24.8439 39.9619 25.0712 39.7744 25.2228C39.3368 25.6017 38.8993 25.9806 38.5243 26.3594C38.2742 26.5868 38.0242 26.7383 37.7742 26.7383C37.5242 26.6625 37.3367 26.3594 37.2742 26.0563C37.1492 25.4501 37.3992 24.6924 37.4617 24.0861C37.5242 23.4799 37.8992 23.0253 38.3992 22.8737C38.6493 22.7979 39.0243 22.8737 39.0868 23.1768C39.1493 23.4042 39.0868 23.6315 39.2118 23.783C39.3993 24.0861 39.7744 23.783 40.0869 23.9346C40.2744 24.0104 40.3369 24.3135 40.2119 24.6166ZM42.8996 25.2228C42.8371 25.2986 42.7746 25.4501 42.7121 25.4501C42.5246 25.6775 42.2745 25.829 42.087 25.829C42.0245 25.829 41.962 25.829 41.962 25.6774C41.962 25.6017 41.962 25.5259 42.0245 25.4501C42.1495 25.0712 42.3995 24.6166 42.6496 24.5408C42.7121 24.465 42.7746 24.465 42.8996 24.5408C42.9621 24.5408 43.0246 24.6924 43.0246 24.8439C43.0246 24.9955 42.9621 25.147 42.8996 25.2228ZM43.1496 16.5085C43.0871 17.1147 42.8371 17.7209 42.5246 18.1756C42.4621 18.3271 42.337 18.4787 42.212 18.5545C42.087 18.6302 41.8995 18.706 41.7745 18.6302C41.587 18.5545 41.5245 18.3271 41.462 18.0998C41.462 17.8725 41.462 17.6452 41.5245 17.4936C41.712 16.8874 42.212 16.2812 42.7121 16.0538C42.7746 15.9781 42.8996 15.9781 42.9621 16.0538C43.1496 16.1296 43.1496 16.3569 43.1496 16.5085ZM43.2746 13.0986C42.5871 13.0228 44.0872 12.4924 44.0247 11.8104C43.9622 11.1284 43.9622 11.2799 45.0873 10.9768C45.5248 10.8253 45.6498 10.8253 45.8998 10.8253C46.1498 10.901 46.7124 10.8253 46.5874 11.1284C46.4624 11.5073 45.8373 11.7346 45.2123 12.1135C44.5247 12.5681 43.9622 13.1743 43.2746 13.0986ZM48.65 21.2824C48.4625 21.7371 47.9625 21.8886 47.6499 22.2675C47.3999 22.5706 47.2749 22.9495 47.0874 23.2526C46.8374 23.783 46.3374 24.0861 45.8998 24.1619C45.3998 24.2377 44.8997 23.9346 44.5872 23.4799C44.2747 22.9495 44.3372 22.2675 44.5247 21.6613C44.6497 21.3582 44.8372 20.9793 45.0247 20.752C45.0873 20.2973 45.2123 19.7669 45.2748 19.3122C45.3373 18.706 45.7123 18.2514 46.2123 18.0998C46.4624 18.024 46.8374 18.0998 46.8999 18.4029C46.9624 18.6302 46.8999 18.8576 47.0249 19.0091C47.2124 19.3122 47.5874 19.0091 47.9 19.1607C48.0875 19.2365 48.15 19.6153 48.0875 19.8427C48.275 19.9184 48.4 20.07 48.525 20.2215C48.7125 20.5247 48.775 20.9793 48.65 21.2824ZM49.3376 16.357C49.1501 16.5085 48.9 16.5843 48.65 16.5085C48.5875 16.5085 48.4625 16.5085 48.4 16.4327C48.3375 16.357 48.2125 16.2812 48.15 16.2054C48.0875 16.1296 48.0875 15.9781 48.0875 15.9023C48.15 15.8265 48.2125 15.7507 48.275 15.7507C48.525 15.675 48.9 15.7507 49.2126 15.9781C49.2751 15.9781 49.3376 16.0538 49.3376 16.1296C49.4001 16.2812 49.4001 16.357 49.3376 16.357ZM48.7125 13.5532C48.15 13.629 47.5249 13.7806 47.0249 13.7048C46.5249 13.629 46.2748 13.4017 46.3373 13.1743C46.3999 12.7197 47.3374 12.265 47.775 11.8104C48.2125 11.4315 49.2126 11.1284 50.2751 11.0526C50.8377 11.0526 51.5252 11.1284 51.5252 11.3557C51.5252 11.5073 51.3377 11.6588 51.4627 11.8104C51.7128 12.0377 52.6503 11.8861 53.0879 12.0377C53.4629 12.1135 53.3379 12.4166 53.0254 12.5681C52.7128 12.7197 52.2753 12.7955 51.8378 12.947C50.8377 13.1743 49.7751 13.3259 48.7125 13.5532ZM51.2127 24.6924C51.0252 24.8439 50.7752 24.9197 50.5252 24.8439C50.4627 24.8439 50.3377 24.8439 50.2751 24.7681C50.2126 24.6924 50.0876 24.6166 50.0251 24.5408C49.9626 24.3892 49.9626 24.3135 49.9626 24.2377C50.0251 24.1619 50.0876 24.0861 50.1501 24.0861C50.4002 24.0104 50.7752 24.0861 51.1502 24.3135C51.2127 24.3135 51.2752 24.3893 51.2752 24.465C51.3377 24.5408 51.2752 24.6166 51.2127 24.6924ZM50.7127 15.1445C50.6502 15.0688 50.5877 14.993 50.6502 14.8414C50.7127 14.7656 50.7752 14.6899 50.8377 14.6141C51.2752 14.311 51.7753 14.2352 52.0878 14.311C52.2128 14.311 52.2753 14.3868 52.3378 14.5383C52.4003 14.6141 52.4003 14.7656 52.2753 14.993C52.2128 15.1445 52.0878 15.2203 51.9628 15.2961C51.8378 15.3719 51.7128 15.3719 51.6503 15.3719C51.2752 15.4476 50.9627 15.3719 50.7127 15.1445ZM54.338 21.8129C53.9004 22.1917 53.4004 22.4191 52.8378 22.4191C52.6503 22.4191 52.4628 22.4191 52.3378 22.3433C52.1503 22.2675 51.9628 22.116 51.9003 21.9644C51.7753 21.7371 51.7753 21.434 51.9003 21.2824C51.9628 21.1309 52.1503 20.9793 52.3378 20.9035C52.8378 20.6762 53.6504 20.6762 54.2754 21.0551C54.4005 21.1309 54.5255 21.2066 54.5255 21.3582C54.588 21.5855 54.463 21.7371 54.338 21.8129ZM57.9007 18.2514C57.7757 18.5545 57.4632 18.706 57.1507 18.706C56.5881 18.706 56.0881 18.4029 55.7756 17.8725C55.463 17.342 55.338 16.6601 54.9005 16.5085C54.6505 16.4327 54.4005 16.5085 54.1504 16.4327C53.9004 16.4327 53.6504 16.2812 53.5879 15.9781C53.5254 15.675 53.7129 15.4476 53.9004 15.2961C54.0879 15.0688 54.338 14.6899 54.588 14.6141C54.9005 14.5383 55.2755 14.7656 55.5255 14.9172C55.8381 15.1445 56.0881 15.4476 56.3381 15.7507C56.7131 16.1296 57.0257 16.5843 57.4007 16.9632C57.5257 17.1147 57.7132 17.342 57.8382 17.5694C57.9632 17.7209 58.0257 18.024 57.9007 18.2514ZM59.2133 15.4476C59.0883 15.5234 58.9633 15.5234 58.9008 15.5234C58.7758 15.5234 58.7133 15.4476 58.5883 15.3719C58.2758 15.1445 58.0882 14.8414 57.9007 14.5383C57.8382 14.4625 57.8382 14.311 57.9007 14.2352C57.9632 14.1594 58.0257 14.1594 58.0882 14.1594C58.4633 14.1594 58.9633 14.3868 59.1508 14.6899C59.2133 14.7656 59.2758 14.9172 59.2758 15.0687C59.4008 15.2203 59.3383 15.3719 59.2133 15.4476ZM59.5258 12.5681C59.4633 12.7197 59.2758 12.7197 59.1508 12.6439C58.2758 12.4166 57.5882 11.8104 56.8381 11.2799C56.0256 10.7495 55.088 10.2948 54.1504 10.0675C53.7129 9.91595 53.2129 9.84018 52.7128 9.7644C52.4003 9.68862 51.9628 9.68863 51.7128 9.53707C51.5252 9.38552 51.3377 9.15819 51.4627 8.85509C51.5252 8.62776 51.7753 8.55198 51.9628 8.4762C53.0879 8.32465 54.2129 8.85509 55.2755 9.4613C56.1506 9.91596 57.0257 10.3706 57.9007 10.8253C58.4633 11.1284 59.0883 11.4315 59.4008 12.1135C59.5884 12.265 59.5884 12.4924 59.5258 12.5681Z" fill="#E3DDD1"/>
<path d="M58.526 27.7233C58.4634 27.7991 58.4009 27.7991 58.3384 27.7991C58.2134 27.8748 58.0884 27.8748 57.9634 27.8748C57.8384 27.8748 57.7759 27.8748 57.7134 27.8748C57.6509 27.8748 57.5884 27.8748 57.5884 27.8748C57.5884 27.8748 57.6509 27.8748 57.7134 27.9506C57.7759 27.9506 57.9009 28.0264 57.9634 28.0264C58.0884 28.0264 58.2134 28.0264 58.3384 27.9506C58.4009 27.9506 58.4634 27.8748 58.526 27.8748C58.5885 27.8748 58.5885 27.7991 58.651 27.7233C58.651 27.6475 58.651 27.5717 58.651 27.4959C58.5885 27.4202 58.526 27.3444 58.4634 27.2686C58.4009 27.1928 58.3384 27.1928 58.2759 27.1928C58.1509 27.1171 58.0259 27.1171 57.9009 27.1171C57.7759 27.1171 57.7134 27.1171 57.6509 27.1171C57.5884 27.1171 57.5259 27.1928 57.5259 27.1928C57.5259 27.1928 57.5884 27.1928 57.6509 27.1928C57.7134 27.1928 57.8384 27.1928 57.9009 27.2686C58.0259 27.2686 58.1509 27.3444 58.2759 27.4202C58.3384 27.4202 58.4009 27.4959 58.4634 27.4959C58.526 27.4959 58.5885 27.5717 58.5885 27.6475C58.5885 27.6475 58.5885 27.6475 58.526 27.7233Z" fill="#E3DDD1"/>
<path d="M60.4634 27.2687C60.3384 27.2687 60.2759 27.2687 60.1509 27.1929C60.0884 27.1929 60.0884 27.1929 60.0259 27.1172C59.9634 27.1172 59.9634 27.0414 59.9009 27.0414C59.7759 26.8898 59.6509 26.6625 59.6509 26.4352C59.6509 26.5867 59.6509 26.6625 59.7134 26.8141C59.7759 26.9656 59.8384 27.0414 59.9009 27.1172C59.9634 27.1929 59.9634 27.1929 60.0259 27.2687C60.0884 27.2687 60.1509 27.3445 60.1509 27.3445C60.2134 27.3445 60.3384 27.4203 60.4009 27.4203C60.4009 27.4961 60.4634 27.6476 60.4634 27.7234C60.5259 27.7992 60.651 27.9507 60.776 27.9507C60.901 27.9507 60.9635 27.8749 61.0885 27.7992C61.151 27.7234 61.276 27.7234 61.3385 27.6476H61.401C61.401 27.6476 61.401 27.6476 61.4635 27.6476C61.4635 27.6476 61.4635 27.6476 61.4635 27.7234C61.526 27.7992 61.526 27.9507 61.651 28.0265C61.7135 28.1023 61.8385 28.178 61.9636 28.178C62.0886 28.178 62.2136 28.178 62.2761 28.1023C62.2761 28.1023 62.3386 28.1023 62.3386 28.0265C62.3386 28.0265 62.3386 28.0265 62.4011 28.0265C62.4636 28.0265 62.4636 27.9507 62.5261 27.8749C62.5886 27.7992 62.6511 27.7234 62.7136 27.5718C62.8386 27.3445 62.9011 27.1172 62.8386 26.8141C62.8386 26.7383 62.8386 26.6625 62.8386 26.6625V26.511C62.8386 26.4352 62.7761 26.2836 62.7761 26.2079C62.7761 25.9805 62.7136 25.7532 62.6511 25.5259C62.7136 25.3743 62.7136 25.2228 62.7136 25.0712C62.7136 24.9954 62.7136 24.9197 62.7136 24.8439C62.7136 24.7681 62.7136 24.6923 62.7136 24.6166C62.7136 24.2377 62.5886 23.9346 62.4636 23.6315C62.4011 23.4799 62.2761 23.4041 62.1511 23.2526C62.0886 23.1768 62.0261 23.1768 61.9636 23.101C61.901 23.101 61.8385 23.0252 61.776 23.0252C61.526 22.9495 61.2135 23.0252 60.9635 23.2526C61.2135 23.101 61.4635 23.101 61.7135 23.1768C61.776 23.1768 61.8385 23.2526 61.901 23.2526C61.9636 23.2526 62.0261 23.3283 62.0886 23.4041C62.2136 23.4799 62.2761 23.6315 62.3386 23.7072C62.4636 23.9346 62.5261 24.3134 62.5261 24.6166C62.5261 24.9197 62.4636 25.2228 62.4011 25.5259V25.6016C62.4636 25.829 62.4636 26.0563 62.5261 26.2836C62.5261 26.3594 62.5261 26.511 62.5886 26.6625V26.8141C62.5886 26.8898 62.5886 26.8898 62.5886 26.9656C62.5886 27.1929 62.5886 27.3445 62.4636 27.5718C62.4011 27.6476 62.4011 27.7234 62.3386 27.7992C62.2761 27.8749 62.2136 27.9507 62.1511 27.9507C62.0886 28.0265 62.0261 28.0265 61.901 28.0265C61.8385 28.0265 61.776 28.0265 61.7135 27.9507C61.651 27.8749 61.651 27.7992 61.5885 27.6476L61.526 27.5718L61.4635 27.4961C61.401 27.4203 61.3385 27.4203 61.276 27.4203C61.151 27.4203 61.0885 27.4961 60.9635 27.5718C60.901 27.6476 60.8385 27.6476 60.7135 27.6476C60.651 27.6476 60.5884 27.6476 60.5259 27.5718C60.5259 27.4961 60.5259 27.4203 60.4634 27.2687Z" fill="#E3DDD1"/>
<path d="M55.7758 32.4215C55.8383 32.3457 55.9633 32.2699 56.0258 32.1942C56.0883 32.1184 56.0883 32.1184 56.0883 32.1184C56.0883 32.1184 56.0258 32.1184 56.0258 32.1942C55.9633 32.1942 55.9008 32.2699 55.7758 32.4215C55.6508 32.4973 55.5258 32.573 55.4008 32.8004C55.3383 32.8761 55.3383 33.0277 55.3383 33.1793C55.3383 33.3308 55.3383 33.4066 55.4008 33.5581C55.4008 33.7097 55.4633 33.8612 55.5258 33.937C55.5258 34.0128 55.5883 34.0886 55.5883 34.1644C55.5883 34.2401 55.6508 34.3159 55.6508 34.3917C55.7133 34.5432 55.7758 34.6948 55.9008 34.8463H55.9633C56.0258 34.8463 56.0258 34.8463 56.0258 34.8463C56.0883 34.8463 56.0883 34.8463 56.1508 34.8463C56.2133 34.8463 56.3384 34.7706 56.4009 34.7706C56.5259 34.6948 56.6509 34.5432 56.7134 34.3917C56.7759 34.2401 56.8384 34.0886 56.9009 33.937C56.9634 33.8612 56.9634 33.7855 57.0259 33.7097L57.0884 33.6339L57.1509 33.5581C57.2759 33.4824 57.4009 33.4066 57.5259 33.4066C57.776 33.3308 58.0885 33.4066 58.401 33.3308C58.7135 33.255 58.9636 33.1035 59.2136 32.9519C59.4636 32.7246 59.6511 32.4973 59.7136 32.1942C59.8386 31.8911 59.8386 31.588 59.7761 31.2848C59.7136 31.1333 59.6511 31.0575 59.5886 30.9817C59.5261 30.906 59.4011 30.8302 59.3386 30.8302C59.1511 30.7544 58.9636 30.8302 58.8385 30.8302C58.7135 30.906 58.651 30.906 58.526 30.9817C58.4635 30.9817 58.401 31.0575 58.401 31.0575C58.401 31.0575 58.4635 31.0575 58.526 31.0575C58.5885 31.0575 58.7135 30.9817 58.8385 30.9817C58.9636 30.9817 59.0886 30.906 59.2761 30.9817C59.4636 31.0575 59.5886 31.2091 59.6511 31.4364C59.7136 31.6637 59.6511 31.9668 59.5261 32.1942C59.4011 32.4215 59.2761 32.6488 59.0261 32.8761C58.8385 33.0277 58.5885 33.1793 58.276 33.255C58.026 33.3308 57.7135 33.255 57.4009 33.3308C57.2759 33.3308 57.0884 33.4066 56.9634 33.4824C56.9009 33.4824 56.9009 33.5581 56.8384 33.5581L56.7759 33.6339L56.7134 33.7097C56.6509 33.7855 56.5884 33.8612 56.5884 33.937C56.5259 34.0886 56.4634 34.2401 56.4009 34.3917C56.3384 34.5432 56.2759 34.619 56.1508 34.6948C56.0883 34.6948 56.0258 34.7706 56.0258 34.7706H55.9633H55.9008C55.9008 34.7706 55.9008 34.7706 55.8383 34.7706C55.7758 34.6948 55.6508 34.619 55.6508 34.4675C55.6508 34.3917 55.5883 34.3159 55.5883 34.2401C55.5883 34.1643 55.5258 34.0886 55.5258 34.0128C55.4633 33.8612 55.4633 33.7855 55.4008 33.6339C55.3383 33.4066 55.2758 33.1793 55.4008 32.9519C55.5883 32.6488 55.7133 32.4973 55.7758 32.4215Z" fill="#E3DDD1"/>
<path d="M50.8379 38.4078C50.9629 38.4836 51.1505 38.6351 51.338 38.7867C51.5255 38.9382 51.713 39.0898 51.9005 39.1656C52.0255 39.2413 52.1505 39.2413 52.2755 39.2413C52.4006 39.2413 52.5256 39.2413 52.6506 39.1656C52.7756 39.0898 52.9006 39.014 52.9631 38.8625L53.0256 38.7867V38.7109V38.6351C53.0256 38.5594 53.0256 38.4836 53.0881 38.4078C53.0881 38.1047 53.0256 37.8774 52.9631 37.65C52.8381 37.1954 52.7131 36.7407 52.5881 36.3618C52.4631 35.983 52.4006 35.6799 52.2755 35.4525C52.3381 35.6799 52.4006 35.983 52.5256 36.3618C52.5881 36.7407 52.7131 37.1954 52.8381 37.65C52.9006 37.8774 52.9631 38.1047 52.9631 38.332C52.9631 38.5594 52.8381 38.7109 52.6506 38.7867C52.5881 38.8625 52.4631 38.8625 52.4006 38.8625C52.2755 38.8625 52.213 38.8625 52.088 38.7867C51.9005 38.7109 51.713 38.6351 51.5255 38.4836C51.338 38.332 51.213 38.2562 51.0255 38.1047C50.9629 38.0289 50.8379 38.0289 50.7754 37.9531C50.7129 37.8774 50.6504 37.8774 50.5879 37.8016C50.3379 37.5743 50.2754 37.2712 50.2129 37.0438C50.2129 36.968 50.2129 36.8165 50.2129 36.8165C50.2129 36.8923 50.2129 36.9681 50.2129 37.1196C50.2129 37.3469 50.2754 37.7258 50.5254 38.0289C50.5879 38.1047 50.6504 38.1805 50.7129 38.2563C50.6504 38.332 50.7754 38.332 50.8379 38.4078Z" fill="#E3DDD1"/>
<path d="M47.4626 45.6065C47.4626 45.6823 47.5251 45.7581 47.5251 45.8339C47.5876 45.9097 47.5876 45.9854 47.5251 46.0612C47.5251 46.137 47.4001 46.2128 47.3376 46.2128C47.2126 46.2885 47.1501 46.2885 47.0251 46.2885C46.775 46.2885 46.5875 46.2885 46.3375 46.2885C46.2125 46.2885 46.0875 46.2128 45.9625 46.2128C45.8375 46.137 45.7125 46.137 45.65 46.0612C45.4624 45.9097 45.2749 45.7581 45.2124 45.6065C45.0874 45.455 45.0249 45.2277 45.0249 45.1519C45.0249 45.0003 45.0249 44.9246 45.0249 44.9246C45.0249 44.9246 45.0249 44.9246 45.0249 45.0003C45.0249 45.0003 45.0249 45.0761 44.9624 45.1519C44.9624 45.3034 44.9624 45.455 45.0874 45.6823C45.2124 45.9097 45.3374 46.0612 45.5249 46.2128C45.65 46.2885 45.775 46.3643 45.8375 46.3643C45.9625 46.4401 46.0875 46.4401 46.2125 46.4401C46.4625 46.5159 46.7125 46.5159 46.9626 46.4401C47.0876 46.4401 47.2126 46.3643 47.2751 46.2885C47.3376 46.2885 47.4001 46.2128 47.4001 46.2128C47.4626 46.137 47.4626 46.137 47.5251 46.0612C47.5876 45.9097 47.5251 45.8339 47.4626 45.7581C47.5876 45.6823 47.5251 45.6823 47.4626 45.6065Z" fill="#E3DDD1"/>
<path d="M49.5881 30.7544C49.5256 30.7544 49.4631 30.6786 49.4631 30.6786H49.4006C49.4006 30.6786 49.4631 30.7544 49.5881 30.7544C49.5881 30.8301 49.6506 30.9059 49.6506 30.9817C49.6506 31.0575 49.6506 31.1332 49.5881 31.209C49.5881 31.209 49.5256 31.2848 49.4631 31.2848C49.4006 31.2848 49.4006 31.3606 49.3381 31.3606C49.2756 31.4363 49.1506 31.5121 49.0256 31.5121C48.838 31.5879 48.588 31.7395 48.338 31.7395C48.213 31.7395 48.088 31.8152 47.963 31.8152C47.838 31.8152 47.713 31.8152 47.5879 31.8152C47.4629 31.8152 47.4004 31.7395 47.2754 31.6637C47.2129 31.5879 47.0879 31.5121 47.0254 31.4364C46.9004 31.2848 46.9004 31.0575 46.9004 30.9817C46.9004 30.9059 46.9004 30.8301 46.9004 30.8301V30.7544C46.9004 30.7544 46.9004 30.7544 46.9004 30.8301C46.9004 30.8301 46.8379 30.9059 46.8379 30.9817C46.8379 31.0575 46.8379 31.1332 46.8379 31.209C46.8379 31.2848 46.9004 31.4364 46.9629 31.5121C47.0879 31.7395 47.2754 31.891 47.5879 31.9668C47.713 31.9668 47.838 32.0426 47.963 31.9668C48.088 31.9668 48.213 31.9668 48.338 31.891C48.463 31.891 48.588 31.8152 48.713 31.7395C48.838 31.6637 48.9631 31.5879 49.0881 31.5879C49.2131 31.5121 49.2756 31.4363 49.4006 31.3606C49.4631 31.2848 49.4631 31.2848 49.5256 31.209C49.5881 31.1332 49.5881 31.1332 49.6506 31.0575C49.7131 30.9059 49.7131 30.7544 49.6506 30.6786C49.7131 30.8301 49.6506 30.8301 49.5881 30.7544Z" fill="#E3DDD1"/>
<path d="M65.0264 33.3307C65.0264 33.4065 64.9639 33.4823 64.9639 33.5581C64.9639 33.6338 64.9014 33.7096 64.9014 33.7854C64.8389 33.9369 64.7764 34.0885 64.7139 34.1643C64.7139 34.2401 64.6514 34.2401 64.6514 34.3158C64.6514 34.3158 64.6514 34.3158 64.5889 34.3158C64.5889 34.3158 64.5889 34.3916 64.6514 34.3916C64.7139 34.3916 64.7139 34.3916 64.7139 34.3916C64.7764 34.3916 64.7764 34.3158 64.8389 34.2401C64.9014 34.1643 64.9639 34.0127 65.0264 33.8612C65.0264 33.7854 65.0889 33.7096 65.0889 33.6338C65.0889 33.5581 65.1514 33.4823 65.1514 33.4065C65.2139 33.255 65.2139 33.0276 65.2139 32.8761C65.2139 32.7245 65.2139 32.573 65.1514 32.4214C65.1514 32.3456 65.0889 32.2699 65.0889 32.2699L65.0264 32.1941H64.9639L64.9014 32.2699C64.9014 32.2699 64.9014 32.2699 64.9639 32.1941H65.0264C65.0264 32.2699 65.0264 32.2699 65.0264 32.3456C65.0264 32.4972 65.0264 32.6487 65.0264 32.8003C65.0889 33.0276 65.0889 33.1792 65.0264 33.3307Z" fill="#E3DDD1"/>
<path d="M42.5874 34.0128C42.5249 34.0886 42.5249 34.0128 42.5874 34.0128C42.5249 34.1643 42.5249 34.2401 42.5874 34.3917C42.6499 34.5432 42.7124 34.619 42.8374 34.6948C42.9624 34.7706 43.0874 34.8463 43.2125 34.8463C43.3375 34.8463 43.4625 34.9221 43.5875 34.8463C43.65 34.8463 43.7125 34.8463 43.775 34.7706C43.8375 34.7706 43.9 34.6948 43.9 34.619C43.9625 34.5432 43.9 34.4674 43.9 34.3917C43.9 34.3159 43.8375 34.3159 43.8375 34.3159C43.8375 34.3159 43.8375 34.3917 43.9 34.3917C43.9 34.4674 43.9 34.4675 43.9 34.4675C43.9 34.4675 43.8375 34.5432 43.775 34.5432C43.7125 34.5432 43.65 34.5432 43.5875 34.5432C43.4625 34.5432 43.3375 34.5432 43.2125 34.5432C43.0874 34.5432 42.9624 34.4674 42.8999 34.3917C42.8374 34.3159 42.7124 34.2401 42.7124 34.1643C42.6499 34.0886 42.6499 34.0128 42.6499 33.937C42.5874 34.0128 42.5874 34.0128 42.5874 34.0128Z" fill="#E3DDD1"/>
<path d="M50.7124 44.5456C50.7124 44.6214 50.6499 44.6214 50.6499 44.6972C50.6499 44.773 50.6499 44.773 50.6499 44.8487C50.7124 45.0761 50.7749 45.2276 50.9624 45.3034C51.0875 45.3792 51.275 45.455 51.4625 45.455C51.65 45.455 51.775 45.3792 51.9625 45.3034C52.025 45.2276 52.0875 45.1519 52.15 45.1519C52.2125 45.0761 52.275 45.0003 52.3375 45.0003C52.4626 44.9245 52.5876 44.773 52.7126 44.6214C52.8376 44.4699 52.9001 44.3183 52.9626 44.1668C53.0251 44.0152 53.0251 43.7879 53.0251 43.6363C52.9626 43.4848 52.9001 43.3332 52.8376 43.3332C52.7751 43.2574 52.6501 43.2574 52.5876 43.2574C52.5251 43.2574 52.4626 43.2574 52.4 43.2574C52.3375 43.2574 52.3375 43.2574 52.3375 43.2574C52.3375 43.2574 52.4001 43.2574 52.5251 43.3332C52.5876 43.3332 52.6501 43.409 52.7751 43.409C52.8376 43.4848 52.9001 43.5606 52.9626 43.7121C52.9626 43.8637 52.9626 44.0152 52.9001 44.091C52.8376 44.2425 52.7751 44.3183 52.6501 44.4699C52.5251 44.6214 52.4 44.6972 52.275 44.773C52.2125 44.8488 52.15 44.9245 52.0875 44.9245C52.025 45.0003 51.9625 45.0761 51.9 45.0761C51.775 45.1519 51.65 45.2276 51.4625 45.2276C51.3375 45.2276 51.15 45.2276 51.0249 45.1519C50.8999 45.0761 50.8374 44.9245 50.7749 44.8487V44.773C50.7749 44.773 50.7749 44.773 50.7749 44.6972C50.7749 44.6972 50.7749 44.6972 50.7749 44.6214C50.7749 44.5456 50.8374 44.4699 50.8374 44.4699C50.8999 44.3941 50.8999 44.3183 50.8999 44.2425C50.8999 44.1668 50.8374 44.091 50.8374 44.091C50.7749 44.0152 50.6499 43.9394 50.6499 43.9394C50.5874 43.8637 50.5249 43.8637 50.5249 43.7879L50.4624 43.7121C50.4624 43.7121 50.4624 43.7121 50.4624 43.7879C50.4624 43.8637 50.5249 43.8637 50.5874 43.9394C50.6499 44.0152 50.7124 44.0152 50.7749 44.091C50.8374 44.1668 50.8374 44.3183 50.7749 44.3941C50.7749 44.3941 50.7749 44.4699 50.7124 44.5456Z" fill="#E3DDD1"/>
<path d="M41.962 33.6339C41.8995 33.6339 41.837 33.7096 41.7745 33.7096C41.6495 33.7096 41.5245 33.7096 41.3995 33.6339C41.337 33.6339 41.2745 33.5581 41.212 33.4823C41.1495 33.4065 41.087 33.4065 41.0244 33.3308C40.8994 33.255 40.8369 33.1034 40.7744 33.0277C40.7119 32.9519 40.6494 32.8003 40.6494 32.7245C40.5869 32.6488 40.5869 32.573 40.5869 32.573C40.5869 32.573 40.5869 32.6488 40.5869 32.7245C40.5869 32.8003 40.6494 32.9519 40.7119 33.0277C40.7744 33.1792 40.8369 33.255 40.9619 33.4065C41.087 33.5581 41.212 33.6339 41.337 33.7096C41.462 33.7854 41.6495 33.8612 41.837 33.7854C41.8995 33.7854 41.962 33.7096 42.0245 33.7096C42.087 33.6339 42.1495 33.6339 42.1495 33.5581C42.212 33.4823 42.212 33.4065 42.1495 33.3308C42.1495 33.255 42.1495 33.255 42.087 33.1792C42.0245 33.1034 42.0245 33.1034 42.0245 33.1034C42.0245 33.1034 42.0245 33.1792 42.087 33.255C42.087 33.3308 42.1495 33.4823 42.087 33.5581C42.0245 33.6339 41.962 33.6339 41.962 33.6339Z" fill="#E3DDD1"/>
<path d="M65.5265 28.9357C65.464 28.9357 65.4015 28.9357 65.4015 28.9357C65.339 28.9357 65.339 28.86 65.339 28.86C65.2765 28.7842 65.2765 28.7842 65.2765 28.7842C65.2765 28.7842 65.2765 28.86 65.339 28.9357C65.339 28.9357 65.4015 29.0115 65.4015 29.0873C65.4015 28.9357 65.464 29.0115 65.5265 28.9357C65.589 28.9357 65.6515 28.86 65.714 28.7842C65.714 28.7084 65.7765 28.7084 65.7765 28.6326C65.7765 28.5569 65.839 28.5569 65.839 28.4811C65.9015 28.2538 65.964 28.0264 65.964 27.7991C65.964 27.496 65.964 27.2687 65.964 26.9656C65.964 26.6625 65.9015 26.3593 65.9015 26.0562C65.839 25.3743 65.7765 24.6923 65.714 24.0103C65.6515 23.3283 65.5265 22.6463 65.339 21.9643C65.2765 21.6612 65.1515 21.3581 64.9639 21.1308C64.9014 21.055 64.9014 20.9792 64.8389 20.9792C64.7764 20.9034 64.7764 20.8277 64.7139 20.8277C64.6514 20.7519 64.5264 20.6003 64.4014 20.6003C64.3389 20.6003 64.2764 20.6003 64.2139 20.6761C64.1514 20.7519 64.0889 20.7519 64.0889 20.8277C64.0264 20.9792 64.0264 21.055 64.0264 21.2066C64.0264 21.4339 64.0889 21.5854 64.1514 21.737C64.2139 21.8885 64.2764 21.9643 64.2764 22.0401C64.2764 22.1159 64.3389 22.1159 64.3389 22.1159C64.3389 22.1159 64.2764 21.9643 64.2139 21.6612C64.1514 21.5097 64.1514 21.3581 64.1514 21.1308C64.1514 21.055 64.1514 20.9034 64.2139 20.8277C64.2764 20.7519 64.3389 20.6761 64.4014 20.6761C64.4639 20.6761 64.5889 20.7519 64.6514 20.8277C64.7139 20.9034 64.7764 21.055 64.8389 21.2066C64.9639 21.4339 65.0889 21.737 65.1514 22.0401C65.214 22.3432 65.2765 22.6463 65.339 23.0252C65.4015 23.3283 65.4015 23.7072 65.464 24.0103C65.5265 24.6923 65.589 25.3743 65.6515 26.0562C65.714 26.3593 65.714 26.6625 65.7765 26.9656C65.839 27.2687 65.839 27.5718 65.839 27.7991C65.839 28.0264 65.839 28.2538 65.7765 28.4811C65.6515 28.6326 65.589 28.86 65.5265 28.9357Z" fill="#E3DDD1"/>
<path d="M59.9009 40.4537C59.9009 40.4537 59.9009 40.5295 59.9009 40.6053C59.9009 40.6811 59.9634 40.6811 59.9634 40.6811C60.0259 40.6811 60.0884 40.6811 60.1509 40.6811C60.4009 40.6053 60.5884 40.4537 60.7759 40.3022C60.9635 40.1506 61.151 39.9233 61.276 39.696C61.3385 39.5444 61.401 39.4686 61.4635 39.3171C61.4635 39.2413 61.526 39.1655 61.526 39.0897C61.526 39.014 61.526 38.9382 61.526 38.9382C61.5885 38.8624 61.5885 38.8624 61.651 38.7866L61.7135 38.7109L61.776 38.6351L61.901 38.4835L61.9635 38.4078L62.026 38.332C62.0885 38.1804 62.1511 38.0289 62.1511 37.8773C62.1511 37.8015 62.1511 37.7258 62.1511 37.65V37.5742H62.0885C62.026 37.5742 62.026 37.5742 62.026 37.65C62.026 37.65 62.0885 37.65 62.0885 37.5742C62.0885 37.5742 62.1511 37.5742 62.1511 37.65C62.1511 37.7258 62.151 37.8015 62.0885 37.8773C62.026 38.0289 61.9635 38.1047 61.901 38.2562L61.8385 38.332L61.776 38.4078L61.651 38.5593L61.5885 38.6351L61.526 38.7109C61.4635 38.7866 61.4635 38.7866 61.401 38.8624C61.401 38.9382 61.401 39.014 61.3385 39.0897C61.3385 39.1655 61.276 39.2413 61.276 39.2413C61.2135 39.3929 61.151 39.4686 61.0885 39.5444C61.026 39.6202 60.9635 39.7717 60.901 39.8475C60.8385 39.9233 60.7134 40.0748 60.6509 40.1506C60.4634 40.3022 60.2759 40.4537 60.0884 40.5295C60.0259 40.5295 59.9634 40.6053 59.9634 40.5295H59.9009C59.9634 40.4537 59.9634 40.4537 59.9009 40.4537C59.9634 40.3022 59.9634 40.1506 60.0259 40.0748C59.9634 40.1506 59.9009 40.3022 59.9009 40.4537Z" fill="#E3DDD1"/>
<path d="M61.2759 33.9371C61.2134 34.0128 61.1509 34.0886 61.0259 34.1644C60.9634 34.2402 60.9009 34.2402 60.8384 34.2402C60.7759 34.2402 60.7759 34.1644 60.7759 34.1644C60.7759 34.1644 60.7759 34.1644 60.8384 34.2402C60.9009 34.2402 60.9634 34.316 61.0884 34.2402C61.2134 34.2402 61.2759 34.1644 61.4009 34.0128C61.4634 33.8613 61.5259 33.7097 61.5884 33.5582C61.6509 33.4066 61.6509 33.2551 61.6509 33.1035C61.6509 33.0278 61.6509 32.952 61.6509 32.8762C61.6509 32.8004 61.6509 32.7246 61.5884 32.6489C61.5259 32.5731 61.4634 32.5731 61.4009 32.6489C61.3384 32.6489 61.3384 32.7246 61.3384 32.7246H61.4009C61.4634 32.7246 61.4634 32.7246 61.4634 32.7246C61.4634 32.7246 61.4634 32.8004 61.4634 32.8762C61.4634 32.952 61.4634 33.0278 61.4634 33.1035C61.4634 33.2551 61.4634 33.4066 61.4009 33.4824C61.3384 33.7097 61.3384 33.7855 61.2759 33.9371Z" fill="#E3DDD1"/>
<path d="M58.276 43.0301C58.2135 43.1059 58.151 43.1817 58.0885 43.2574C57.9635 43.409 57.776 43.5605 57.5885 43.6363C57.276 43.8636 56.9009 44.091 56.5884 44.091C56.4634 44.091 56.3384 44.091 56.2759 44.091C56.2134 44.091 56.1509 44.0152 56.1509 44.0152C56.1509 44.0152 56.1509 44.091 56.2759 44.1667C56.3384 44.2425 56.4634 44.2425 56.6509 44.2425C56.7134 44.2425 56.8384 44.2425 56.9009 44.2425C56.9634 44.2425 57.0885 44.1667 57.151 44.1667C57.3385 44.091 57.526 44.0152 57.7135 43.8636C57.901 43.7121 58.026 43.5605 58.2135 43.4848C58.276 43.409 58.3385 43.3332 58.4011 43.2574C58.4636 43.1817 58.5261 43.1059 58.5261 43.0301C58.5886 42.9543 58.5886 42.8785 58.5886 42.8028C58.5886 42.727 58.5261 42.6512 58.5261 42.6512C58.4636 42.6512 58.4636 42.5754 58.4636 42.5754H58.4011C58.4011 42.5754 58.4011 42.5754 58.4636 42.5754C58.4636 42.5754 58.5261 42.5754 58.5261 42.6512C58.5261 42.6512 58.5886 42.727 58.5886 42.8028C58.5886 42.8785 58.5261 42.9543 58.5261 43.0301C58.3385 42.8785 58.276 42.9543 58.276 43.0301Z" fill="#E3DDD1"/>
<path d="M50.4627 6.20288C45.8374 6.20288 41.4621 8.40039 38.1493 12.4165C34.8366 16.4327 33.0239 21.6613 33.0239 27.3445C33.0239 32.952 34.8366 38.2563 38.1493 42.2725C41.4621 46.2886 45.7749 48.4861 50.4627 48.4861C55.0881 48.4861 59.4634 46.2886 62.7762 42.2725C66.0889 38.2563 67.9016 33.0277 67.9016 27.3445C67.9016 21.737 66.0889 16.4327 62.7762 12.4165C59.4634 8.40039 55.0881 6.20288 50.4627 6.20288ZM47.65 46.1371C47.65 46.2128 47.5875 46.2886 47.525 46.2886C47.4625 46.2886 47.4 46.3644 47.4 46.3644C47.275 46.4402 47.2125 46.4402 47.0875 46.5159C46.8375 46.5917 46.5875 46.5917 46.3374 46.5159C46.2124 46.5159 46.0874 46.4402 45.9624 46.4402C45.8374 46.3644 45.7124 46.3644 45.6499 46.2886C45.4624 46.1371 45.2749 45.9097 45.2123 45.7582C45.0873 45.5308 45.0873 45.3793 45.0873 45.2277C45.0873 45.152 45.0873 45.0762 45.1498 45.0762V45.0004C45.1498 45.0004 45.0873 45.0762 45.1498 45.2277C45.1498 45.3793 45.2123 45.5308 45.3374 45.6824C45.4624 45.8339 45.5874 46.0613 45.7749 46.1371C45.8999 46.2128 45.9624 46.2128 46.0874 46.2886C46.2124 46.3644 46.3374 46.3644 46.4624 46.3644C46.7125 46.4402 46.9625 46.4402 47.15 46.3644C47.275 46.3644 47.3375 46.2886 47.4625 46.2886C47.5875 46.2128 47.65 46.2128 47.65 46.1371C47.7125 46.0613 47.65 45.9855 47.65 45.9097C47.5875 45.8339 47.5875 45.7582 47.525 45.7582C47.4625 45.6824 47.4 45.6066 47.4 45.6066C47.4 45.6066 47.4625 45.6066 47.525 45.7582C47.5875 45.8339 47.5875 45.8339 47.65 45.9097C47.65 45.8339 47.7125 45.9855 47.65 46.1371ZM49.7127 31.2849C49.7127 31.3606 49.6502 31.3607 49.5877 31.4364C49.5252 31.5122 49.5252 31.5122 49.4627 31.588C49.4002 31.6638 49.2752 31.7395 49.1501 31.8153C49.0251 31.8911 48.9001 31.9669 48.7751 31.9669C48.6501 32.0426 48.5251 32.0426 48.4001 32.1184C48.2751 32.1184 48.1501 32.1942 48.0251 32.1942C47.9001 32.1942 47.775 32.1942 47.65 32.1942C47.4 32.1184 47.15 31.9669 47.025 31.7395C46.9625 31.6638 46.9625 31.5122 46.9 31.4364C46.9 31.3607 46.9 31.2091 46.9 31.2091C46.9 31.1333 46.9625 31.0575 46.9625 31.0575V30.9818C46.9625 30.9818 46.9625 30.9818 46.9625 31.0575C46.9625 31.0575 46.9625 31.1333 46.9625 31.2091C46.9625 31.3607 46.9625 31.5122 47.0875 31.6638C47.15 31.7395 47.2125 31.8153 47.3375 31.8911C47.4 31.9669 47.525 31.9669 47.65 32.0426C47.775 32.0426 47.9001 32.0426 48.0251 32.0426C48.1501 32.0426 48.2751 32.0426 48.4001 31.9669C48.6501 31.8911 48.9001 31.8153 49.0876 31.7395C49.2127 31.6638 49.2752 31.588 49.4002 31.588C49.4627 31.588 49.4627 31.5122 49.5252 31.5122C49.5877 31.5122 49.5877 31.4364 49.6502 31.4364C49.7127 31.3607 49.7127 31.2849 49.7127 31.2091C49.7127 31.1333 49.6502 31.0575 49.5877 31.0575C49.5252 30.9818 49.4627 30.906 49.4627 30.906C49.4627 30.906 49.4627 30.906 49.5252 30.906C49.5252 30.906 49.5877 30.906 49.6502 30.9818C49.7127 30.9818 49.7752 31.0575 49.7752 31.1333C49.7752 31.0575 49.7752 31.2091 49.7127 31.2849ZM50.4002 38.029C50.1502 37.7259 50.0877 37.347 50.0877 37.1197C50.0877 36.9681 50.0877 36.8923 50.0877 36.8166C50.0877 36.8923 50.0877 36.9681 50.0877 37.0439C50.1502 37.2712 50.2127 37.5743 50.4627 37.8016C50.5252 37.8774 50.5878 37.9532 50.6503 37.9532C50.7128 38.029 50.7753 38.029 50.9003 38.1048C51.0878 38.1805 51.2128 38.3321 51.4003 38.4836C51.5878 38.6352 51.7753 38.711 51.9629 38.7867C52.0879 38.7867 52.1504 38.8625 52.2754 38.8625C52.3379 38.8625 52.4629 38.8625 52.5254 38.7867C52.7129 38.711 52.8379 38.4836 52.8379 38.3321C52.8379 38.1048 52.7754 37.8774 52.7129 37.6501C52.5879 37.1954 52.4629 36.7408 52.4004 36.3619C52.2754 35.983 52.2754 35.6799 52.1504 35.4526C52.0879 35.3768 52.0879 35.301 52.0254 35.2253C52.0254 35.1495 51.9629 35.1495 51.9629 35.1495C51.9629 35.1495 51.9629 35.1495 52.0254 35.2253C52.0879 35.301 52.0879 35.301 52.1504 35.4526C52.2754 35.6799 52.3379 35.983 52.4629 36.3619C52.5879 36.7408 52.7129 37.1954 52.8379 37.6501C52.9004 37.8774 52.9629 38.1048 52.9629 38.4079C52.9629 38.4836 52.9629 38.5594 52.9004 38.6352V38.711V38.7867C52.9004 38.8625 52.9004 38.8625 52.8379 38.8625C52.7754 39.0141 52.6504 39.0898 52.5254 39.1656C52.4004 39.2414 52.2754 39.2414 52.1504 39.2414C52.0254 39.2414 51.9004 39.2414 51.7753 39.1656C51.5253 39.0898 51.3378 38.9383 51.2128 38.7867C51.0253 38.6352 50.9003 38.4836 50.7128 38.4079C50.6503 38.3321 50.5252 38.3321 50.4627 38.2563C50.5252 38.1805 50.4627 38.1048 50.4002 38.029ZM50.7753 44.0153C50.7128 43.9395 50.6503 43.8638 50.5878 43.8638C50.5253 43.788 50.4627 43.788 50.4627 43.7122C50.4627 43.6364 50.4627 43.6364 50.4627 43.6364C50.4627 43.6364 50.4627 43.6364 50.5252 43.7122C50.5252 43.7122 50.5878 43.788 50.6503 43.8638C50.7128 43.8638 50.7753 43.8638 50.7753 44.0153C50.8378 44.0153 50.9003 44.0911 50.9003 44.1669C50.9003 44.2426 50.9003 44.3184 50.8378 44.3942C50.7753 44.47 50.7753 44.5457 50.7753 44.5457C50.7753 44.5457 50.7753 44.5457 50.7753 44.6215V44.6973V44.7731C50.7753 44.9246 50.9003 45.0004 51.0253 45.0762C51.1503 45.152 51.2753 45.152 51.4628 45.152C51.5878 45.152 51.7753 45.0762 51.9004 45.0004C51.9629 44.9246 52.0254 44.9246 52.0879 44.8489C52.1504 44.7731 52.2129 44.6973 52.2754 44.6973C52.4004 44.5457 52.5254 44.47 52.6504 44.3942C52.7754 44.2426 52.8379 44.1669 52.9004 44.0153C52.9629 43.8638 52.9629 43.7122 52.9629 43.6364C52.9629 43.4849 52.9004 43.4091 52.7754 43.3333C52.7129 43.2575 52.5879 43.2575 52.5254 43.2575C52.4004 43.2575 52.3379 43.1818 52.3379 43.1818C52.3379 43.1818 52.3379 43.1818 52.4004 43.1818C52.4629 43.1818 52.4629 43.1818 52.5879 43.1818C52.6504 43.1818 52.7129 43.1818 52.8379 43.2575C52.9004 43.3333 53.0254 43.4091 53.0254 43.5607C53.0879 43.7122 53.0254 43.8638 52.9629 44.0911C52.9004 44.2426 52.7754 44.3942 52.7129 44.5457C52.5879 44.6973 52.4629 44.7731 52.3379 44.9246C52.2754 45.0004 52.2129 45.0762 52.1504 45.0762C52.0879 45.152 52.0254 45.2277 51.9629 45.2277C51.8379 45.3035 51.6503 45.3793 51.4628 45.3793C51.2753 45.3793 51.1503 45.3035 50.9628 45.2277C50.8378 45.152 50.7128 45.0004 50.6503 44.7731C50.6503 44.6973 50.6503 44.6973 50.6503 44.6215V44.5457V44.47C50.7128 44.3942 50.7128 44.3184 50.7753 44.2426C50.9003 44.2426 50.9003 44.0911 50.7753 44.0153ZM66.964 28.9358C66.7765 31.7395 66.0889 34.3159 65.0889 36.5892C64.0888 38.8625 62.8387 40.6811 61.4636 42.1967C60.0885 43.6364 58.6509 44.6973 57.3383 45.4551C55.9632 46.2128 54.7131 46.5917 53.713 46.819C52.6504 47.0464 51.8379 47.1221 51.2753 47.1221C50.7128 47.1221 50.4002 47.1221 50.4002 47.1221C50.4002 47.1221 50.7128 47.1221 51.2753 47.0464C51.8379 46.9706 52.6504 46.8948 53.713 46.5917C54.7131 46.2886 55.9632 45.834 57.2758 45.0762C57.9008 44.6973 58.5884 44.2426 59.2759 43.7122C59.901 43.1818 60.526 42.6513 61.1511 41.9693C61.2761 41.8178 61.4636 41.5905 61.5886 41.4389C66.464 35.5284 67.6515 26.8141 65.1514 19.5395C64.3388 17.342 63.2137 15.296 61.7761 13.5532C61.7136 13.4774 61.7136 13.4774 61.6511 13.4016C61.7136 13.8563 61.7761 15.1445 61.5886 16.7358V16.8116C61.5261 17.0389 61.4011 17.342 61.2136 17.4936C61.026 17.6451 60.7135 17.4178 60.7135 17.1905C60.4635 17.8724 60.2135 18.5544 59.9635 19.1606C59.901 19.3122 59.8385 19.4638 59.7134 19.5395C59.5259 19.6911 59.2759 19.6153 59.2134 19.4638C59.1509 19.3122 59.1509 19.1606 59.2134 19.0091C58.3383 20.3731 58.0883 22.2675 57.4008 23.8588C56.9007 25.0712 56.2132 26.0563 55.3381 26.8141C54.4631 27.2687 53.463 27.6476 52.4629 27.4961C51.5253 27.4203 50.6503 26.8898 49.7127 26.7383C48.6501 26.511 47.5875 26.7383 46.525 26.8898C45.7749 27.0414 45.0248 27.193 44.2123 27.2687C44.0248 27.3445 43.7747 27.3445 43.5872 27.5718C43.3997 27.7992 43.3997 28.178 43.2747 28.4811C43.1497 28.86 42.8372 29.0874 42.5872 29.3147C42.5246 29.3905 42.4621 29.4662 42.3996 29.542C41.2745 29.4662 40.1495 29.6178 39.0869 29.9967C38.8994 30.0725 38.7119 30.1482 38.4618 30.1482C38.1493 30.0725 37.8993 29.6936 37.5868 29.6178C37.4618 29.6178 37.3368 29.6936 37.3368 29.8451C37.3368 29.9209 37.3993 29.9967 37.4618 29.9967C37.6493 30.1482 37.8993 30.2998 38.1493 30.4513C38.3993 30.6029 38.6494 30.7544 38.8994 30.8302C38.7744 30.8302 38.6494 30.8302 38.5243 30.8302C35.2741 31.0575 37.4618 33.4066 40.837 35.2253C40.837 35.2253 40.837 35.2253 40.837 35.301C40.837 35.4526 40.7745 35.5284 40.712 35.6041C40.6495 35.6799 40.5245 35.6799 40.3995 35.6041C40.337 35.5284 40.2745 35.5284 40.2745 35.4526C40.212 35.3768 40.1495 35.3768 40.087 35.3768C40.0245 35.4526 40.0245 35.6041 40.0245 35.6799C40.1495 35.9072 40.5245 35.9072 40.712 36.0588C40.8995 36.2103 41.0245 36.3619 41.2746 36.3619C41.4621 36.3619 41.6496 36.2861 41.8371 36.2861C42.1496 36.2861 42.3996 36.5134 42.6497 36.7408C43.5247 37.4228 44.6498 37.5743 45.6499 37.2712C47.775 38.4079 49.6502 39.9992 48.6501 41.06C48.3376 41.06 48.0876 41.06 47.775 40.9843C47.4 40.9085 47.0875 40.6812 46.7125 40.6054C46.3374 40.5296 45.9624 40.6811 45.7124 40.4538C45.6499 40.378 45.5249 40.3023 45.4624 40.2265C45.3999 40.1507 45.2749 40.0749 45.1498 40.1507C45.0248 40.2265 44.9623 40.378 45.0873 40.4538C45.0873 40.5296 45.1498 40.5296 45.2123 40.5296C45.5249 40.6812 45.8374 40.7569 46.1499 40.9085C46.7125 41.1358 47.275 41.3631 47.8375 41.5905C47.8375 41.5905 47.8375 41.5905 47.9001 41.5905C45.6499 42.9544 43.0247 42.8029 41.087 42.3482C40.8995 42.0451 40.6495 41.6662 40.462 41.3631C40.2745 41.06 40.0245 40.7569 39.7744 40.4538C39.5869 40.3023 39.3994 40.1507 39.3369 39.9992C39.2119 39.8476 39.2119 39.6203 39.1494 39.393C39.0869 39.1656 39.0244 38.9383 38.8994 38.7867C38.8369 38.711 38.7744 38.711 38.7119 38.6352C38.5243 38.4836 38.3368 38.3321 38.2743 38.1048C38.2118 37.9532 38.2118 37.8774 38.1493 37.7259C38.0868 37.6501 38.0243 37.4985 37.8993 37.4985C37.7743 37.4985 37.6493 37.6501 37.5868 37.8016C37.5868 37.9532 37.6493 38.1805 37.7118 38.2563C37.7743 38.4079 37.8993 38.4836 38.0243 38.6352C38.3368 39.0898 38.3368 39.7718 38.4618 40.378C38.4618 40.4538 38.4618 40.5296 38.5243 40.6054C35.7741 37.0439 34.149 32.3457 34.149 27.1172C34.149 27.1172 34.149 26.7383 34.149 26.0563C34.2115 25.3743 34.2115 24.3892 34.399 23.101C34.5865 21.8128 34.9616 20.2973 35.5241 18.706C36.1492 17.0389 37.0242 15.2961 38.2118 13.7047C39.3994 12.0377 40.962 10.5221 42.8372 9.30971C44.7123 8.09729 46.8375 7.26375 49.1501 7.03642C51.4628 6.80909 53.838 7.1122 56.0882 8.09729C58.3383 9.08238 60.4635 10.6737 62.2136 12.7954C63.9638 14.9172 65.2764 17.4936 66.0889 20.2215C66.9015 23.2526 67.1515 26.1321 66.964 28.9358ZM55.5256 33.4824C55.5881 33.6339 55.5881 33.7097 55.6506 33.8613C55.6506 33.937 55.7131 34.0128 55.7131 34.0886C55.7131 34.1644 55.7756 34.2402 55.7756 34.3159C55.8382 34.4675 55.9007 34.5433 55.9632 34.619C55.9632 34.619 55.9632 34.619 56.0257 34.619C56.0257 34.619 56.0257 34.619 56.0882 34.619H56.1507C56.2132 34.619 56.2757 34.619 56.2757 34.5433C56.4007 34.4675 56.4632 34.3159 56.5257 34.2402C56.5882 34.0886 56.6507 33.937 56.7132 33.7855C56.7757 33.7097 56.7757 33.6339 56.8382 33.5582C56.8382 33.5582 56.8382 33.5582 56.9007 33.4824L56.9632 33.4066C56.9632 33.4066 57.0257 33.3308 57.0882 33.3308C57.2133 33.2551 57.4008 33.1793 57.5258 33.1793C57.8383 33.1035 58.1508 33.1793 58.4008 33.1035C58.6509 33.0277 58.9009 32.952 59.1509 32.7246C59.3384 32.5731 59.5259 32.27 59.6509 32.0426C59.776 31.8153 59.776 31.5122 59.776 31.2849C59.7134 31.0575 59.5259 30.906 59.4009 30.8302C59.2134 30.7544 59.0884 30.7544 58.9634 30.8302C58.8384 30.8302 58.7134 30.906 58.6509 30.906C58.5884 30.906 58.5259 30.906 58.5259 30.906C58.5259 30.906 58.5884 30.906 58.6509 30.8302C58.7134 30.8302 58.8384 30.7544 58.9634 30.6787C59.0884 30.6029 59.2759 30.6029 59.4634 30.6787C59.5259 30.6787 59.6509 30.7544 59.7134 30.8302C59.776 30.906 59.901 31.0575 59.901 31.1333C59.9635 31.4364 59.9635 31.7395 59.8385 32.0426C59.7134 32.3457 59.5259 32.5731 59.3384 32.8004C59.0884 33.0277 58.8384 33.1793 58.5259 33.1793C58.2133 33.2551 57.9008 33.1793 57.6508 33.2551C57.5258 33.2551 57.4008 33.3308 57.2758 33.4066C57.2758 33.4066 57.2133 33.4066 57.2133 33.4824L57.1508 33.5582C57.0882 33.6339 57.0882 33.7097 57.0257 33.7855C56.9632 33.937 56.9007 34.0886 56.8382 34.2402C56.7757 34.3917 56.6507 34.5433 56.5257 34.619C56.4632 34.6948 56.4007 34.6948 56.2757 34.6948C56.2132 34.6948 56.2132 34.6948 56.1507 34.6948C56.1507 34.6948 56.1507 34.6948 56.0882 34.6948H56.0257C55.9007 34.619 55.7756 34.3917 55.7756 34.2402C55.7756 34.1644 55.7131 34.0886 55.7131 34.0128C55.7131 33.937 55.7131 33.8613 55.6506 33.7855C55.5881 33.6339 55.5881 33.4824 55.5256 33.4066C55.5256 33.2551 55.4631 33.1793 55.4631 33.0277C55.4631 32.8762 55.5256 32.8004 55.5256 32.6489C55.6506 32.4215 55.7131 32.3457 55.8382 32.1942C55.7756 32.27 55.6506 32.4215 55.5881 32.6489C55.4631 33.0277 55.4631 33.2551 55.5256 33.4824ZM58.5884 27.5718C58.5884 27.4961 58.5259 27.4961 58.4634 27.4203C58.4008 27.3445 58.3383 27.3445 58.2758 27.3445C58.1508 27.2687 58.0258 27.2687 57.9008 27.1929C57.7758 27.1929 57.7133 27.1172 57.6508 27.1172C57.5883 27.1172 57.5258 27.1172 57.5258 27.1172C57.5258 27.1172 57.5883 27.1172 57.6508 27.0414C57.7133 27.0414 57.8383 27.0414 57.9008 27.0414C58.0258 27.0414 58.1508 27.0414 58.2758 27.1172C58.3383 27.1172 58.4008 27.1929 58.4634 27.1929C58.5259 27.2687 58.5884 27.2687 58.6509 27.4203C58.6509 27.4961 58.7134 27.5718 58.6509 27.6476C58.6509 27.7234 58.5884 27.7234 58.5259 27.7992C58.4634 27.8749 58.4008 27.8749 58.3383 27.8749C58.2133 27.9507 58.0258 27.9507 57.9633 27.9507C57.8383 27.9507 57.7758 27.8749 57.7133 27.8749C57.6508 27.8749 57.5883 27.7992 57.5883 27.7992C57.5883 27.7992 57.6508 27.7992 57.7133 27.7992C57.7758 27.7992 57.9008 27.7992 57.9633 27.7992C58.0883 27.7992 58.2133 27.7992 58.3383 27.7234C58.4008 27.7234 58.4634 27.6476 58.5259 27.6476C58.5259 27.7234 58.5884 27.6476 58.5884 27.5718C58.5884 27.6476 58.5884 27.6476 58.5884 27.5718ZM60.5885 27.5718C60.651 27.6476 60.7135 27.7234 60.776 27.6476C60.8385 27.6476 60.901 27.5718 61.026 27.5718C61.0886 27.4961 61.2136 27.4203 61.3386 27.4203C61.4011 27.4203 61.4636 27.4203 61.5261 27.4961L61.5886 27.5718L61.6511 27.6476C61.7136 27.7234 61.7136 27.8749 61.7761 27.9507C61.8386 28.0265 61.9011 28.0265 61.9636 28.0265C62.0261 28.0265 62.0886 28.0265 62.2136 27.9507C62.2761 27.8749 62.3386 27.8749 62.4011 27.7992C62.4637 27.7234 62.5262 27.6476 62.5262 27.5718C62.5887 27.4203 62.6512 27.1929 62.6512 26.9656C62.6512 26.8898 62.6512 26.8898 62.6512 26.8141V26.6625C62.6512 26.511 62.5887 26.4352 62.5887 26.2836C62.5887 26.0563 62.5262 25.829 62.4637 25.6016V25.5259C62.5262 25.2228 62.5887 24.9197 62.5887 24.6166C62.5887 24.3134 62.5262 24.0103 62.4011 23.7072C62.3386 23.5557 62.2761 23.4799 62.1511 23.4041C62.0886 23.3283 62.0261 23.3284 61.9636 23.2526C61.9011 23.2526 61.8386 23.1768 61.7761 23.1768C61.5261 23.101 61.2761 23.101 61.026 23.2526C61.2761 23.101 61.5261 23.0252 61.8386 23.0252C61.9011 23.0252 61.9636 23.0252 62.0261 23.101C62.0886 23.101 62.1511 23.1768 62.2136 23.2526C62.3386 23.3284 62.4637 23.4799 62.5262 23.6315C62.7137 23.9346 62.7762 24.2377 62.7762 24.6166C62.7762 24.6923 62.7762 24.7681 62.7762 24.8439C62.7762 24.9197 62.7762 24.9954 62.7762 25.0712C62.7762 25.2228 62.7137 25.3743 62.7137 25.5259C62.7762 25.7532 62.7762 25.9805 62.8387 26.2079C62.8387 26.2836 62.8387 26.4352 62.9012 26.511V26.6625C62.9012 26.7383 62.9012 26.8141 62.9012 26.8141C62.9012 27.0414 62.8387 27.3445 62.7762 27.5718C62.7137 27.6476 62.6512 27.7992 62.5887 27.8749C62.5262 27.9507 62.5262 27.9507 62.4637 28.0265C62.4637 28.0265 62.4637 28.0265 62.4011 28.0265C62.4011 28.0265 62.3386 28.0265 62.3386 28.1023C62.2136 28.178 62.1511 28.178 62.0261 28.178C61.9011 28.178 61.7761 28.1023 61.7136 28.0265C61.6511 27.8749 61.5886 27.7992 61.5261 27.7234C61.5261 27.7234 61.5261 27.7234 61.5261 27.6476C61.5261 27.6476 61.5261 27.6476 61.4636 27.6476H61.4011C61.3386 27.6476 61.2761 27.7234 61.1511 27.7992C61.0885 27.8749 60.9635 27.9507 60.8385 27.9507C60.7135 27.9507 60.5885 27.8749 60.526 27.7234C60.4635 27.6476 60.4635 27.4961 60.4635 27.4203C60.401 27.4203 60.276 27.4203 60.2135 27.3445C60.151 27.3445 60.0885 27.2687 60.0885 27.2687C60.026 27.2687 60.026 27.1929 59.9635 27.1172C59.901 27.0414 59.8385 26.8898 59.776 26.8141C59.7134 26.6625 59.7134 26.5867 59.7134 26.4352C59.7134 26.6625 59.8385 26.8898 59.9635 27.0414C60.026 27.0414 60.026 27.1172 60.0885 27.1172C60.151 27.1172 60.151 27.1929 60.2135 27.1929C60.3385 27.1929 60.401 27.2687 60.526 27.2687H60.5885V27.3445C60.526 27.4203 60.526 27.4961 60.5885 27.5718ZM59.9635 40.5296C60.0885 40.5296 60.0885 40.5296 60.151 40.5296C60.3385 40.4538 60.526 40.3023 60.7135 40.1507C60.776 40.0749 60.901 39.9992 60.9635 39.8476C61.026 39.7718 61.0885 39.6203 61.1511 39.5445C61.2136 39.4687 61.2761 39.3172 61.3386 39.2414C61.3386 39.1656 61.4011 39.0898 61.4011 39.0898C61.4011 39.0141 61.4011 38.9383 61.4636 38.8625C61.5261 38.7867 61.5261 38.7867 61.5886 38.711L61.6511 38.6352L61.7136 38.5594L61.8386 38.4079L61.9011 38.3321L61.9636 38.2563C62.0261 38.1048 62.0886 38.029 62.1511 37.8774C62.1511 37.8016 62.2136 37.7259 62.2136 37.6501C62.2136 37.6501 62.2136 37.5743 62.1511 37.5743C62.1511 37.5743 62.0886 37.5743 62.0886 37.6501L62.1511 37.5743H62.2136V37.6501C62.2136 37.7259 62.2136 37.8016 62.2136 37.8774C62.2136 38.029 62.1511 38.1805 62.0886 38.3321C62.0886 38.3321 62.0886 38.4079 62.0261 38.4079L61.9636 38.4836L61.8386 38.6352L61.7761 38.711L61.7136 38.7867C61.6511 38.8625 61.6511 38.8625 61.5886 38.9383C61.5886 39.0141 61.5886 39.0141 61.5886 39.0898C61.5886 39.1656 61.5261 39.2414 61.5261 39.3172C61.4636 39.4687 61.4011 39.5445 61.3386 39.6961C61.2136 39.9234 61.026 40.1507 60.8385 40.3023C60.651 40.4538 60.4635 40.6054 60.2135 40.6811C60.151 40.6811 60.0885 40.6811 60.026 40.6811C59.9635 40.6054 59.9635 40.6054 59.9635 40.5296C59.901 40.5296 59.901 40.4538 59.901 40.4538C59.901 40.3023 59.9635 40.1507 60.026 40.0749C59.9635 40.2265 59.9635 40.3023 59.9635 40.4538C59.9635 40.4538 59.9635 40.4538 59.9635 40.5296ZM61.4636 32.952C61.4636 32.8762 61.4636 32.8004 61.4636 32.8004H61.4011C61.3386 32.8004 61.3386 32.8004 61.3386 32.8004C61.2761 32.8004 61.2761 32.8762 61.2761 32.8762C61.2761 32.8762 61.2761 32.8762 61.3386 32.8004L61.4011 32.7246C61.4636 32.7246 61.5261 32.7246 61.5886 32.7246C61.6511 32.8004 61.6511 32.8762 61.6511 32.952C61.6511 33.0277 61.6511 33.1035 61.6511 33.1793C61.6511 33.3308 61.6511 33.4824 61.5886 33.6339C61.5261 33.7855 61.4636 33.9371 61.4011 34.0886C61.3386 34.2402 61.2136 34.3159 61.0885 34.3159C60.9635 34.3159 60.901 34.3159 60.8385 34.3159C60.8385 34.3159 60.776 34.3159 60.776 34.2402C60.776 34.2402 60.776 34.2402 60.8385 34.3159C60.901 34.3159 60.9635 34.3159 61.026 34.2402C61.0886 34.1644 61.2136 34.0886 61.2761 34.0128C61.3386 33.937 61.4011 33.7855 61.4011 33.6339C61.4636 33.4824 61.4636 33.3308 61.4636 33.2551C61.4636 33.0277 61.4636 33.0277 61.4636 32.952ZM58.4008 42.424L58.3383 42.3482H58.2758C58.2758 42.3482 58.2758 42.3482 58.3383 42.3482C58.4008 42.3482 58.4008 42.424 58.4008 42.424C58.4634 42.424 58.4634 42.4998 58.5259 42.5756C58.5259 42.6513 58.5259 42.7271 58.4634 42.8029C58.4008 42.8787 58.4008 42.9544 58.3383 43.0302C58.2758 43.106 58.2133 43.1818 58.1508 43.2575C58.0258 43.4091 57.8383 43.5607 57.6508 43.6364C57.4633 43.788 57.2758 43.8638 57.0882 43.9395C57.0257 44.0153 56.9007 44.0153 56.8382 44.0153C56.7757 44.0153 56.6507 44.0153 56.5882 44.0153C56.4632 44.0153 56.2757 44.0153 56.2132 43.9395C56.1507 43.8638 56.0882 43.788 56.0882 43.788C56.0882 43.788 56.1507 43.8638 56.2132 43.8638C56.2757 43.9395 56.4007 43.9395 56.5257 43.8638C56.8382 43.788 57.1508 43.6364 57.5258 43.4091C57.7133 43.2575 57.8383 43.1818 58.0258 43.0302C58.0883 42.9544 58.1508 42.8787 58.2133 42.8029C58.2758 42.7271 58.3383 42.6513 58.3383 42.5756C58.4008 42.4998 58.4008 42.424 58.4008 42.3482C58.4634 42.5756 58.4634 42.4998 58.4008 42.424ZM65.7139 26.9656C65.6514 26.6625 65.6514 26.3594 65.5889 26.0563C65.5264 25.3743 65.4639 24.6923 65.4014 24.0103C65.3389 23.6315 65.3389 23.3283 65.2764 23.0252C65.2139 22.7221 65.1514 22.3433 65.0889 22.0402C65.0263 21.737 64.9013 21.4339 64.7763 21.2066C64.7138 21.0551 64.6513 20.9793 64.5888 20.8277C64.5263 20.752 64.4638 20.6762 64.3388 20.6762C64.2763 20.6762 64.1513 20.752 64.1513 20.8277C64.0888 20.9035 64.0888 20.9793 64.0888 21.1308C64.0888 21.3582 64.1513 21.5097 64.1513 21.6613C64.2138 21.9644 64.2763 22.1159 64.2763 22.1159C64.2763 22.1159 64.2763 22.0402 64.2138 22.0402C64.2138 21.9644 64.1513 21.8886 64.0888 21.737C64.0263 21.5855 63.9638 21.4339 63.9638 21.2066C63.9638 21.0551 63.9638 20.9793 64.0263 20.8277C64.0263 20.752 64.0888 20.752 64.1513 20.6762C64.2138 20.6004 64.2763 20.6004 64.3388 20.6004C64.4638 20.6004 64.5888 20.6762 64.6513 20.8277C64.7138 20.9035 64.7138 20.9793 64.7763 20.9793C64.8388 21.0551 64.8388 21.1308 64.9013 21.1308C65.0263 21.3582 65.1514 21.6613 65.2764 21.9644C65.4639 22.5706 65.5264 23.3284 65.6514 24.0103C65.7139 24.6923 65.7764 25.3743 65.8389 26.0563C65.8389 26.3594 65.9014 26.6625 65.9014 26.9656C65.9014 27.2687 65.9639 27.5718 65.9014 27.7992C65.9014 28.1023 65.8389 28.3296 65.7764 28.4811C65.7764 28.5569 65.7139 28.5569 65.7139 28.6327C65.7139 28.7085 65.6514 28.7085 65.6514 28.7843C65.5889 28.86 65.5264 28.9358 65.4639 28.9358C65.4014 28.9358 65.3389 28.9358 65.2764 28.86C65.2139 28.7843 65.2139 28.7843 65.2139 28.7085C65.2139 28.6327 65.1514 28.5569 65.1514 28.5569C65.1514 28.5569 65.1514 28.6327 65.2139 28.6327L65.2764 28.7085C65.3389 28.7085 65.3389 28.7843 65.4014 28.7085C65.5264 28.6327 65.5889 28.4811 65.6514 28.2538C65.7139 28.0265 65.7139 27.7992 65.7139 27.5718C65.7764 27.5718 65.7764 27.2687 65.7139 26.9656ZM65.0889 32.4215C65.0889 32.3457 65.0889 32.27 65.0889 32.27C65.0889 32.1942 65.0263 32.1942 65.0263 32.27L64.9638 32.3457C64.9638 32.3457 64.9638 32.27 65.0263 32.27H65.0889C65.0889 32.27 65.1514 32.27 65.1514 32.3457C65.1514 32.4215 65.2139 32.4973 65.2139 32.4973C65.2139 32.6488 65.2764 32.8004 65.2764 32.952C65.2764 33.1035 65.2764 33.3308 65.2139 33.4824C65.2139 33.5582 65.1514 33.6339 65.1514 33.7097C65.1514 33.7855 65.0889 33.8613 65.0889 33.937C65.0263 34.0886 64.9638 34.2402 64.9013 34.3159C64.8388 34.3917 64.8388 34.3917 64.7763 34.4675H64.7138L64.6513 34.3917C64.6513 34.3159 64.6513 34.3159 64.6513 34.3159V34.3917C64.6513 34.3917 64.6513 34.3917 64.7138 34.3917C64.7138 34.3917 64.7763 34.3159 64.7763 34.2402C64.8388 34.1644 64.9013 34.0128 64.9638 33.8613C64.9638 33.7855 65.0263 33.7097 65.0263 33.6339C65.0263 33.5582 65.0889 33.4824 65.0889 33.4066C65.1514 33.2551 65.1514 33.0277 65.1514 32.8762C65.0889 32.6488 65.0889 32.4973 65.0889 32.4215ZM42.6497 34.3159C42.7122 34.3917 42.7747 34.4675 42.8372 34.5433C42.8997 34.619 43.0247 34.619 43.1497 34.6948C43.2747 34.6948 43.3997 34.7706 43.5247 34.6948C43.5872 34.6948 43.6497 34.6948 43.7122 34.6948C43.7747 34.6948 43.7747 34.6948 43.8372 34.619V34.5433C43.8372 34.5433 43.8372 34.4675 43.7747 34.4675C43.7747 34.3917 43.7122 34.3917 43.7122 34.3917C43.7122 34.3917 43.7122 34.3917 43.7747 34.4675L43.8372 34.5433C43.8372 34.619 43.8997 34.6948 43.8372 34.7706C43.7747 34.8464 43.7122 34.8464 43.7122 34.9221C43.6497 34.9221 43.5872 34.9979 43.5247 34.9979C43.3997 34.9979 43.2747 34.9979 43.1497 34.9979C43.0247 34.9979 42.8997 34.9221 42.7747 34.8464C42.6497 34.7706 42.5872 34.619 42.5246 34.5433C42.4621 34.3917 42.4621 34.3159 42.5246 34.2402C42.5246 34.2402 42.5246 34.1644 42.5872 34.1644C42.5872 34.1644 42.5872 34.1644 42.5872 34.2402C42.5246 34.1644 42.5871 34.2402 42.6497 34.3159ZM42.0871 33.2551C42.1496 33.2551 42.1496 33.3308 42.1496 33.4066C42.1496 33.4824 42.1496 33.5582 42.1496 33.6339C42.0871 33.7097 42.0871 33.7855 42.0246 33.7855C41.9621 33.8613 41.8996 33.8613 41.8371 33.8613C41.6496 33.8613 41.5246 33.8613 41.3371 33.7855C41.212 33.7097 41.087 33.5582 40.962 33.4824C40.837 33.3308 40.7745 33.2551 40.712 33.1035C40.6495 32.952 40.6495 32.8762 40.587 32.8004C40.587 32.7246 40.587 32.6489 40.587 32.6489C40.587 32.6489 40.587 32.7246 40.6495 32.8004C40.6495 32.8762 40.712 32.952 40.7745 33.1035C40.837 33.1793 40.962 33.3308 41.0245 33.4066C41.087 33.4824 41.1495 33.4824 41.212 33.5582C41.2746 33.6339 41.3371 33.6339 41.3996 33.7097C41.5246 33.7855 41.6496 33.7855 41.7746 33.7855C41.8371 33.7855 41.8996 33.7855 41.9621 33.7097C42.0246 33.7097 42.0871 33.6339 42.0871 33.5582C42.1496 33.4824 42.0871 33.3308 42.0871 33.2551Z" fill="#262525"/>
<path d="M46.5252 11.1284C46.6502 10.7495 46.0877 10.8253 45.8377 10.8253C45.5877 10.7495 45.4626 10.8253 45.0251 10.9768C43.9625 11.2799 43.9 11.1284 43.9625 11.8104C44.025 12.4923 42.5249 13.0228 43.2125 13.0986C43.9 13.1743 44.4626 12.5681 45.0876 12.1892C45.7752 11.7346 46.4002 11.5072 46.5252 11.1284Z" fill="#262525"/>
<path d="M59.1504 18.9333C59.2129 18.8575 59.2129 18.7817 59.2754 18.7817C59.2129 18.8575 59.1504 18.8575 59.1504 18.9333Z" fill="#262525"/>
<path d="M57.9635 10.9009C57.0885 10.4463 56.2134 9.9916 55.3383 9.53694C54.2757 9.0065 53.1507 8.40029 52.0256 8.55184C51.8381 8.55184 51.588 8.62762 51.5255 8.93072C51.463 9.15805 51.588 9.46116 51.7756 9.61271C52.0256 9.76427 52.4631 9.84004 52.7756 9.84004C53.2757 9.91582 53.7132 9.99159 54.2132 10.1431C55.1508 10.4463 56.0259 10.8251 56.9009 11.3556C57.651 11.886 58.4011 12.4922 59.2136 12.7195C59.3386 12.7195 59.5261 12.7195 59.5886 12.6438C59.6511 12.4922 59.5886 12.3407 59.5261 12.2649C59.2136 11.5071 58.5886 11.1282 57.9635 10.9009Z" fill="#262525"/>
<path d="M37.774 18.4787C38.024 17.7209 38.3991 16.9632 38.8991 16.2812C39.3366 15.675 39.8367 15.1445 40.0242 14.3868C40.0867 14.2352 40.0867 14.1594 40.0242 14.0079C39.9617 13.9321 39.8367 13.9321 39.7117 14.0079C39.2116 14.2352 38.9616 14.6899 38.6491 15.2203C38.2741 15.9023 37.8365 16.6601 37.4615 17.342C36.9615 18.2514 36.4614 19.1607 36.4614 20.1458C36.4614 20.2973 36.4614 20.5247 36.6489 20.6762C36.8365 20.752 37.024 20.6762 37.149 20.5247C37.274 20.2973 37.3365 19.9184 37.399 19.6911C37.5865 19.3122 37.649 18.9333 37.774 18.4787Z" fill="#262525"/>
<path d="M48.0875 19.8426C48.15 19.6152 48.15 19.2364 47.9 19.1606C47.65 19.009 47.2125 19.3121 47.025 19.009C46.9625 18.8575 46.9625 18.6302 46.9625 18.4028C46.8374 18.0997 46.5249 18.0239 46.2749 18.0997C45.7749 18.2513 45.3998 18.7059 45.3373 19.3121C45.2748 19.7668 45.1498 20.2215 45.0873 20.7519C44.8998 21.055 44.7123 21.3581 44.5873 21.6612C44.3998 22.2674 44.3998 22.9494 44.6498 23.4798C44.8998 24.0103 45.4623 24.2376 45.9624 24.1618C46.4624 24.0861 46.9 23.7072 47.15 23.2525C47.3375 22.9494 47.4625 22.5705 47.7125 22.2674C48.025 21.8885 48.5251 21.737 48.7126 21.2823C48.8376 20.9792 48.7751 20.5246 48.5876 20.2215C48.4001 20.0699 48.2126 19.9184 48.0875 19.8426Z" fill="#262525"/>
<path d="M57.4632 16.8873C57.0882 16.5084 56.7756 16.0538 56.4006 15.6749C56.1506 15.3718 55.9006 15.0687 55.588 14.8414C55.338 14.6898 54.963 14.4625 54.6505 14.5382C54.4005 14.614 54.1504 14.9929 53.9629 15.2202C53.7754 15.3718 53.6504 15.6749 53.6504 15.9022C53.7129 16.2053 53.9629 16.3569 54.2129 16.3569C54.463 16.3569 54.713 16.2811 54.963 16.4327C55.463 16.5842 55.588 17.342 55.8381 17.7966C56.1506 18.3271 56.7131 18.7059 57.2132 18.6302C57.5257 18.6302 57.8382 18.4786 57.9632 18.1755C58.0257 17.9482 58.0257 17.6451 57.9007 17.4178C57.7757 17.2662 57.5882 17.1146 57.4632 16.8873Z" fill="#262525"/>
<path d="M40.087 23.8588C39.837 23.7073 39.3994 24.0104 39.2119 23.7073C39.0869 23.5557 39.1494 23.3284 39.0869 23.1011C38.9619 22.798 38.6494 22.7222 38.3994 22.798C37.8993 22.9495 37.5243 23.4042 37.4618 24.0104C37.3993 24.6166 37.1493 25.3744 37.2743 25.9806C37.3368 26.2837 37.5243 26.5868 37.7743 26.6626C38.0243 26.7383 38.2743 26.511 38.5244 26.2837C38.9619 25.9048 39.3994 25.5259 39.7745 25.147C39.962 24.9955 40.1495 24.8439 40.212 24.5408C40.337 24.3135 40.2745 24.0104 40.087 23.8588Z" fill="#262525"/>
<path d="M53.0876 12.568C53.4001 12.4165 53.4626 12.1891 53.1501 12.0376C52.7126 11.886 51.775 12.0376 51.525 11.8103C51.4 11.6587 51.5875 11.5071 51.5875 11.3556C51.5875 11.1283 50.8999 11.0525 50.3374 11.0525C49.2748 11.0525 48.2747 11.3556 47.8372 11.8103C47.3997 12.1891 46.4621 12.7196 46.3996 13.1742C46.3371 13.4016 46.5871 13.6289 47.0871 13.7047C47.5872 13.7804 48.2122 13.6289 48.7748 13.5531C49.8373 13.3258 50.8999 13.0985 51.9 12.9469C52.3375 12.8711 52.7751 12.7196 53.0876 12.568Z" fill="#262525"/>
<path d="M43.0245 16.0538C42.962 15.978 42.837 16.0538 42.7745 16.0538C42.2745 16.2811 41.7744 16.8874 41.5869 17.4936C41.5244 17.7209 41.4619 17.8725 41.5244 18.0998C41.5244 18.3271 41.6494 18.5544 41.8369 18.6302C41.962 18.706 42.1495 18.6302 42.2745 18.5544C42.3995 18.4787 42.5245 18.3271 42.587 18.1756C42.8995 17.7209 43.087 17.1147 43.2121 16.5085C43.1495 16.3569 43.1495 16.1296 43.0245 16.0538Z" fill="#262525"/>
<path d="M35.5245 27.4959C35.462 27.3444 35.3995 27.1171 35.2745 27.1171C35.212 27.1171 35.1495 27.1928 35.1495 27.2686C34.962 27.6475 34.8995 28.4053 35.0245 29.0115C35.087 29.2388 35.1495 29.3904 35.212 29.6177C35.212 29.6935 35.2745 29.6935 35.2745 29.7692C35.2745 29.9208 35.2745 30.0723 35.2745 30.2239C35.2745 30.2997 35.2745 30.4512 35.337 30.6028C35.3995 30.7543 35.3995 30.9059 35.462 31.0574C35.5245 31.209 35.5871 31.2848 35.6496 31.2848C35.7121 31.2848 35.7121 31.209 35.7121 31.1332C35.7121 30.9059 35.6496 30.4512 35.5245 29.9966C35.5871 29.9966 35.7121 29.9208 35.7121 29.7692C35.7746 29.6177 35.7746 29.4661 35.7746 29.3146C35.8371 28.6326 35.7121 28.0264 35.5245 27.4959Z" fill="#262525"/>
<path d="M54.213 21.055C53.5879 20.7519 52.7754 20.6761 52.2753 20.9034C52.0878 20.9792 51.9628 21.1307 51.8378 21.2823C51.7753 21.4339 51.7128 21.737 51.8378 21.9643C51.9628 22.1916 52.0878 22.3432 52.2753 22.3432C52.4628 22.4189 52.6504 22.4189 52.7754 22.4189C53.3379 22.3432 53.8379 22.1916 54.2755 21.8127C54.4005 21.737 54.5255 21.5096 54.4005 21.3581C54.4005 21.2065 54.338 21.1307 54.213 21.055Z" fill="#262525"/>
<path d="M49.2125 16.0538C48.9 15.8265 48.5249 15.7507 48.2749 15.8265C48.2124 15.8265 48.1499 15.9023 48.0874 15.9781C48.0249 16.0538 48.0874 16.2054 48.1499 16.2812C48.2124 16.357 48.2749 16.4327 48.3999 16.5085C48.4624 16.5843 48.5874 16.5843 48.65 16.5843C48.9 16.5843 49.15 16.5843 49.3375 16.4327C49.4 16.3569 49.4625 16.3569 49.4 16.2054C49.3375 16.1296 49.275 16.0538 49.2125 16.0538Z" fill="#262525"/>
<path d="M51.1505 24.3135C50.838 24.0862 50.4004 24.0104 50.1504 24.0862C50.0879 24.0862 50.0254 24.1619 49.9629 24.2377C49.9004 24.3135 49.9629 24.465 50.0254 24.5408C50.0879 24.6166 50.2129 24.6924 50.2754 24.7681C50.3379 24.8439 50.4629 24.8439 50.5254 24.8439C50.7755 24.8439 51.0255 24.7681 51.213 24.6924C51.2755 24.6166 51.338 24.6166 51.2755 24.465C51.2755 24.3893 51.213 24.3893 51.1505 24.3135Z" fill="#262525"/>
<path d="M41.5874 42.0451C41.6499 42.1208 41.7749 42.1208 41.8374 42.1208C42.0875 42.1966 42.275 42.1966 42.4 42.1208C42.4625 42.1208 42.4625 42.0451 42.4 41.9693C42.3375 41.8935 42.275 41.8177 42.275 41.8177C41.9625 41.5904 41.5874 41.4388 41.3999 41.4388C41.3374 41.4388 41.2749 41.4388 41.2749 41.5146C41.2749 41.5904 41.2749 41.6662 41.3374 41.8177C41.3999 41.8935 41.4624 41.9693 41.5874 42.0451Z" fill="#262525"/>
<path d="M44.962 41.8935C45.0245 41.8935 45.087 41.9693 45.1495 41.9693C45.212 41.9693 45.337 41.9693 45.3995 41.9693C45.5245 41.9693 45.587 41.8935 45.587 41.8935C45.587 41.8177 45.587 41.8177 45.5245 41.7419C45.3995 41.5904 45.087 41.5146 44.7744 41.4388C44.7119 41.4388 44.6494 41.4388 44.5869 41.4388C44.5244 41.4388 44.5244 41.5146 44.5244 41.5146C44.6494 41.6662 44.7744 41.7419 44.962 41.8935Z" fill="#262525"/>
<path d="M38.5244 34.9221C38.5869 34.9978 38.6494 35.0736 38.7745 35.1494C38.8995 35.2252 39.0245 35.301 39.1495 35.301C39.2745 35.301 39.3995 35.301 39.462 35.2252C39.5245 35.1494 39.462 35.0736 39.462 34.9978C39.337 34.7705 38.962 34.4674 38.5869 34.2401C38.5244 34.1643 38.3994 34.1643 38.3369 34.1643C38.2119 34.1643 38.2119 34.2401 38.2119 34.2401C38.2119 34.4674 38.3369 34.6947 38.5244 34.9221Z" fill="#262525"/>
<path d="M36.2744 35.6041C36.2119 35.5283 36.1494 35.5283 36.1494 35.6041C36.1494 35.7556 36.2119 35.983 36.3369 36.2861C36.3994 36.3618 36.3994 36.4376 36.5244 36.5892C36.587 36.6649 36.712 36.8165 36.7745 36.8923C36.8995 36.968 36.962 37.0438 37.0245 37.0438C37.087 37.0438 37.087 36.968 37.0245 36.8923C36.962 36.6649 36.712 36.2103 36.4619 35.8314C36.3994 35.7556 36.3369 35.6798 36.2744 35.6041Z" fill="#262525"/>
<path d="M42.8375 24.6165C42.775 24.6165 42.7125 24.6165 42.5875 24.6165C42.3374 24.768 42.0874 25.1469 41.9624 25.5258C41.9624 25.6015 41.8999 25.6773 41.8999 25.7531C41.8999 25.9047 41.9624 25.9047 42.0249 25.9047C42.2124 25.9047 42.4624 25.7531 42.65 25.5258C42.7125 25.45 42.775 25.3742 42.8375 25.2984C42.9 25.2227 42.9 25.0711 42.9 24.9196C42.9625 24.6922 42.9 24.6165 42.8375 24.6165Z" fill="#262525"/>
<path d="M35.7114 22.0402C35.5864 22.0402 35.5239 22.1159 35.4614 22.1917C35.2113 22.4948 35.0238 23.2526 35.0863 23.8588C35.0863 24.0103 35.0863 24.0861 35.1488 24.2377C35.2113 24.3892 35.3364 24.3892 35.3989 24.3135C35.6489 24.1619 35.8989 23.783 36.0239 23.3284C36.0864 23.1768 36.0864 23.0253 36.0864 22.8737C36.0864 22.7221 36.0864 22.4948 36.0239 22.3433C35.8989 22.1159 35.7739 22.0402 35.7114 22.0402Z" fill="#262525"/>
<path d="M38.9619 27.2687C38.8994 27.2687 38.7744 27.3444 38.7744 27.496C38.5869 27.7991 38.5244 28.4053 38.5869 28.9358C38.5869 29.0115 38.6494 29.1631 38.6494 29.2389C38.7119 29.3146 38.8369 29.3146 38.8994 29.2389C39.087 29.0115 39.2745 28.7084 39.337 28.3295C39.337 28.178 39.3995 28.1022 39.3995 27.9507C39.3995 27.7991 39.337 27.6476 39.2745 27.496C39.1495 27.3444 39.0244 27.2687 38.9619 27.2687Z" fill="#262525"/>
<path d="M52.2755 14.9929C52.338 14.8413 52.4005 14.6898 52.338 14.5382C52.2755 14.4625 52.213 14.3867 52.088 14.3109C51.7755 14.2351 51.2754 14.3109 50.8379 14.614C50.7754 14.6898 50.7129 14.7656 50.6504 14.8413C50.5879 14.9929 50.6504 15.0687 50.7129 15.1444C50.9629 15.296 51.2754 15.4475 51.588 15.3718C51.713 15.3718 51.838 15.3718 51.9005 15.296C52.088 15.2202 52.213 15.1444 52.2755 14.9929Z" fill="#262525"/>
<path d="M58.1504 14.2351C58.0879 14.2351 58.0254 14.2351 57.9629 14.3109C57.9004 14.3867 57.9004 14.5382 57.9629 14.614C58.0879 14.9171 58.3379 15.2202 58.6504 15.4475C58.713 15.5233 58.838 15.5991 58.963 15.5991C59.088 15.5991 59.213 15.5991 59.2755 15.5233C59.4005 15.4475 59.463 15.296 59.463 15.1444C59.463 14.9929 59.4005 14.9171 59.338 14.7655C59.0255 14.4624 58.5879 14.2351 58.1504 14.2351Z" fill="#262525"/>
<path d="M47.9629 9.30966C48.0254 9.30966 48.1504 9.30966 48.2129 9.30966C48.5255 9.23388 48.838 9.15811 49.088 8.93078C49.1505 8.855 49.2755 8.77923 49.2755 8.70345C49.2755 8.62768 49.213 8.62767 49.1505 8.5519C48.9005 8.40034 48.463 8.40034 48.1504 8.5519C48.0254 8.62767 47.9629 8.70345 47.8379 8.77923C47.7754 8.855 47.7129 9.00656 47.7129 9.15811C47.8379 9.15811 47.9004 9.23388 47.9629 9.30966Z" fill="#262525"/>
</svg>
