<svg width="49" height="49" viewBox="0 0 49 49" fill="none" xmlns="http://www.w3.org/2000/svg">
<path fill-rule="evenodd" clip-rule="evenodd" d="M48.918 0.299316H0.917969V48.2993H48.918V0.299316ZM38.2564 19.3508C38.2564 19.051 38.2525 18.7513 38.2409 18.4515C39.4825 17.484 40.5574 16.2713 41.4114 14.895C40.2732 15.4401 39.0458 15.8077 37.759 15.9712C39.0742 15.1263 40.0807 13.7775 40.5574 12.1695C39.3274 12.9599 37.9683 13.5322 36.5174 13.832C35.3585 12.4965 33.7073 11.6651 31.8792 11.6651C28.3675 11.6651 25.5213 14.745 25.5213 18.547C25.5213 19.0785 25.5769 19.6098 25.6854 20.114C20.4025 19.8279 15.7165 17.0887 12.5821 12.9187C12.0317 13.9408 11.7191 15.1264 11.7191 16.3801C11.7191 18.7649 12.8418 20.8771 14.5498 22.1172C13.5072 22.0763 12.5253 21.7631 11.6674 21.2589V21.3407C11.6674 24.6794 13.8599 27.4593 16.7707 28.0862C16.2332 28.2497 15.6725 28.3314 15.095 28.3314C14.6855 28.3314 14.285 28.2904 13.8961 28.2086C14.7062 30.9341 17.055 32.9374 19.8366 32.9782C17.6609 34.8316 14.918 35.9356 11.94 35.9356C11.4271 35.9356 10.9219 35.8946 10.4245 35.8401C13.2385 37.7888 16.5782 38.9336 20.1699 38.9336C31.8624 38.9336 38.2564 28.4403 38.2564 19.3508Z" fill="#E3DDD1"/>
</svg>
