<svg width="180" height="264" viewBox="0 0 180 264" fill="none" xmlns="http://www.w3.org/2000/svg">
  <rect width="180" height="264" rx="15" fill="#D9CBB8" />
  <path
    d="M61.6539 220.234C61.0672 220.234 60.5712 220.116 60.1659 219.882C59.7712 219.636 59.4672 219.3 59.2539 218.874H59.1579L59.0139 220.042H57.5579V208.522H59.2539V213.13C59.4459 212.81 59.7499 212.527 60.1659 212.282C60.5819 212.036 61.0779 211.914 61.6539 211.914C62.3152 211.914 62.9072 212.074 63.4299 212.394C63.9525 212.703 64.3632 213.167 64.6619 213.786C64.9712 214.404 65.1259 215.167 65.1259 216.074C65.1259 216.98 64.9712 217.743 64.6619 218.362C64.3632 218.98 63.9525 219.45 63.4299 219.77C62.9072 220.079 62.3152 220.234 61.6539 220.234ZM61.3019 218.618C61.9099 218.618 62.4112 218.41 62.8059 217.994C63.2112 217.567 63.4139 216.932 63.4139 216.09C63.4139 215.236 63.2112 214.596 62.8059 214.17C62.4112 213.743 61.9099 213.53 61.3019 213.53C60.6939 213.53 60.1872 213.743 59.7819 214.17C59.3872 214.586 59.1899 215.22 59.1899 216.074C59.1899 216.916 59.3872 217.551 59.7819 217.978C60.1872 218.404 60.6939 218.618 61.3019 218.618ZM70.8156 220.234C70.0583 220.234 69.381 220.063 68.7836 219.722C68.1863 219.38 67.717 218.9 67.3756 218.282C67.0343 217.652 66.8636 216.916 66.8636 216.074C66.8636 215.231 67.0343 214.5 67.3756 213.882C67.717 213.252 68.1863 212.767 68.7836 212.426C69.381 212.084 70.0636 211.914 70.8316 211.914C71.5996 211.914 72.277 212.084 72.8636 212.426C73.461 212.767 73.925 213.252 74.2556 213.882C74.597 214.5 74.7676 215.231 74.7676 216.074C74.7676 216.916 74.597 217.652 74.2556 218.282C73.9143 218.9 73.445 219.38 72.8476 219.722C72.261 220.063 71.5836 220.234 70.8156 220.234ZM70.8156 218.618C71.221 218.618 71.5943 218.527 71.9356 218.346C72.277 218.164 72.549 217.887 72.7516 217.514C72.965 217.13 73.0716 216.65 73.0716 216.074C73.0716 215.487 72.965 215.007 72.7516 214.634C72.549 214.26 72.277 213.983 71.9356 213.802C71.605 213.62 71.237 213.53 70.8316 213.53C70.4263 213.53 70.053 213.62 69.7116 213.802C69.3703 213.983 69.093 214.26 68.8796 214.634C68.677 215.007 68.5756 215.487 68.5756 216.074C68.5756 216.948 68.7943 217.594 69.2316 218.01C69.6796 218.415 70.2076 218.618 70.8156 218.618ZM76.8574 220.042V212.106H78.3294L78.4734 213.29H78.5534C78.7667 212.906 79.0974 212.58 79.5454 212.314C79.9934 212.047 80.5107 211.914 81.0974 211.914C82.068 211.914 82.7987 212.207 83.2894 212.794C83.78 213.38 84.0254 214.244 84.0254 215.386V220.042H82.3294V215.594C82.3294 214.932 82.1907 214.42 81.9134 214.058C81.636 213.695 81.1987 213.514 80.6014 213.514C80.0147 213.514 79.524 213.711 79.1294 214.106C78.7454 214.5 78.5534 215.071 78.5534 215.818V220.042H76.8574ZM89.5711 220.234C88.9098 220.234 88.3178 220.079 87.7951 219.77C87.2725 219.45 86.8565 218.98 86.5471 218.362C86.2485 217.743 86.0991 216.98 86.0991 216.074C86.0991 215.167 86.2538 214.404 86.5631 213.786C86.8725 213.167 87.2885 212.703 87.8111 212.394C88.3445 212.074 88.9365 211.914 89.5871 211.914C90.1951 211.914 90.6965 212.031 91.0911 212.266C91.4858 212.49 91.7791 212.778 91.9711 213.13V208.522H93.6671V220.042H92.2111L92.0671 218.874H91.9711C91.7578 219.29 91.4538 219.62 91.0591 219.866C90.6751 220.111 90.1791 220.234 89.5711 220.234ZM89.9231 218.618C90.5311 218.618 91.0325 218.404 91.4271 217.978C91.8325 217.551 92.0351 216.916 92.0351 216.074C92.0351 215.22 91.8325 214.586 91.4271 214.17C91.0325 213.743 90.5311 213.53 89.9231 213.53C89.3151 213.53 88.8085 213.743 88.4031 214.17C88.0085 214.596 87.8111 215.236 87.8111 216.09C87.8111 216.932 88.0085 217.567 88.4031 217.994C88.8085 218.41 89.3151 218.618 89.9231 218.618ZM99.4369 210.89C99.0635 210.89 98.7489 210.772 98.4929 210.538C98.2475 210.292 98.1249 209.994 98.1249 209.642C98.1249 209.29 98.2475 208.996 98.4929 208.762C98.7489 208.527 99.0635 208.41 99.4369 208.41C99.8209 208.41 100.136 208.527 100.381 208.762C100.637 208.996 100.765 209.29 100.765 209.642C100.765 209.994 100.637 210.292 100.381 210.538C100.136 210.772 99.8209 210.89 99.4369 210.89ZM96.2529 220.042V218.57H98.7489V214.106C98.7489 213.754 98.5782 213.578 98.2369 213.578H96.4769V212.106H98.5409C99.2022 212.106 99.6822 212.26 99.9809 212.57C100.29 212.868 100.445 213.348 100.445 214.01V218.57H102.941V220.042H96.2529ZM105.639 220.042V212.106H107.111L107.255 213.29H107.335C107.548 212.906 107.879 212.58 108.327 212.314C108.775 212.047 109.292 211.914 109.879 211.914C110.849 211.914 111.58 212.207 112.071 212.794C112.561 213.38 112.807 214.244 112.807 215.386V220.042H111.111V215.594C111.111 214.932 110.972 214.42 110.695 214.058C110.417 213.695 109.98 213.514 109.383 213.514C108.796 213.514 108.305 213.711 107.911 214.106C107.527 214.5 107.335 215.071 107.335 215.818V220.042H105.639ZM118.608 217.754C118.118 217.754 117.664 217.674 117.248 217.514L116.848 217.994C116.72 218.154 116.683 218.308 116.736 218.458C116.8 218.596 116.944 218.666 117.168 218.666H119.264C120.192 218.666 120.939 218.863 121.504 219.258C122.08 219.642 122.368 220.234 122.368 221.034C122.368 221.535 122.24 221.988 121.984 222.394C121.739 222.81 121.339 223.14 120.784 223.386C120.24 223.631 119.52 223.754 118.624 223.754C117.494 223.754 116.582 223.54 115.888 223.114C115.206 222.698 114.864 222.068 114.864 221.226C114.864 220.927 114.934 220.65 115.072 220.394C115.222 220.148 115.414 219.924 115.648 219.722C115.36 219.508 115.184 219.21 115.12 218.826C115.067 218.431 115.184 218.052 115.472 217.69L116.176 216.794C115.675 216.26 115.424 215.604 115.424 214.826C115.424 214.303 115.547 213.823 115.792 213.386C116.048 212.938 116.411 212.58 116.88 212.314C117.36 212.047 117.936 211.914 118.608 211.914C119.046 211.914 119.451 211.978 119.824 212.106H122.816V213.226L121.424 213.306V213.45C121.648 213.866 121.76 214.324 121.76 214.826C121.76 215.348 121.632 215.834 121.376 216.282C121.131 216.73 120.774 217.087 120.304 217.354C119.835 217.62 119.27 217.754 118.608 217.754ZM118.608 216.394C119.078 216.394 119.462 216.255 119.76 215.978C120.07 215.7 120.224 215.316 120.224 214.826C120.224 214.356 120.07 213.983 119.76 213.706C119.462 213.428 119.078 213.29 118.608 213.29C118.128 213.29 117.734 213.428 117.424 213.706C117.126 213.983 116.976 214.356 116.976 214.826C116.976 215.316 117.126 215.7 117.424 215.978C117.734 216.255 118.128 216.394 118.608 216.394ZM116.464 221.098C116.464 221.524 116.667 221.839 117.072 222.042C117.488 222.244 118.006 222.346 118.624 222.346C119.286 222.346 119.808 222.234 120.192 222.01C120.576 221.786 120.768 221.471 120.768 221.066C120.768 220.724 120.63 220.452 120.352 220.25C120.075 220.058 119.606 219.962 118.944 219.962H117.072C116.667 220.282 116.464 220.66 116.464 221.098Z"
    fill="#423B3C" />
  <path
    d="M109.161 179.365C103.172 181.918 96.6165 183.226 89.9819 183.226C78.2571 183.211 67.3833 179.05 58.8103 172.1C49.1972 164.284 42.5311 152.953 40.9395 139.968C40.057 132.718 40.8449 125.548 42.2475 118.456C45.4781 102.114 50.8362 86.5283 59.1255 72.0299C63.3174 64.7019 68.2027 57.9097 75.0422 52.7722C84.8444 45.4127 95.403 45.4442 105.158 52.8825C111.871 58.0043 116.741 64.6861 120.838 71.9353C125.661 80.4768 129.6 89.3334 132.626 98.4895C135.589 107.409 137.685 116.612 138.945 126.099C142.019 149.328 130.12 170.446 109.161 179.365Z"
    fill="#423B3C" />
  <g opacity="0.5">
    <path
      d="M109.161 179.365C103.172 181.918 96.6165 183.226 89.9819 183.226C89.9819 183.226 85.1753 183.226 80.4003 182.281C63.3017 178.877 48.0784 160.659 46.1558 158.311C49.5282 161.432 59.3304 169.626 74.0967 170.997C90.7856 172.542 102.794 164.331 107.742 160.959C110.39 159.147 123.596 149.801 130.183 131.489C135.431 116.881 133.745 104.163 132.642 98.5054C135.605 107.425 137.701 116.628 138.961 126.115C142.019 149.329 130.12 170.446 109.161 179.365Z"
      fill="#423B3C" />
  </g>
  <path
    d="M111.509 58.7292C110.516 57.8309 109.476 56.9642 108.404 56.1289C98.6496 48.6906 88.0909 48.6433 78.2888 56.0186C71.4493 61.1561 66.564 67.9483 62.372 75.2763C54.0827 89.7747 48.7246 105.36 45.494 121.703C44.0914 128.794 43.3035 135.949 44.186 143.214C45.4625 153.599 49.9696 162.929 56.6357 170.241C48.1888 162.535 42.4052 151.96 40.9238 139.968C40.0413 132.718 40.8293 125.548 42.2319 118.456C45.4625 102.114 50.8206 86.5283 59.1099 72.0299C63.3018 64.7019 68.1872 57.9097 75.0266 52.7722C84.8288 45.4127 95.3874 45.4442 105.142 52.8825C107.49 54.6476 109.586 56.6175 111.509 58.7292Z"
    fill="#FAF9F8" />
  <path
    d="M81.3037 164.024V154.77L84.7513 156.403V164.024L90.0134 169.649L84.7513 167.653L78.219 173.641L79.8521 167.653L70.4165 169.649L81.3037 164.024Z"
    fill="#EB9F59" />
  <path
    d="M103.259 167.653L97.6344 169.649L103.259 164.024V154.77H106.344V164.024L116.687 169.649L108.703 167.653L109.61 173.641L103.259 167.653Z"
    fill="#EB9F59" />
  <path
    d="M81.3037 164.024V154.77L84.7513 156.403V164.024L90.0134 169.649L84.7513 167.653L78.219 173.641L79.8521 167.653L70.4165 169.649L81.3037 164.024Z"
    stroke="black" />
  <path
    d="M103.259 167.653L97.6344 169.649L103.259 164.024V154.77H106.344V164.024L116.687 169.649L108.703 167.653L109.61 173.641L103.259 167.653Z"
    stroke="black" />
  <path
    d="M123.092 123.741C123.092 142.665 109.533 157.899 92.932 157.899C76.3309 157.899 62.772 142.665 62.772 123.741C62.772 104.817 76.3309 89.5837 92.932 89.5837C109.533 89.5837 123.092 104.817 123.092 123.741Z"
    fill="#FA9579" stroke="#423B3C" />
  <path
    d="M61.697 118.388C62.6795 91.9869 79.0978 83.3224 79.5552 81.5533C80.0126 79.7841 62.6794 76.2005 62.6794 76.2005C62.6794 76.2005 72.4415 75.7527 76.8327 75.9283C81.2467 76.1048 88.0828 77.1077 88.0828 77.1077L61.5907 68.2166C61.5907 68.2166 99.0067 68.1902 112.401 85.9989C124.675 102.317 124.208 121.019 124.208 121.019C124.208 121.019 123.395 122.38 121.111 125.737C118.431 129.676 115.934 136.966 114.668 136.987C113.401 137.008 111.682 128.915 109.405 128.915C107.129 128.915 106.379 138.076 103.962 138.076C102.379 138.076 99.0974 130.366 97.4256 130.366C95.7538 130.366 94.12 139.589 92.4377 139.709C90.7553 139.829 88.9512 130.499 87.2683 130.366C85.5853 130.233 82.5474 139.794 80.4618 139.709C78.3761 139.624 77.7699 129.11 76.2883 129.189C74.8068 129.267 71.5049 137.035 70.4819 136.987C68.3575 136.887 68.3789 125.737 66.4899 125.737C65.1289 125.737 60.7145 144.79 61.697 118.388Z"
    fill="#F1EFE6" stroke="#423B3C" stroke-linejoin="round" />
  <path
    d="M129.963 132.431C131.648 123.088 123.716 115.445 123.716 115.445L116.687 145.768C116.687 145.768 127.914 143.798 129.963 132.431Z"
    fill="#F1EFE6" stroke="#423B3C" />
  <path
    d="M56.8729 137.539C54.228 126.658 61.4009 118.32 61.4009 118.32L70.4907 147.469C70.4907 147.469 58.6486 144.845 56.8729 137.539Z"
    fill="#F1EFE6" stroke="#423B3C" />
  <path
    d="M84.5853 111.912C82.7708 115.088 92.2063 128.243 92.2063 128.243C92.2063 128.243 101.642 115.36 99.8273 111.912C98.3059 109.022 95.4729 108.465 92.2063 108.465C88.9397 108.465 86.2059 109.076 84.5853 111.912Z"
    fill="#EB9F59" stroke="#423B3C" />
  <circle cx="102.594" cy="101.782" r="6.39521" fill="#F1EFE6" stroke="#423B3C" />
  <circle cx="100.059" cy="100.338" r="3.81592" fill="#423B3C" />
  <circle cx="83.2697" cy="101.782" r="6.39521" fill="#F1EFE6" stroke="#423B3C" />
  <path
    d="M84.7808 99.782C84.7808 101.582 83.3214 103.042 81.5212 103.042C79.7211 103.042 78.2617 101.582 78.2617 99.782C78.2617 97.9818 79.7211 96.5225 81.5212 96.5225C83.3214 96.5225 84.7808 97.9818 84.7808 99.782Z"
    fill="#423B3C" />
  <path
    d="M66.0681 166.78C66.0681 174.073 60.1555 179.986 52.8619 179.986C45.5684 179.986 39.6558 174.073 39.6558 166.78C39.6558 159.486 45.5684 153.574 52.8619 153.574C60.1555 153.574 66.0681 159.486 66.0681 166.78Z"
    fill="#D1BB9F" stroke="#FAF9F8" />
  <path
    d="M57.7326 161.522C60.4227 164.212 60.4227 168.573 57.7326 171.263C55.0426 173.953 50.6811 173.953 47.991 171.263C45.3009 168.573 45.3009 164.212 47.991 161.522C50.6811 158.832 55.0426 158.832 57.7326 161.522Z"
    fill="#FAF9F8" stroke="#FAF9F8" />
  <path
    d="M55.9224 162.002C55.7853 161.933 54.9159 161.53 54.0873 162.218C53.2951 162.875 53.0157 164.03 52.8292 164.807C52.8179 164.852 52.8058 164.906 52.791 164.968L50.8388 164.703L50.7234 165.237L52.6695 165.497C52.601 165.799 52.5194 166.16 52.4318 166.545L50.5707 166.296L50.4544 166.828L52.3103 167.08C52.0579 168.183 51.7811 169.34 51.6353 169.798C51.5208 170.161 51.1624 170.731 50.8267 170.708C50.2766 170.668 50.326 170.274 50.1091 170.132C49.8922 169.991 49.6623 170.152 49.6137 170.368C49.5651 170.584 49.9365 170.912 50.221 170.963C50.7668 171.062 51.2778 170.974 51.8574 170.462C52.3624 170.015 52.7945 168.666 53.0105 167.838C53.0556 167.665 53.1077 167.444 53.1624 167.195L55.0825 167.456L55.1987 166.923L53.2752 166.663C53.3472 166.315 53.4209 165.95 53.4877 165.612L55.2517 165.85L55.3671 165.317L53.5945 165.077C53.6491 164.805 53.6951 164.577 53.7281 164.428C54.0283 163.077 54.4656 162.139 54.9428 162.142C55.3098 162.142 55.3844 162.362 55.5614 162.576C55.7618 162.821 56.0204 162.861 56.154 162.642C56.3163 162.381 56.0603 162.072 55.9224 162.002Z"
    fill="black" />
  <path d="M74.5801 93.5348C81.5645 92.3037 81.6908 92.2623 88.4865 93.0826" stroke="#423B3C" />
  <path d="M97.5535 92.9116C104.62 92.3101 104.75 92.2802 111.445 93.7049" stroke="#423B3C" />
</svg>