<svg width="181" height="264" viewBox="0 0 181 264" fill="none" xmlns="http://www.w3.org/2000/svg">
  <rect x="0.762695" width="180" height="264" rx="16" fill="#EB9F59" />
  <path
    d="M51.8349 220.234C51.0989 220.234 50.4375 220.063 49.8509 219.722C49.2749 219.38 48.8215 218.9 48.4909 218.282C48.1602 217.652 47.9949 216.916 47.9949 216.074C47.9949 215.231 48.1602 214.5 48.4909 213.882C48.8322 213.263 49.2909 212.783 49.8669 212.442C50.4429 212.09 51.0989 211.914 51.8349 211.914C52.8482 211.914 53.6642 212.17 54.2829 212.682C54.9122 213.183 55.3122 213.876 55.4829 214.762H53.7069C53.6002 214.378 53.3815 214.074 53.0509 213.85C52.7309 213.626 52.3202 213.514 51.8189 213.514C51.4562 213.514 51.1095 213.61 50.7789 213.802C50.4589 213.994 50.1975 214.282 49.9949 214.666C49.8029 215.039 49.7069 215.508 49.7069 216.074C49.7069 216.628 49.8029 217.098 49.9949 217.482C50.1975 217.866 50.4589 218.159 50.7789 218.362C51.1095 218.554 51.4562 218.65 51.8189 218.65C52.3309 218.65 52.7415 218.538 53.0509 218.314C53.3602 218.09 53.5789 217.78 53.7069 217.386H55.4829C55.2695 218.26 54.8535 218.954 54.2349 219.466C53.6162 219.978 52.8162 220.234 51.8349 220.234ZM57.6846 220.042V208.522H59.3806V213.29C59.5939 212.895 59.9353 212.57 60.4046 212.314C60.8739 212.047 61.4019 211.914 61.9886 211.914C62.9699 211.914 63.7166 212.212 64.2286 212.81C64.7406 213.396 64.9966 214.244 64.9966 215.354V220.042H63.3006V215.594C63.3006 214.932 63.1406 214.42 62.8206 214.058C62.5006 213.695 62.0579 213.514 61.4926 213.514C60.9059 213.514 60.4046 213.711 59.9886 214.106C59.5833 214.5 59.3806 215.071 59.3806 215.818V220.042H57.6846ZM70.7504 210.89C70.377 210.89 70.0624 210.772 69.8064 210.538C69.561 210.292 69.4384 209.994 69.4384 209.642C69.4384 209.29 69.561 208.996 69.8064 208.762C70.0624 208.527 70.377 208.41 70.7504 208.41C71.1344 208.41 71.449 208.527 71.6944 208.762C71.9504 208.996 72.0784 209.29 72.0784 209.642C72.0784 209.994 71.9504 210.292 71.6944 210.538C71.449 210.772 71.1344 210.89 70.7504 210.89ZM67.5664 220.042V218.57H70.0624V214.106C70.0624 213.754 69.8917 213.578 69.5504 213.578H67.7904V212.106H69.8544C70.5157 212.106 70.9957 212.26 71.2944 212.57C71.6037 212.868 71.7584 213.348 71.7584 214.01V218.57H74.2544V220.042H67.5664ZM80.6161 220.234C79.8801 220.234 79.2188 220.063 78.6321 219.722C78.0561 219.38 77.6028 218.9 77.2721 218.282C76.9414 217.652 76.7761 216.916 76.7761 216.074C76.7761 215.231 76.9414 214.5 77.2721 213.882C77.6134 213.263 78.0721 212.783 78.6481 212.442C79.2241 212.09 79.8801 211.914 80.6161 211.914C81.6294 211.914 82.4454 212.17 83.0641 212.682C83.6934 213.183 84.0934 213.876 84.2641 214.762H82.4881C82.3814 214.378 82.1628 214.074 81.8321 213.85C81.5121 213.626 81.1014 213.514 80.6001 213.514C80.2374 213.514 79.8908 213.61 79.5601 213.802C79.2401 213.994 78.9788 214.282 78.7761 214.666C78.5841 215.039 78.4881 215.508 78.4881 216.074C78.4881 216.628 78.5841 217.098 78.7761 217.482C78.9788 217.866 79.2401 218.159 79.5601 218.362C79.8908 218.554 80.2374 218.65 80.6001 218.65C81.1121 218.65 81.5228 218.538 81.8321 218.314C82.1414 218.09 82.3601 217.78 82.4881 217.386H84.2641C84.0508 218.26 83.6348 218.954 83.0161 219.466C82.3974 219.978 81.5974 220.234 80.6161 220.234ZM86.8659 220.042V208.522H88.5619V215.434L91.6019 212.106H93.7299L90.4179 215.626V215.754L94.1619 220.042H92.0979L88.5619 215.962V220.042H86.8659ZM99.7876 220.234C99.0196 220.234 98.3423 220.063 97.7556 219.722C97.1689 219.37 96.7103 218.884 96.3796 218.266C96.0489 217.647 95.8836 216.927 95.8836 216.106C95.8836 215.274 96.0436 214.543 96.3636 213.914C96.6943 213.284 97.1529 212.794 97.7396 212.442C98.3369 212.09 99.0249 211.914 99.8036 211.914C100.572 211.914 101.233 212.09 101.788 212.442C102.342 212.783 102.769 213.242 103.068 213.818C103.377 214.394 103.532 215.028 103.532 215.722C103.532 215.828 103.532 215.946 103.532 216.074C103.532 216.191 103.526 216.324 103.516 216.474H97.5476C97.6009 217.21 97.8409 217.77 98.2676 218.154C98.6943 218.527 99.1956 218.714 99.7716 218.714C100.273 218.714 100.668 218.612 100.956 218.41C101.254 218.196 101.473 217.908 101.612 217.546H103.324C103.132 218.303 102.732 218.943 102.124 219.466C101.516 219.978 100.737 220.234 99.7876 220.234ZM99.7876 213.386C99.2649 213.386 98.8009 213.546 98.3956 213.866C97.9903 214.175 97.7289 214.612 97.6116 215.178H101.836C101.793 214.644 101.585 214.212 101.212 213.882C100.838 213.551 100.364 213.386 99.7876 213.386ZM105.733 220.042V212.106H107.205L107.349 213.29H107.429C107.643 212.906 107.973 212.58 108.421 212.314C108.869 212.047 109.387 211.914 109.973 211.914C110.944 211.914 111.675 212.207 112.165 212.794C112.656 213.38 112.901 214.244 112.901 215.386V220.042H111.205V215.594C111.205 214.932 111.067 214.42 110.789 214.058C110.512 213.695 110.075 213.514 109.477 213.514C108.891 213.514 108.4 213.711 108.005 214.106C107.621 214.5 107.429 215.071 107.429 215.818V220.042H105.733ZM128.313 210.89C127.94 210.89 127.625 210.772 127.369 210.538C127.124 210.292 127.001 209.994 127.001 209.642C127.001 209.29 127.124 208.996 127.369 208.762C127.625 208.527 127.94 208.41 128.313 208.41C128.697 208.41 129.012 208.527 129.257 208.762C129.513 208.996 129.641 209.29 129.641 209.642C129.641 209.994 129.513 210.292 129.257 210.538C129.012 210.772 128.697 210.89 128.313 210.89ZM125.129 220.042V218.57H127.625V214.106C127.625 213.754 127.454 213.578 127.113 213.578H125.353V212.106H127.417C128.078 212.106 128.558 212.26 128.857 212.57C129.166 212.868 129.321 213.348 129.321 214.01V218.57H131.817V220.042H125.129ZM134.515 220.042V212.106H135.987L136.131 213.29H136.211C136.424 212.906 136.755 212.58 137.203 212.314C137.651 212.047 138.168 211.914 138.755 211.914C139.725 211.914 140.456 212.207 140.947 212.794C141.437 213.38 141.683 214.244 141.683 215.386V220.042H139.987V215.594C139.987 214.932 139.848 214.42 139.571 214.058C139.293 213.695 138.856 213.514 138.259 213.514C137.672 213.514 137.181 213.711 136.787 214.106C136.403 214.5 136.211 215.071 136.211 215.818V220.042H134.515Z"
    fill="#423B3C" />
  <path
    d="M111.335 179.548C105.347 182.101 98.7908 183.409 92.1562 183.409C80.4314 183.393 69.5576 179.233 60.9846 172.283C51.3715 164.467 44.7055 153.136 43.1138 140.15C42.2313 132.901 43.0192 125.731 44.4218 118.639C47.6524 102.297 53.0105 86.7112 61.2998 72.2128C65.4917 64.8848 70.3771 58.0926 77.2165 52.9551C87.0187 45.5956 97.5773 45.6271 107.332 53.0654C114.046 58.1871 118.915 64.869 123.013 72.1182C127.835 80.6597 131.775 89.5163 134.8 98.6723C137.763 107.592 139.859 116.795 141.12 126.282C144.193 149.511 132.295 170.629 111.335 179.548Z"
    fill="#FAF9F8" />
  <path
    d="M127.617 174.299C127.617 181.593 121.704 187.505 114.411 187.505C107.117 187.505 101.205 181.593 101.205 174.299C101.205 167.005 107.117 161.093 114.411 161.093C121.704 161.093 127.617 167.005 127.617 174.299Z"
    fill="#D1BB9F" stroke="#FAF9F8" />
  <path
    d="M119.281 169.041C121.972 171.731 121.972 176.092 119.281 178.782C116.591 181.473 112.23 181.473 109.54 178.782C106.85 176.092 106.85 171.731 109.54 169.041C112.23 166.351 116.591 166.351 119.281 169.041Z"
    fill="#FAF9F8" stroke="#FAF9F8" />
  <g clip-path="url(#clip0_700_2740)">
    <path
      d="M116.942 170.108C116.831 170.046 116.126 169.683 115.455 170.302C114.813 170.894 114.587 171.934 114.435 172.633C114.426 172.674 114.416 172.723 114.405 172.779L112.822 172.54L112.729 173.021L114.306 173.255C114.251 173.527 114.184 173.852 114.113 174.198L112.605 173.974L112.511 174.454L114.015 174.68C113.81 175.673 113.586 176.715 113.468 177.128C113.375 177.455 113.085 177.968 112.813 177.947C112.367 177.912 112.407 177.556 112.231 177.429C112.055 177.301 111.869 177.447 111.83 177.641C111.79 177.836 112.091 178.131 112.322 178.176C112.764 178.265 113.178 178.187 113.648 177.726C114.057 177.323 114.407 176.108 114.582 175.363C114.619 175.207 114.661 175.008 114.705 174.784L116.261 175.019L116.356 174.539L114.797 174.305C114.855 173.992 114.915 173.663 114.969 173.358L116.399 173.573L116.492 173.093L115.056 172.877C115.1 172.632 115.137 172.426 115.164 172.293C115.407 171.076 115.762 170.231 116.148 170.234C116.446 170.234 116.506 170.432 116.65 170.625C116.812 170.846 117.022 170.882 117.13 170.684C117.261 170.449 117.054 170.171 116.942 170.108Z"
      fill="black" />
  </g>
  <rect x="110.5" y="169.577" width="8" height="9" stroke="#FAF9F8" />
  <path d="M48.1167 181.917L14.1504 187.171L48.5101 185.726L48.1167 181.917Z" fill="#F2EAE4" />
  <path d="M57.821 153.415L10.478 163.003L58.4767 157.224L57.821 153.415Z" fill="#F2EAE4" />
  <path d="M71.7221 134.501L33.0347 144.746L72.509 138.178L71.7221 134.501Z" fill="#F2EAE4" />
  <path d="M57.6899 147.11L11.7896 158.275L58.4768 150.919L57.6899 147.11Z" fill="#F2EAE4" />
  <path d="M90.7379 124.65L22.0186 142.513L91.3937 127.014L90.7379 124.65Z" fill="#F2EAE4" />
  <path d="M67.1322 139.361L22.4121 150.131L67.7879 143.17L67.1322 139.361Z" fill="#F2EAE4" />
  <path
    d="M79.1971 154.597C79.3283 154.597 79.4594 154.728 79.5905 154.86C79.5905 154.991 79.7217 154.991 79.7217 155.122C79.7217 155.254 79.8528 155.385 79.7217 155.516C79.7217 155.648 79.5905 155.779 79.4594 155.779C79.3283 155.779 79.1971 155.779 79.066 155.779C78.9348 155.779 78.8037 155.648 78.6725 155.648C78.6725 155.648 78.5414 155.648 78.5414 155.516C78.5414 155.516 78.4103 155.516 78.4103 155.385C78.2791 155.254 78.148 155.122 78.0168 154.86C77.8857 154.728 77.8857 154.466 78.0168 154.466C78.0168 154.334 78.148 154.334 78.148 154.334V154.466C78.148 154.597 78.148 154.728 78.2791 154.86C78.4103 154.991 78.5414 155.122 78.6725 155.254C78.6725 155.254 78.8037 155.254 78.8037 155.385C78.8037 155.385 78.9348 155.385 78.9348 155.516C79.066 155.516 79.1971 155.648 79.1971 155.648C79.3283 155.648 79.4594 155.648 79.4594 155.648C79.5905 155.648 79.5905 155.648 79.5905 155.516C79.5905 155.516 79.5905 155.385 79.5905 155.254C79.5905 155.122 79.5905 155.122 79.4594 154.991C79.3283 154.728 79.1971 154.597 79.1971 154.597Z"
    fill="#E3CEBF" />
  <path
    d="M69.3615 150.919C72.3778 150.262 75.5253 149.474 78.6727 148.686C78.935 148.686 79.1973 148.555 79.4596 148.555C79.4596 148.686 79.5908 148.686 79.5908 148.817C74.6073 149.868 70.4107 150.788 67.9189 151.313C68.3124 151.182 68.837 151.05 69.3615 150.919Z"
    fill="#E3CEBF" />
  <path
    d="M73.4271 155.648C73.5582 155.648 73.6894 155.779 73.8205 155.91C73.8205 156.042 73.9517 156.042 73.9517 156.173C73.9517 156.304 73.9517 156.436 73.9517 156.567C73.9517 156.698 73.8205 156.83 73.6894 156.83C73.5582 156.83 73.4271 156.83 73.2959 156.83C73.0337 156.83 72.9025 156.698 72.6402 156.567C72.5091 156.436 72.3779 156.304 72.2468 156.042C72.1157 155.91 72.1157 155.779 72.2468 155.648C72.2468 155.516 72.3779 155.516 72.3779 155.516C72.3779 155.516 72.3779 155.516 72.3779 155.648C72.3779 155.779 72.3779 155.91 72.5091 156.042C72.6402 156.173 72.7714 156.304 72.9025 156.436C72.9025 156.436 73.0337 156.436 73.0337 156.567H73.1648C73.2959 156.567 73.2959 156.698 73.4271 156.698C73.5582 156.698 73.5582 156.698 73.6894 156.698C73.8205 156.698 73.8205 156.698 73.8205 156.567C73.8205 156.567 73.8205 156.436 73.8205 156.304C73.8205 156.173 73.8205 156.173 73.6894 156.042C73.5582 155.91 73.4271 155.779 73.4271 155.648Z"
    fill="#E3CEBF" />
  <path
    d="M90.738 152.232C90.8691 152.232 91.0003 152.364 91.1314 152.495C91.2626 152.626 91.2626 152.626 91.2626 152.758C91.2626 152.889 91.3937 153.021 91.2626 153.152C91.2626 153.283 91.0003 153.415 90.8691 153.415C90.738 153.415 90.6069 153.415 90.4757 153.415C90.3446 153.415 90.2134 153.283 90.0823 153.283C90.0823 153.283 89.9511 153.283 89.9511 153.152L89.82 153.021C89.5577 152.889 89.4266 152.626 89.4266 152.495C89.2954 152.364 89.2954 152.101 89.2954 151.97C89.2954 151.838 89.4266 151.838 89.4266 151.838V151.97C89.4266 152.101 89.4266 152.232 89.5577 152.364C89.6888 152.495 89.82 152.626 90.0823 152.758C90.0823 152.758 90.2134 152.758 90.2134 152.889C90.2134 152.889 90.3446 152.889 90.3446 153.021C90.4757 153.021 90.6069 153.152 90.738 153.152C90.8691 153.152 91.0003 153.152 91.0003 153.152C91.1314 153.152 91.1314 153.152 91.2626 153.021C91.2626 153.021 91.2626 152.889 91.2626 152.758C91.2626 152.626 91.2626 152.626 91.1314 152.495C90.8691 152.495 90.738 152.364 90.738 152.232Z"
    fill="#E3CEBF" />
  <path
    d="M65.5581 148.555C65.6892 148.555 65.6893 148.555 65.8204 148.555C65.8204 148.555 65.8204 148.555 65.8204 148.686C65.8204 148.686 65.6892 148.686 65.5581 148.555Z"
    fill="#E3CEBF" />
  <path
    d="M78.4101 147.504C75.2626 148.161 71.984 148.686 68.9677 149.212C68.7054 149.212 68.5743 149.343 68.312 149.343C69.4923 149.08 70.6726 148.818 71.8529 148.555C74.2135 148.03 76.7052 147.373 78.9347 146.847C78.9347 146.979 78.9347 147.11 79.0658 147.373C78.8035 147.373 78.6724 147.373 78.4101 147.504Z"
    fill="#E3CEBF" />
  <path
    d="M79.9839 148.424C84.4428 147.373 88.9017 146.322 92.7049 145.534C92.836 145.665 92.836 145.928 92.9671 146.059C88.6394 146.979 84.1805 147.898 80.115 148.686C80.115 148.555 79.9839 148.424 79.9839 148.424Z"
    fill="#E3CEBF" />
  <path
    d="M66.4761 148.424C66.7384 148.292 67.1318 148.292 67.3941 148.161C71.4595 147.11 75.6561 146.191 78.6725 145.403C78.8036 145.403 78.8036 145.403 78.9347 145.403C78.9347 145.665 78.9347 145.928 78.9347 146.191C76.5742 146.585 74.0824 147.11 71.7218 147.504C69.8858 147.898 68.1809 148.161 66.4761 148.424Z"
    fill="#E3CEBF" />
  <path
    d="M64.5092 141.068C63.9846 140.805 63.1978 140.28 62.2797 139.755C61.3617 139.229 60.3126 138.441 59.2634 137.784C58.2143 136.996 57.034 136.208 55.8537 135.42C54.6734 134.632 53.4931 133.844 52.444 133.056C51.3948 132.268 50.3457 131.611 49.4276 130.954C48.5096 130.298 47.8539 129.772 47.3293 129.51C47.8539 129.904 48.6408 130.298 49.5588 130.954C50.4768 131.48 51.526 132.268 52.5751 132.925C53.6243 133.713 54.8045 134.501 55.9848 135.289C57.1651 136.077 58.3454 136.865 59.3946 137.653C60.4437 138.441 61.4929 139.098 62.4109 139.755C63.3289 140.149 63.9846 140.674 64.5092 141.068Z"
    fill="#E3CEBF" />
  <path
    d="M84.9678 135.157C84.5743 135.289 84.0498 135.42 83.6563 135.552C81.558 136.077 79.722 136.602 78.5417 136.996C77.3614 137.39 76.5746 137.522 76.5746 137.522C76.5746 137.522 77.2303 137.39 78.5417 136.996C79.1974 136.865 79.9843 136.602 80.7712 136.34C81.6892 136.077 82.6072 135.814 83.6563 135.552C83.9186 135.42 84.1809 135.42 84.4432 135.289C83.7875 135.814 83.0006 136.602 82.476 137.522C80.3777 140.805 79.1974 142.907 78.9352 144.877C78.804 144.877 78.6729 144.877 78.6729 144.877C75.5254 145.403 71.3288 146.191 67.2633 146.979C67.1322 146.979 66.8699 147.11 66.7388 147.11C67.2633 145.403 68.5748 143.301 70.5419 140.411C71.8534 138.441 73.6894 137.522 74.8697 137.128C76.7057 136.602 80.7712 135.683 81.8203 135.42L85.6235 134.501C85.3612 134.895 85.0989 135.026 84.9678 135.157Z"
    fill="#E3CEBF" />
  <path
    d="M102.278 150C102.409 150 102.541 150.131 102.803 150.262C102.934 150.394 102.934 150.525 103.065 150.656C103.065 150.788 103.196 150.919 103.065 151.182C103.065 151.313 102.803 151.444 102.672 151.576C102.541 151.576 102.278 151.576 102.147 151.576C102.016 151.576 101.885 151.444 101.754 151.444C101.623 151.444 101.623 151.313 101.491 151.313L101.36 151.182C101.098 151.05 100.967 150.788 100.836 150.525C100.705 150.262 100.705 150.131 100.705 150C100.705 149.868 100.836 149.868 100.836 149.868V150C100.836 150.131 100.836 150.262 100.967 150.394C101.098 150.525 101.229 150.656 101.491 150.919C101.491 150.919 101.623 150.919 101.623 151.05C101.623 151.05 101.754 151.05 101.754 151.182C101.885 151.182 102.016 151.313 102.147 151.313C102.278 151.313 102.409 151.313 102.541 151.313C102.672 151.313 102.672 151.313 102.803 151.182C102.803 151.182 102.803 151.05 102.803 150.919C102.803 150.788 102.672 150.656 102.672 150.656C102.409 150.262 102.278 150.131 102.278 150Z"
    fill="#E3CEBF" />
  <path
    d="M66.083 147.635C65.9518 147.635 65.9518 147.635 65.8207 147.635C65.8207 147.504 65.9518 147.241 65.9518 147.11C65.9518 146.979 65.9518 146.847 66.083 146.716C66.083 146.585 66.2141 146.453 66.2141 146.322C66.3453 146.059 66.4764 145.797 66.6075 145.534C67.1321 144.483 67.6567 143.432 68.1813 142.644C68.5747 141.856 68.9681 141.331 68.9681 141.331C68.9681 141.331 68.5747 141.856 68.0501 142.513C67.5256 143.301 66.8698 144.22 66.2141 145.271C66.083 145.534 65.9518 145.797 65.6895 146.059C65.6895 146.191 65.5584 146.322 65.5584 146.322C65.5584 146.453 65.4272 146.585 65.4272 146.716C65.2961 146.979 65.2961 147.241 65.165 147.635C65.0338 148.292 64.9027 148.818 64.7715 149.474C64.7715 149.737 64.7715 150.131 64.7715 150.394C64.7715 150.656 64.7715 151.05 64.7715 151.313C64.7715 151.576 64.9027 151.97 64.9027 152.233C65.0338 152.495 65.0338 152.758 65.165 153.021C65.2961 153.283 65.2961 153.415 65.4272 153.677C65.5584 153.809 65.5584 154.071 65.6895 154.203C65.5584 154.071 65.4273 153.94 65.2961 153.809C65.165 153.677 65.0338 153.415 64.9027 153.152C64.7715 152.889 64.6404 152.627 64.5092 152.364C64.3781 152.101 64.3781 151.839 64.247 151.445C64.247 151.182 64.1158 150.788 64.1158 150.394C64.1158 150 64.1158 149.737 64.1158 149.343C64.1158 149.212 64.1158 149.08 64.1158 148.949C64.1158 148.686 64.247 148.555 64.247 148.424C64.247 148.292 64.3781 148.161 64.3781 148.029C63.3289 148.292 62.1487 148.424 61.0995 148.555C60.5749 148.686 60.1815 148.686 59.6569 148.818C59.3946 148.818 59.2635 148.818 59.0012 148.949L60.0504 148.029L65.0338 145.665C64.9027 145.665 64.7715 145.797 64.6404 145.797C64.247 145.928 63.7224 146.059 62.9355 146.322C62.2798 146.453 61.3618 146.716 60.5749 146.979C59.6569 147.241 58.7389 147.373 57.8209 147.635C56.9029 147.898 55.9849 148.029 55.0669 148.292C54.1489 148.424 53.362 148.686 52.7063 148.818C52.0506 148.949 51.3949 149.08 51.0014 149.08C50.608 148.949 50.3457 148.949 50.3457 148.949C50.3457 148.949 50.608 148.818 51.0014 148.818C51.3949 148.686 51.9194 148.555 52.7063 148.292C53.362 148.161 54.28 147.898 55.0669 147.635C55.9849 147.373 56.9029 147.241 57.8209 146.979C58.7389 146.716 59.6569 146.585 60.5749 146.322C61.2306 146.191 61.8864 146.059 62.4109 145.928L67.2633 141.856C67.2633 141.856 66.7387 141.462 65.9518 140.937L68.0501 140.28L66.2141 140.543L68.7058 139.755L64.9027 140.411C64.1158 139.886 63.1978 139.229 62.1487 138.572C62.1487 138.441 62.0175 138.441 61.8864 138.31L70.0173 136.077L63.1978 137.39C65.4272 136.865 67.919 136.208 70.673 135.551C71.3287 135.42 71.9844 135.551 72.6402 135.945C72.6402 135.945 72.6402 135.945 72.509 136.077C72.2467 136.471 71.8533 136.865 71.4599 137.39C71.0664 137.916 70.8042 138.441 70.5419 138.835C70.2796 139.229 70.1484 139.492 70.1484 139.492C70.1484 139.492 70.2796 139.229 70.673 138.966C70.9353 138.704 71.4599 138.31 71.8533 137.916C72.3779 137.522 72.7713 137.259 73.1647 136.996C73.2959 136.996 73.2959 136.865 73.427 136.865C73.5582 136.996 73.6893 137.128 73.8205 137.259C72.6402 137.784 71.1976 138.835 70.1484 140.411C67.919 143.432 66.6075 145.665 66.083 147.635Z"
    fill="#E3CEBF" />
  <path
    d="M84.9675 153.415C85.0986 153.415 85.2298 153.546 85.3609 153.677C85.3609 153.809 85.4921 153.809 85.4921 153.94C85.4921 154.072 85.6232 154.203 85.4921 154.334C85.4921 154.466 85.2298 154.597 85.0986 154.597C84.9675 154.597 84.8363 154.597 84.7052 154.597C84.574 154.597 84.4429 154.466 84.3118 154.466C84.3118 154.466 84.1806 154.466 84.1806 154.334L84.0495 154.203C83.9183 154.072 83.656 153.809 83.656 153.677C83.5249 153.546 83.5249 153.283 83.5249 153.152C83.5249 153.021 83.656 153.021 83.656 153.021V153.152C83.656 153.283 83.656 153.415 83.7872 153.546C83.9183 153.677 84.0495 153.809 84.1806 153.94C84.1806 153.94 84.3118 153.94 84.3118 154.072C84.3118 154.072 84.4429 154.072 84.4429 154.203C84.574 154.203 84.7052 154.334 84.7052 154.334C84.8363 154.334 84.9675 154.334 84.9675 154.334C85.0986 154.334 85.0986 154.334 85.0986 154.203C85.0986 154.203 85.0986 154.072 85.0986 153.94C85.0986 153.809 85.0986 153.809 84.9675 153.677C85.0986 153.546 84.9675 153.546 84.9675 153.415Z"
    fill="#E3CEBF" />
  <path
    d="M52.9683 145.534C53.3618 145.928 53.6241 146.191 53.6241 146.191C53.6241 146.191 53.3618 146.059 52.9683 145.534C52.4438 145.14 51.7881 144.614 51.0012 143.826C50.2143 143.038 49.2963 142.25 48.3783 141.331C47.4603 140.411 46.4112 139.361 45.362 138.441C44.3129 137.39 43.3948 136.471 42.4768 135.552C41.5588 134.632 40.6408 133.713 39.9851 132.925C39.1982 132.136 38.6737 131.48 38.2802 131.086C38.6737 131.48 39.3294 132.136 40.1162 132.793C40.9031 133.581 41.8211 134.369 42.7391 135.289C43.6571 136.208 44.7063 137.259 45.7554 138.178C46.8046 139.229 47.7226 140.149 48.6406 141.068C49.5586 141.988 50.4766 142.907 51.1323 143.695C51.9192 144.483 52.5749 145.14 52.9683 145.534Z"
    fill="#E3CEBF" />
  <path
    d="M83.1314 138.178C84.0494 136.733 85.0986 135.814 86.1477 135.157C86.5412 135.026 86.8034 135.026 87.1969 134.895C88.3772 134.632 89.6886 134.238 91.1312 133.975C93.3606 133.45 95.8524 132.924 98.213 132.268C97.5572 132.924 96.7704 133.844 95.9835 134.895C92.8361 139.623 91.9181 142.119 92.7049 144.746C88.7706 145.402 84.3117 146.19 79.8528 147.11C79.8528 146.979 79.8528 146.716 79.7217 146.584C81.9511 146.059 84.0494 145.534 85.8854 145.14C89.6886 144.352 92.1803 143.695 92.1803 143.695C92.1803 143.695 89.6886 144.089 85.8854 144.746C84.0494 145.008 81.9511 145.402 79.7217 145.796C79.7217 145.534 79.7217 145.271 79.8528 145.008C82.4757 144.352 84.1806 144.089 84.1806 144.089C84.1806 144.089 82.4757 144.352 79.8528 144.877C79.984 143.301 81.0331 141.199 83.1314 138.178Z"
    fill="#E3CEBF" />
  <path
    d="M97.5575 157.486C96.6395 157.749 95.7215 157.88 94.6724 158.143C93.6232 158.406 92.5741 158.668 91.3938 158.931C90.2135 159.194 89.0332 159.457 87.8529 159.588C86.6726 159.851 85.4923 159.982 84.1809 160.245C83.0006 160.507 81.6891 160.639 80.5088 160.901C79.3285 161.033 78.1482 161.295 76.968 161.427C75.7877 161.558 74.7385 161.689 73.6893 161.821C72.6402 161.952 71.591 161.952 70.673 162.083C69.755 162.083 68.837 162.215 68.1813 162.215C67.3944 162.215 66.7387 162.215 66.2141 162.215C65.165 162.215 64.5093 162.215 64.5093 162.215C64.5093 162.215 65.165 162.215 66.2141 162.083C66.7387 162.083 67.3944 162.084 68.1813 161.952C68.9682 161.952 69.755 161.821 70.673 161.689C71.591 161.558 72.6402 161.427 73.6893 161.427C74.7385 161.295 75.7877 161.164 76.968 161.033C78.1482 160.901 79.3285 160.639 80.5088 160.507C81.6891 160.245 82.8694 160.113 84.1809 159.851C85.3612 159.588 86.6726 159.457 87.8529 159.194C89.0332 158.931 90.2135 158.8 91.3938 158.537C92.5741 158.274 93.6232 158.143 94.6724 157.88C95.7215 157.618 96.6395 157.486 97.5575 157.224C99.3936 156.83 100.836 156.436 101.885 156.173C102.934 155.91 103.59 155.779 103.59 155.779C103.59 155.779 102.934 155.91 102.016 156.173C100.836 156.698 99.3936 157.092 97.5575 157.486Z"
    fill="#E3CEBF" />
  <path
    d="M96.5081 151.182C96.6392 151.182 96.7704 151.313 96.9015 151.444C97.0327 151.576 97.0327 151.576 97.0327 151.707C97.0327 151.838 97.1638 151.97 97.0327 152.232C97.0327 152.364 96.7704 152.495 96.6392 152.495C96.5081 152.495 96.3769 152.495 96.1147 152.495C95.9835 152.495 95.8524 152.364 95.7212 152.364C95.5901 152.364 95.5901 152.232 95.5901 152.232L95.4589 152.101C95.1967 151.97 95.0655 151.707 94.9344 151.576C94.8032 151.313 94.8032 151.182 94.8032 151.05C94.8032 150.919 94.9344 150.919 94.9344 150.919V151.05C94.9344 151.182 94.9344 151.313 95.0655 151.444C95.1967 151.576 95.3278 151.707 95.5901 151.838C95.5901 151.838 95.7212 151.838 95.7212 151.97C95.7212 151.97 95.8524 151.97 95.8524 152.101C95.9835 152.101 96.1147 152.232 96.2458 152.232C96.3769 152.232 96.5081 152.232 96.6392 152.232C96.7704 152.232 96.7704 152.232 96.9015 152.101C96.9015 152.101 96.9015 151.97 96.9015 151.838C96.9015 151.707 96.9015 151.707 96.7704 151.576C96.6392 151.313 96.5081 151.182 96.5081 151.182Z"
    fill="#E3CEBF" />
  <path
    d="M53.7554 157.618C55.3292 157.355 57.034 157.093 58.2143 156.83C59.3946 156.567 60.3126 156.436 60.3126 156.436C60.3126 156.436 59.5258 156.567 58.3455 156.83C57.1652 157.093 55.4603 157.355 53.8866 157.749C53.4932 157.881 53.0997 157.881 52.7063 157.881C52.3129 157.881 51.9194 157.749 51.526 157.618C51.1326 157.487 50.8703 157.355 50.4768 157.093C50.2146 156.83 49.9523 156.698 49.69 156.436C49.2965 155.91 49.0343 155.516 48.9031 155.122C48.772 154.991 48.772 154.86 48.772 154.728C48.772 154.86 48.9031 154.991 48.9031 155.122C49.0343 155.254 49.1654 155.516 49.2966 155.648C49.4277 155.91 49.5588 156.042 49.8211 156.304C50.0834 156.567 50.3457 156.698 50.608 156.961C50.8703 157.093 51.2637 157.355 51.526 157.487C51.9194 157.618 52.3129 157.749 52.7063 157.749C52.9686 157.749 53.0997 157.749 53.362 157.749C53.362 157.749 53.6243 157.749 53.7554 157.618Z"
    fill="#E3CEBF" />
  <path
    d="M52.4439 173.642L41.8213 187.04C41.8213 187.04 44.5753 187.434 48.2473 187.04C50.2145 185.989 54.6734 183.231 64.1157 175.481C67.6566 172.592 70.5418 170.227 73.0335 168.388L68.7058 171.278L73.427 167.338H73.2958C72.9024 167.469 72.3778 167.6 71.9844 167.732C71.4598 167.863 71.0664 167.994 70.5418 167.994C69.4927 168.257 68.4435 168.388 67.2632 168.651C62.8043 169.439 58.3454 169.833 58.3454 169.833C58.3454 169.833 62.8043 169.045 67.2632 168.126C68.3124 167.863 69.4926 167.6 70.4107 167.338C70.9352 167.206 71.4598 167.075 71.8532 166.944C71.9844 166.944 71.9844 166.944 72.1155 166.812C66.0829 168.126 60.3126 168.914 57.4274 169.308L59.2634 166.287L55.8537 170.753L43.2639 186.383L52.4439 173.642ZM48.5096 182.705C48.5096 182.705 49.2965 182.311 50.3456 181.655C50.8702 181.392 51.5259 180.998 52.3128 180.604C52.9685 180.21 53.7554 179.816 54.5422 179.422C55.3291 179.028 56.116 178.634 56.7717 178.371C57.4274 177.977 58.2143 177.714 58.7389 177.451C59.9191 176.926 60.706 176.532 60.706 176.532C60.706 176.532 59.9191 176.926 58.87 177.583C58.3454 177.845 57.6897 178.239 56.9028 178.634C56.2471 179.028 55.4603 179.422 54.6734 179.816C53.8865 180.21 53.0997 180.604 52.4439 180.866C51.7882 181.261 51.0014 181.523 50.4768 181.786C49.2965 182.311 48.5096 182.705 48.5096 182.705ZM47.4605 182.443C47.4605 182.443 47.7228 182.311 48.1162 182.049C48.5096 181.786 49.1653 181.523 49.9522 180.998C50.7391 180.604 51.5259 180.078 52.5751 179.684C53.4931 179.159 54.5422 178.634 55.5914 178.108C56.6405 177.583 57.6897 177.057 58.6077 176.663C59.5257 176.138 60.4437 175.744 61.2306 175.35C62.0174 174.956 62.6732 174.693 63.0666 174.43C63.46 174.168 63.7223 174.168 63.7223 174.168C63.7223 174.168 63.46 174.299 63.0666 174.562C62.6732 174.824 62.0174 175.087 61.2306 175.481C60.4437 175.875 59.6569 176.401 58.6077 176.795C57.6897 177.32 56.6405 177.845 55.5914 178.371C54.5422 178.896 53.4931 179.422 52.5751 179.816C51.6571 180.341 50.7391 180.735 49.9522 181.129C49.1653 181.523 48.5096 181.786 48.1162 182.049C47.7228 182.443 47.4605 182.443 47.4605 182.443Z"
    fill="#E3CEBF" />
  <path d="M145.163 140.674L145.032 140.805C145.032 140.674 145.163 140.674 145.163 140.674Z"
    fill="#E3CEBF" />
  <path
    d="M113.95 145.008C116.049 146.322 117.622 148.029 119.458 148.949L126.147 147.635L122.081 149.343C125.098 148.292 127.065 147.767 127.065 147.767C127.065 147.767 126.409 147.241 126.016 146.059C125.753 145.271 125.622 144.746 125.622 144.746L135.327 142.513L126.671 143.826L135.327 141.856C135.327 141.593 135.327 141.331 135.327 140.937C135.327 140.805 135.327 140.543 135.327 140.411C135.327 140.28 135.327 140.28 135.327 140.149C135.327 140.017 135.327 140.017 135.327 139.886C135.327 139.492 135.327 139.098 135.458 138.704C135.589 138.31 135.589 137.784 135.72 137.39C135.72 137.128 135.851 136.996 135.851 136.734C135.851 136.471 135.982 136.339 136.114 136.077C136.245 135.683 136.376 135.289 136.638 134.895C136.769 134.632 136.769 134.501 136.9 134.238C137.032 134.107 137.163 133.844 137.163 133.713C137.425 133.318 137.556 133.056 137.818 132.662C138.081 132.399 138.212 132.005 138.474 131.874C139.392 130.823 140.048 130.297 140.048 130.297C140.048 130.297 139.786 130.56 139.392 130.954L142.146 132.662L139.13 131.217C138.999 131.48 138.736 131.611 138.605 131.874C138.474 132.136 138.212 132.399 138.081 132.793C137.95 133.187 137.687 133.45 137.556 133.844C137.425 133.975 137.425 134.238 137.294 134.369C137.294 134.501 137.163 134.632 137.163 134.632L140.704 135.42L136.9 135.289C136.769 135.551 136.769 135.814 136.638 136.208C136.638 136.471 136.507 136.602 136.507 136.865C136.507 137.128 136.507 137.259 136.376 137.522C136.376 137.916 136.376 138.31 136.245 138.704C136.245 139.098 136.245 139.492 136.245 139.886C136.245 140.017 136.245 140.017 136.245 140.149C136.245 140.28 136.245 140.28 136.245 140.411C136.245 140.543 136.245 140.805 136.376 140.937C136.376 141.199 136.376 141.462 136.507 141.725L140.966 140.674C141.359 135.157 143.064 132.924 143.982 132.005C141.884 130.823 139.392 129.378 136.9 128.327C136.769 128.327 136.769 128.459 136.638 128.459C135.851 128.327 135.064 128.065 134.146 127.802C133.228 127.539 132.31 127.408 131.524 127.276C131.786 127.014 132.048 126.882 132.31 126.751C131.655 126.62 130.868 126.488 130.212 126.357C129.294 126.226 128.114 126.226 126.671 126.357C125.753 126.62 124.179 127.408 122.737 129.772C118.671 136.077 118.409 137.916 121.163 142.119L121.294 142.381L98.6064 147.504L113.95 145.008ZM131.261 136.208C130.474 135.026 129.556 133.713 128.901 132.793C128.77 132.53 128.507 132.399 128.376 132.136L128.245 132.005C129.032 130.297 130.212 128.59 131.392 127.539C132.31 127.671 133.36 127.802 134.409 127.933C135.196 128.065 135.982 128.196 136.769 128.327C133.228 131.611 132.704 133.975 131.524 136.339C131.392 136.471 131.261 136.339 131.261 136.208ZM130.999 137.259C130.081 136.077 129.294 135.026 128.507 134.107C128.376 133.844 128.114 133.713 127.983 133.45C127.852 133.318 127.72 133.187 127.589 133.056C127.589 132.924 127.589 132.924 127.72 132.793C127.72 132.662 127.72 132.662 127.852 132.53C127.983 132.662 128.114 132.793 128.245 132.924C129.032 133.713 129.95 134.895 130.868 136.077C130.999 136.208 131.13 136.339 131.261 136.602C131.261 136.996 131.13 137.128 130.999 137.259ZM125.884 139.229L125.491 136.996C125.36 136.865 125.491 136.602 125.622 136.471C125.884 136.208 126.278 135.814 126.671 135.157C126.802 135.289 127.065 135.42 127.196 135.551C127.983 136.208 129.163 137.259 130.212 138.31C128.77 139.886 127.196 139.886 126.409 139.886C126.278 139.755 126.016 139.492 125.884 139.229ZM123.393 143.695C122.475 142.644 121.294 141.068 120.639 139.229C120.507 138.835 120.376 138.31 120.245 137.784C120.245 137.522 120.114 137.259 120.114 137.128C120.114 136.865 120.114 136.602 120.114 136.471C120.114 136.077 120.245 135.551 120.376 135.157C120.507 134.763 120.639 134.369 120.77 134.107C121.032 133.45 121.425 132.924 121.557 132.662C121.819 132.268 121.95 132.136 121.95 132.136C121.95 132.136 121.819 132.399 121.688 132.662C121.557 133.056 121.294 133.581 121.032 134.238C120.77 134.895 120.507 135.683 120.376 136.471C120.376 136.734 120.376 136.865 120.376 137.128C120.376 137.39 120.376 137.522 120.507 137.784C120.639 138.178 120.77 138.704 120.901 139.098C121.032 139.492 121.294 139.886 121.425 140.411C121.688 140.805 121.819 141.199 122.081 141.593C122.343 141.987 122.475 142.381 122.737 142.644C122.999 143.038 123.13 143.301 123.393 143.564C123.786 144.089 124.179 144.614 124.442 144.877C124.179 144.746 123.786 144.22 123.393 143.695Z"
    fill="#E3CEBF" />
  <path
    d="M108.049 148.818C108.18 148.818 108.442 148.949 108.573 149.08C108.704 149.212 108.704 149.343 108.835 149.474C108.835 149.606 108.967 149.737 108.835 150C108.835 150.131 108.573 150.262 108.442 150.394C108.311 150.394 108.049 150.394 107.917 150.394C107.786 150.394 107.655 150.262 107.393 150.262C107.262 150.262 107.262 150.131 107.131 150.131L106.999 150C106.737 149.868 106.606 149.606 106.475 149.343C106.344 149.08 106.344 148.949 106.344 148.818C106.344 148.686 106.475 148.686 106.475 148.686V148.818C106.475 148.949 106.606 149.08 106.606 149.343C106.737 149.474 106.868 149.737 107.131 149.868L107.262 150C107.262 150 107.393 150 107.393 150.131C107.524 150.131 107.655 150.262 107.786 150.262C107.917 150.262 108.049 150.262 108.18 150.262C108.311 150.262 108.311 150.131 108.442 150.131C108.442 150.131 108.442 150 108.442 149.868C108.442 149.737 108.311 149.606 108.311 149.606C108.18 149.08 108.049 148.949 108.049 148.818Z"
    fill="#E3CEBF" />
  <path
    d="M75.2632 169.833C76.05 169.177 76.8369 168.651 77.6238 167.994C77.8861 167.863 78.0172 167.732 78.2795 167.6C78.5418 167.469 78.6729 167.338 78.9352 167.206C79.3286 166.944 79.8532 166.681 80.2467 166.418C82.0827 165.499 84.0498 164.579 86.017 163.791C89.9513 162.215 93.8856 160.77 97.6888 159.457C101.361 158.143 104.902 156.961 107.918 156.042C110.934 155.122 113.426 154.334 115.262 153.809C116.967 153.283 118.016 153.021 118.016 153.021C118.016 153.021 116.967 153.283 115.262 153.94C113.557 154.466 111.065 155.385 108.049 156.304C105.033 157.355 101.492 158.537 97.8199 159.851C94.1479 161.164 90.0824 162.609 86.2793 164.185C84.3121 164.973 82.345 165.893 80.5089 166.812C80.1155 167.075 79.5909 167.338 79.1975 167.6C78.9352 167.732 78.8041 167.863 78.5418 167.994C78.2795 168.126 78.1483 168.257 77.8861 168.388C77.0992 168.914 76.3123 169.571 75.5255 170.227C72.378 172.592 69.4929 174.824 67.0011 176.795C62.0177 180.604 58.6079 183.231 58.6079 183.231C58.6079 183.231 61.8865 180.604 66.87 176.663C69.2306 174.562 72.1157 172.198 75.2632 169.833Z"
    fill="#E3CEBF" />
  <path
    d="M120.77 141.987L111.852 143.958C110.54 143.563 109.098 143.301 107.131 143.432C105.426 140.148 106.081 138.047 109.622 132.53C110.671 130.823 111.983 129.772 113.032 129.115C113.819 128.984 114.606 128.721 115.393 128.59C119.72 127.67 122.606 127.145 122.606 127.145C122.606 127.145 121.819 127.276 120.638 127.539C119.327 127.802 117.491 128.064 115.393 128.458C114.868 128.59 114.344 128.721 113.688 128.721C114.212 128.458 114.606 128.327 114.868 128.196C118.934 127.408 122.474 126.882 125.36 126.488C124.442 127.014 123.524 127.933 122.606 129.378C118.409 135.683 118.147 137.784 120.77 141.987Z"
    fill="#E3CEBF" />
  <path
    d="M91.0002 133.581C89.6888 133.975 88.3774 134.238 87.1971 134.632H87.0659C87.5905 134.369 87.9839 134.238 88.2462 134.107L93.3608 132.793C95.328 132.268 97.164 131.874 99 131.48C98.8689 131.611 98.7377 131.611 98.7377 131.742C96.1148 132.399 93.492 133.056 91.0002 133.581Z"
    fill="#E3CEBF" />
  <path
    d="M111.721 129.378C110.934 130.035 110.016 130.954 109.23 132.268C105.557 137.916 104.771 140.148 106.475 143.563C105.951 143.563 105.295 143.695 104.639 143.826C101.361 144.483 97.5577 145.14 93.4922 146.059C93.3611 145.796 93.3611 145.665 93.23 145.402C94.148 145.14 95.1971 145.008 95.984 144.746C100.705 143.695 103.984 143.038 103.984 143.038C103.984 143.038 100.705 143.563 95.984 144.352C95.066 144.483 94.148 144.746 93.0988 144.877C92.3119 142.25 93.3611 140.017 96.3774 135.42C97.4266 133.844 98.4757 132.793 99.3937 132.136C99.3937 132.136 99.3937 132.136 99.5249 132.136C102.41 131.479 105.295 130.823 108.049 130.297C109.23 129.903 110.541 129.641 111.721 129.378Z"
    fill="#E3CEBF" />
  <path
    d="M107.918 129.772C105.426 130.298 102.934 130.823 100.312 131.348C100.574 131.217 100.836 131.086 100.967 130.954C105.164 130.035 109.098 129.115 112.77 128.327C112.508 128.459 112.377 128.59 112.114 128.721C110.803 129.247 109.36 129.51 107.918 129.772Z"
    fill="#E3CEBF" />
  <path
    d="M145.032 139.492C145.032 139.36 145.032 139.229 145.032 139.098C145.032 138.966 145.032 138.835 145.032 138.704C145.032 138.441 144.901 138.047 145.032 137.521C145.032 137.259 145.032 137.127 145.032 136.865C145.032 136.602 145.032 136.471 145.163 136.208C145.163 135.945 145.294 135.814 145.294 135.551C145.294 135.289 145.425 135.157 145.556 134.895C145.688 134.632 145.819 134.5 145.819 134.369C145.95 134.238 146.081 134.106 146.212 133.975C146.343 133.844 146.475 133.712 146.606 133.712C146.737 133.581 146.868 133.581 146.999 133.581C147.13 133.581 147.261 133.581 147.261 133.581H147.393C147.393 133.581 147.393 133.581 147.393 133.712C147.393 133.712 147.261 133.844 147.261 133.975C147.261 134.106 147.13 134.106 147.13 134.238C147.13 134.369 146.999 134.5 146.999 134.632C146.868 134.763 146.868 134.895 146.737 135.026C146.606 135.157 146.606 135.289 146.475 135.551C146.475 135.683 146.343 135.683 146.343 135.814C146.343 135.945 146.212 135.945 146.212 136.077C146.081 136.208 146.081 136.471 145.95 136.602C145.819 136.733 145.819 136.996 145.819 137.259C145.819 137.521 145.688 137.653 145.688 137.916C145.688 138.047 145.556 138.31 145.556 138.441C145.556 138.572 145.556 138.835 145.425 138.966C145.425 139.098 145.425 139.229 145.425 139.36C145.032 139.36 145.032 139.492 145.032 139.492C145.032 139.623 145.032 139.754 145.032 139.754C145.032 139.754 145.032 139.754 145.032 139.492Z"
    fill="#E3CEBF" />
  <path
    d="M91.3937 132.268L83.9185 134.106L90.6068 124.649L85.361 130.823L90.7379 123.599C90.7379 123.599 92.1805 123.336 91.6559 126.488C91.3937 128.59 91.3937 131.085 91.3937 132.268Z"
    fill="#E3CEBF" />
  <path
    d="M128.114 133.581C127.983 133.45 127.851 133.318 127.72 133.187C127.72 133.056 127.72 133.056 127.851 132.924C127.851 132.793 127.851 132.793 127.982 132.662C128.114 132.793 128.245 132.924 128.376 133.056C129.163 133.844 130.081 135.026 130.999 136.208C131.13 136.339 131.261 136.471 131.392 136.733C131.261 136.865 131.261 136.996 131.13 137.127C130.212 135.945 129.425 134.895 128.638 133.975C128.376 133.975 128.245 133.712 128.114 133.581Z"
    fill="#333333" />
  <path
    d="M128.376 132.268C128.245 132.136 128.245 132.136 128.376 132.268C129.032 130.429 130.212 128.853 131.393 127.671C132.311 127.802 133.36 127.933 134.409 128.065C135.196 128.196 135.983 128.327 136.769 128.459C133.229 131.742 132.704 134.107 131.524 136.471C131.393 136.34 131.392 136.208 131.261 136.077C130.474 134.895 129.556 133.581 128.901 132.662C128.638 132.531 128.507 132.399 128.376 132.268Z"
    fill="#333333" />
  <path
    d="M125.753 136.471C126.015 136.208 126.409 135.814 126.802 135.157C126.933 135.289 127.195 135.42 127.327 135.552C128.113 136.208 129.294 137.259 130.343 138.31C128.9 139.886 127.327 139.886 126.54 139.886C126.277 139.886 126.015 139.623 126.015 139.361L125.622 137.128C125.491 136.734 125.622 136.602 125.753 136.471Z"
    fill="#333333" />
  <path
    d="M41.0341 186.383L39.8538 187.959L41.821 188.222C42.2144 188.222 52.0502 189.667 59.2631 183.887C62.0171 181.654 65.8203 178.633 69.4924 175.744C72.5087 173.38 75.3938 171.147 77.361 169.57C81.1642 166.549 95.4588 160.902 117.36 153.94C117.884 153.809 118.147 153.677 118.278 153.677C126.933 151.576 132.441 149.868 135.195 148.423C138.736 146.453 142.933 144.089 145.818 141.593C146.867 140.674 147.785 139.755 148.441 138.835C149.228 137.784 149.49 136.602 149.359 135.551C149.097 134.107 147.916 132.924 146.08 131.742L145.818 131.611C141.49 129.115 135.982 125.963 130.474 125.175C125.884 124.65 114.868 126.488 93.8851 131.611C93.6228 130.298 93.754 128.853 93.8851 127.539C94.0163 125.569 94.2785 123.993 93.0983 122.942C92.1802 122.154 90.7377 122.417 90.3442 122.548L90.0819 122.679L89.8197 122.942L81.033 134.632C80.3773 134.763 79.3281 135.026 78.279 135.289C76.8364 135.683 75.3938 135.945 74.4758 136.208C72.9021 134.107 71.3284 133.975 70.2792 134.238C66.8695 135.026 63.4597 135.945 60.1811 136.865L46.9356 128.065C45.7553 127.277 44.3127 127.014 42.8701 127.408L37.6244 128.853L35.6572 129.378L37.0998 130.823L53.6239 147.373C52.1814 147.767 51.3945 148.029 51.3945 148.029C50.4765 148.292 49.6896 148.686 49.0339 149.212C47.4602 150.525 46.9356 152.758 47.7225 154.991C48.5093 157.224 50.8699 159.325 54.0174 158.8C54.5419 158.669 55.0665 158.537 55.7222 158.537C57.0337 160.639 58.4763 162.084 59.5254 163.003L41.0341 186.383ZM52.5748 157.749C52.8371 157.749 52.9682 157.749 53.2305 157.749C53.4928 157.749 53.6239 157.749 53.8862 157.618C55.46 157.355 57.1648 157.092 58.3451 156.83C59.5254 156.567 60.4434 156.436 60.4434 156.436C60.4434 156.436 59.6566 156.567 58.4763 156.83C57.296 157.092 55.5911 157.355 54.0174 157.749C53.6239 157.881 53.2305 157.881 52.8371 157.881C52.4436 157.881 52.0502 157.749 51.6568 157.618C51.2634 157.486 51.0011 157.355 50.6076 157.092C50.3453 156.83 50.0831 156.698 49.8208 156.436C49.4273 155.91 49.165 155.516 49.0339 155.122C48.9028 154.991 48.9028 154.86 48.9028 154.728C48.9028 154.86 49.0339 154.991 49.0339 155.122C49.165 155.254 49.2962 155.516 49.4273 155.648C49.5585 155.91 49.6896 156.042 49.9519 156.304C50.2142 156.567 50.4765 156.698 50.7388 156.961C51.0011 157.092 51.3945 157.355 51.6568 157.486C51.7879 157.618 52.1814 157.749 52.5748 157.749ZM48.6405 141.068C49.5585 141.987 50.4765 142.907 51.1322 143.695C51.9191 144.483 52.4436 145.14 52.8371 145.534C52.4436 145.14 51.7879 144.483 51.0011 143.826C50.2142 143.038 49.2962 142.25 48.3782 141.331C47.4602 140.411 46.411 139.361 45.3619 138.441C44.3127 137.39 43.3947 136.471 42.4767 135.551C41.5587 134.632 40.6407 133.713 39.985 132.924C39.1981 132.136 38.6735 131.48 38.2801 131.086C38.6735 131.48 39.3293 132.136 40.1161 132.793C40.903 133.581 41.821 134.369 42.739 135.289C43.657 136.208 44.7062 137.259 45.7553 138.178C46.8045 139.098 47.7225 140.149 48.6405 141.068ZM62.4106 139.492C63.3286 140.149 63.9843 140.674 64.5089 140.937C63.9843 140.543 63.1974 140.149 62.2794 139.492C61.3614 138.966 60.3123 138.178 59.2631 137.522C58.214 136.734 57.0337 135.945 55.8534 135.157C54.6731 134.369 53.4928 133.581 52.4436 132.793C51.3945 132.005 50.3453 131.348 49.4273 130.692C48.5093 130.035 47.8536 129.509 47.329 129.247C47.8536 129.641 48.6405 130.035 49.5585 130.692C50.4765 131.217 51.5256 132.005 52.5748 132.662C53.6239 133.45 54.8042 134.238 55.9845 135.026C57.1648 135.814 58.3451 136.602 59.3943 137.39C60.5746 138.178 61.6237 138.835 62.4106 139.492ZM73.689 137.259C72.5087 137.784 71.0661 138.835 70.0169 140.411C67.9186 143.432 66.6072 145.665 66.0826 147.504C65.9515 147.504 65.9515 147.504 65.8203 147.504C65.8203 147.373 65.9515 147.11 65.9515 146.979C65.9515 146.847 65.9515 146.716 66.0826 146.585C66.0826 146.453 66.2138 146.322 66.2138 146.191C66.3449 145.928 66.476 145.665 66.6072 145.403C67.1318 144.352 67.6563 143.301 68.1809 142.513C68.5743 141.725 68.9678 141.199 68.9678 141.199C68.9678 141.199 68.5743 141.725 68.0498 142.382C67.5252 143.17 66.8695 144.089 66.2138 145.14C66.0826 145.403 65.9515 145.665 65.6892 145.928C65.6892 146.059 65.558 146.191 65.558 146.191C65.558 146.322 65.4269 146.453 65.4269 146.585C65.2957 146.847 65.2957 147.11 65.1646 147.504C65.0335 148.161 64.9023 148.686 64.7712 149.343C64.7712 149.606 64.7712 150 64.7712 150.262C64.7712 150.525 64.7712 150.919 64.7712 151.182C64.7712 151.444 64.9023 151.839 64.9023 152.101C65.0335 152.364 65.0335 152.627 65.1646 152.889C65.2957 153.152 65.2957 153.283 65.4269 153.546C65.558 153.677 65.558 153.94 65.6892 154.071C65.558 153.94 65.4269 153.809 65.2957 153.677C65.1646 153.546 65.0335 153.283 64.9023 153.021C64.7712 152.758 64.64 152.495 64.5089 152.233C64.3777 151.97 64.3777 151.707 64.2466 151.313C64.2466 151.05 64.1155 150.656 64.1155 150.262C64.1155 149.868 64.1155 149.606 64.1155 149.212C64.1155 149.08 64.1155 148.949 64.1155 148.818C64.1155 148.555 64.2466 148.424 64.2466 148.292C64.2466 148.161 64.3777 148.029 64.3777 147.898C63.3286 148.161 62.1483 148.292 61.0991 148.423C60.5746 148.555 60.1811 148.555 59.6566 148.686C59.3943 148.686 59.2631 148.686 59.0008 148.818L60.05 147.898L65.0335 145.534C64.9023 145.534 64.7712 145.665 64.64 145.665C64.2466 145.797 63.722 145.928 62.9352 146.191C62.2794 146.322 61.3614 146.585 60.5746 146.847C59.6566 147.11 58.7386 147.241 57.8205 147.504C56.9025 147.767 55.9845 147.898 55.0665 148.161C54.1485 148.292 53.3617 148.555 52.7059 148.686C52.0502 148.818 51.3945 148.949 51.0011 148.949C50.6076 148.949 50.3453 148.949 50.3453 148.949C50.3453 148.949 50.6076 148.818 51.0011 148.818C51.3945 148.686 51.9191 148.555 52.7059 148.292C53.3617 148.161 54.2797 147.898 55.0665 147.635C55.9845 147.373 56.9025 147.241 57.8205 146.979C58.7386 146.716 59.6566 146.585 60.5746 146.322C61.2303 146.191 61.886 146.059 62.4106 145.928L67.2629 141.856C67.2629 141.856 66.7383 141.462 65.9515 140.937L68.0498 140.28L66.2138 140.543L68.7055 139.755L64.9023 140.411C64.1154 139.886 63.1974 139.229 62.1483 138.572C62.1483 138.441 62.0171 138.441 61.886 138.31L70.0169 136.077L63.1974 137.39C65.4269 136.865 67.9186 136.208 70.6726 135.551C71.3284 135.42 71.9841 135.551 72.6398 135.945C72.6398 135.945 72.6398 135.945 72.5087 136.077C72.2464 136.471 71.8529 136.865 71.4595 137.39C71.0661 137.916 70.8038 138.441 70.5415 138.835C70.2792 139.229 70.1481 139.492 70.1481 139.492C70.1481 139.492 70.2792 139.229 70.6726 138.966C70.9349 138.704 71.4595 138.31 71.8529 137.916C72.3775 137.522 72.771 137.259 73.1644 136.996C73.2955 136.996 73.2955 136.865 73.4267 136.865C73.5578 136.996 73.689 137.128 73.689 137.259ZM103.459 155.91C103.459 155.91 102.803 156.042 101.885 156.304C100.836 156.567 99.3932 156.961 97.5571 157.486C96.6391 157.749 95.7211 157.881 94.672 158.143C93.6228 158.406 92.5737 158.669 91.3934 158.931C90.2131 159.194 89.0328 159.457 87.8525 159.588C86.6722 159.851 85.4919 159.982 84.1805 160.245C83.0002 160.507 81.6887 160.639 80.5084 160.902C79.3281 161.033 78.1479 161.296 76.9676 161.427C75.7873 161.558 74.7381 161.69 73.689 161.821C72.6398 161.952 71.5907 161.952 70.6726 162.084C69.7546 162.084 68.8366 162.215 68.1809 162.215C67.394 162.215 66.7383 162.215 66.2138 162.215C65.1646 162.215 64.5089 162.215 64.5089 162.215C64.5089 162.215 65.1646 162.215 66.2138 162.084C66.7383 162.084 67.394 162.084 68.1809 161.952C68.9678 161.952 69.7546 161.821 70.6726 161.69C71.5907 161.558 72.6398 161.427 73.689 161.427C74.7381 161.296 75.7873 161.164 76.9676 161.033C78.1479 160.902 79.3281 160.639 80.5084 160.507C81.6887 160.245 82.869 160.113 84.1805 159.851C85.3608 159.588 86.6722 159.457 87.8525 159.194C89.0328 158.931 90.2131 158.8 91.3934 158.537C92.5737 158.275 93.6228 158.143 94.672 157.881C95.7211 157.618 96.6391 157.486 97.5571 157.224C99.3932 156.83 100.836 156.436 101.885 156.173C102.934 156.173 103.459 155.91 103.459 155.91ZM83.9182 144.352C83.9182 144.352 82.2133 144.614 79.5904 145.14C79.9839 143.432 81.033 141.331 83.0002 138.178C83.9182 136.734 84.9673 135.814 86.0165 135.157C86.4099 135.026 86.6722 135.026 87.0656 134.895C88.2459 134.632 89.5574 134.238 91 133.975C93.2294 133.45 95.7211 132.924 98.0817 132.268C97.426 132.924 96.6391 133.844 95.8523 134.895C92.7048 139.623 91.7868 142.119 92.5737 144.746C88.6394 145.403 84.1805 146.191 79.7216 147.11C79.7216 146.979 79.7216 146.716 79.5904 146.585C81.8199 146.059 83.9182 145.534 85.7542 145.14C89.5574 144.352 92.0491 143.695 92.0491 143.695C92.0491 143.695 89.5574 144.089 85.7542 144.746C83.9182 145.008 81.8199 145.403 79.5904 145.797C79.5904 145.534 79.5904 145.271 79.7216 145.008C82.2133 144.614 83.9182 144.352 83.9182 144.352ZM80.115 148.686C80.115 148.555 79.9839 148.555 79.9839 148.423C84.4428 147.373 88.9017 146.322 92.7048 145.534C92.836 145.665 92.836 145.928 92.9671 146.059C88.6394 146.847 84.1805 147.767 80.115 148.686ZM67.7875 151.313C68.3121 151.182 68.7055 151.05 69.2301 150.919C72.2464 150.262 75.3938 149.474 78.5413 148.686C78.8036 148.686 79.0659 148.555 79.3281 148.555C79.3281 148.686 79.4593 148.686 79.4593 148.818C74.607 149.868 70.4104 150.788 67.7875 151.313ZM79.0659 147.373C78.8036 147.373 78.5413 147.504 78.4101 147.504C75.2627 148.161 71.9841 148.686 68.9678 149.212C68.7055 149.212 68.5743 149.343 68.3121 149.343C69.4924 149.08 70.6726 148.818 71.8529 148.555C74.2135 148.029 76.7053 147.373 78.9347 146.847C79.0659 146.979 79.0659 147.11 79.0659 147.373ZM66.476 148.555C66.476 148.423 66.476 148.423 66.476 148.555C66.8695 148.292 67.1318 148.292 67.394 148.161C71.4595 147.11 75.6561 146.191 78.6724 145.403C78.8036 145.403 78.8036 145.403 78.9347 145.403C78.9347 145.665 78.9347 145.928 78.9347 146.191C76.5741 146.585 74.0824 147.11 71.7218 147.504C69.8858 147.898 68.1809 148.161 66.476 148.555ZM65.8203 148.555C65.6892 148.555 65.6892 148.555 65.558 148.555C65.558 148.555 65.558 148.555 65.558 148.423C65.6892 148.555 65.8203 148.555 65.8203 148.555ZM81.6887 135.683L85.4919 134.763C85.3608 134.895 85.0985 135.026 84.9673 135.157C84.5739 135.289 84.0493 135.42 83.6559 135.551C81.5576 136.077 79.7216 136.602 78.5413 136.996C77.361 137.39 76.5741 137.522 76.5741 137.522C76.5741 137.522 77.2298 137.39 78.5413 136.996C79.197 136.865 79.9839 136.602 80.7707 136.34C81.6887 136.077 82.6067 135.814 83.6559 135.551C83.9182 135.42 84.1805 135.42 84.4428 135.289C83.787 135.814 83.0002 136.602 82.4756 137.522C80.3773 140.805 79.197 142.907 78.9347 144.877C78.8036 144.877 78.6724 144.877 78.6724 144.877C75.525 145.403 71.3284 146.191 67.2629 146.979C67.1318 146.979 66.8695 147.11 66.7383 147.11C67.2629 145.403 68.5743 143.301 70.5415 140.411C71.8529 138.441 73.689 137.522 74.8693 137.128C76.7053 136.996 80.7707 135.945 81.6887 135.683ZM91.7868 126.62C91.3934 128.721 91.3934 131.086 91.3934 132.268L83.9182 134.107L90.6065 124.65L85.3608 130.823L90.7377 123.599C90.8688 123.73 92.3114 123.336 91.7868 126.62ZM92.836 128.984C92.836 129.903 92.836 130.954 92.9671 131.874C92.7048 130.954 92.7048 130.035 92.836 128.984ZM98.9997 131.611C98.8686 131.742 98.7374 131.742 98.7374 131.874C96.1146 132.53 93.4917 133.056 91 133.713C89.6885 134.107 88.3771 134.369 87.1968 134.763H87.0656C87.5902 134.501 87.9836 134.369 88.2459 134.238L93.3605 132.924C95.1966 132.399 97.1637 132.005 98.9997 131.611ZM99.5243 132.005C102.409 131.348 105.295 130.692 108.049 130.166C109.36 129.903 110.54 129.641 111.852 129.378C111.065 130.035 110.147 130.954 109.36 132.268C105.688 137.916 104.901 140.149 106.606 143.564C106.081 143.564 105.426 143.695 104.77 143.826C101.491 144.483 97.6883 145.14 93.6228 146.059C93.4917 145.797 93.4917 145.665 93.3605 145.403C94.2785 145.14 95.3277 145.008 96.1146 144.746C100.836 143.695 104.114 143.038 104.114 143.038C104.114 143.038 100.836 143.564 96.1146 144.352C95.1966 144.483 94.2785 144.746 93.2294 144.877C92.4425 142.25 93.4917 140.017 96.508 135.42C97.426 133.713 98.4752 132.662 99.5243 132.005ZM112.77 128.459C112.508 128.59 112.376 128.721 112.114 128.853C110.803 129.115 109.36 129.378 107.918 129.641C105.426 130.166 102.934 130.692 100.311 131.217C100.573 131.086 100.836 130.954 100.967 130.823C105.163 130.166 109.229 129.247 112.77 128.459ZM125.36 126.488C124.442 127.014 123.524 127.933 122.606 129.378C118.54 135.683 118.147 137.784 120.901 142.119L111.983 144.089C110.672 143.695 109.229 143.432 107.262 143.564C105.557 140.28 106.213 138.178 109.754 132.662C110.803 130.954 112.114 129.903 113.163 129.247C113.95 129.115 114.737 128.853 115.524 128.721C119.852 127.802 122.737 127.277 122.737 127.277C122.737 127.277 121.95 127.408 120.77 127.671C119.458 127.933 117.622 128.196 115.524 128.59C114.999 128.721 114.475 128.853 113.819 128.853C114.344 128.59 114.737 128.459 114.999 128.327C118.934 127.277 122.474 126.751 125.36 126.488ZM145.031 139.492C145.031 139.623 145.031 139.755 145.031 139.755C145.031 139.755 145.031 139.755 145.031 139.492C144.9 139.361 144.9 139.229 144.9 139.098C144.9 138.966 144.9 138.835 144.9 138.704C144.9 138.441 144.769 138.047 144.9 137.522C144.9 137.259 144.9 137.128 144.9 136.865C144.9 136.602 144.9 136.471 145.031 136.208C145.031 135.945 145.162 135.814 145.162 135.551C145.162 135.289 145.294 135.157 145.425 134.895C145.556 134.632 145.687 134.501 145.687 134.369C145.818 134.238 145.949 134.107 146.08 133.975C146.212 133.844 146.343 133.713 146.474 133.713C146.605 133.581 146.736 133.581 146.867 133.581C146.998 133.581 147.13 133.581 147.13 133.581H147.261C147.261 133.581 147.261 133.581 147.261 133.713C147.261 133.713 147.13 133.844 147.13 133.975C147.13 134.107 146.998 134.107 146.998 134.238C146.998 134.369 146.867 134.501 146.867 134.632C146.736 134.763 146.736 134.895 146.605 135.026C146.474 135.157 146.474 135.289 146.343 135.551C146.343 135.683 146.212 135.683 146.212 135.814C146.212 135.945 146.08 135.945 146.08 136.077C145.949 136.208 145.949 136.471 145.818 136.602C145.687 136.734 145.687 136.996 145.687 137.259C145.687 137.522 145.556 137.653 145.556 137.916C145.556 138.047 145.425 138.31 145.425 138.441C145.425 138.572 145.425 138.835 145.294 138.966C145.294 139.098 145.294 139.229 145.294 139.361C145.031 139.361 145.031 139.492 145.031 139.492ZM145.031 140.805C145.162 140.805 145.162 140.674 145.294 140.674C145.294 140.674 145.294 140.674 145.162 140.674C145.162 140.674 145.031 140.674 145.031 140.805ZM113.95 145.008L98.9997 147.504L121.688 142.382L121.556 142.119C118.802 137.784 118.934 135.945 123.13 129.772C124.573 127.539 126.147 126.62 127.065 126.357C128.507 126.226 129.687 126.226 130.605 126.357C131.261 126.488 131.917 126.62 132.704 126.751C132.441 126.882 132.179 127.014 131.917 127.277C132.704 127.408 133.622 127.671 134.54 127.802C135.327 127.933 136.245 128.196 137.031 128.459C137.031 128.459 137.163 128.327 137.294 128.327C139.785 129.378 142.277 130.692 144.376 132.005C143.457 132.793 141.753 135.157 141.359 140.674L136.9 141.725C136.9 141.462 136.769 141.199 136.769 140.937C136.769 140.805 136.769 140.674 136.638 140.411C136.638 140.28 136.638 140.28 136.638 140.149C136.638 140.017 136.638 140.017 136.638 139.886C136.638 139.492 136.638 139.098 136.638 138.704C136.638 138.31 136.638 137.916 136.769 137.522C136.769 137.259 136.769 137.128 136.9 136.865C136.9 136.602 136.9 136.471 137.031 136.208C137.163 135.945 137.163 135.683 137.294 135.289L141.097 135.42L137.556 134.632C137.556 134.501 137.687 134.369 137.687 134.369C137.818 134.238 137.818 133.975 137.949 133.844C138.081 133.45 138.343 133.187 138.474 132.793C138.605 132.53 138.867 132.136 138.999 131.874C139.13 131.611 139.392 131.348 139.523 131.217L142.539 132.662L139.785 130.954C140.179 130.56 140.441 130.298 140.441 130.298C140.441 130.298 139.785 130.823 138.867 131.874C138.605 132.136 138.474 132.399 138.212 132.662C137.949 132.924 137.818 133.319 137.556 133.713C137.425 133.844 137.294 134.107 137.294 134.238C137.163 134.369 137.163 134.632 137.031 134.895C136.769 135.289 136.638 135.683 136.507 136.077C136.376 136.34 136.376 136.471 136.245 136.734C136.245 136.996 136.113 137.128 136.113 137.39C135.982 137.784 135.982 138.31 135.851 138.704C135.851 139.098 135.851 139.492 135.72 139.886C135.72 140.017 135.72 140.017 135.72 140.149C135.72 140.28 135.72 140.28 135.72 140.411C135.72 140.543 135.72 140.805 135.72 140.937C135.72 141.331 135.72 141.593 135.72 141.856L127.065 143.826L135.72 142.513L126.015 144.746C126.015 144.746 126.015 145.271 126.409 146.059C126.933 147.241 127.458 147.767 127.458 147.767C127.458 147.767 125.491 148.424 122.474 149.343L126.54 147.635L119.852 148.949C117.622 148.029 116.18 146.322 113.95 145.008ZM58.4763 182.968C58.4763 182.968 61.7549 180.341 66.7383 176.401C69.2301 174.43 72.1152 172.197 75.2627 169.702C76.0495 169.045 76.8364 168.52 77.6233 167.863C77.8856 167.732 78.0167 167.6 78.279 167.469C78.5413 167.338 78.6724 167.206 78.9347 167.075C79.3281 166.812 79.8527 166.549 80.2462 166.287C82.0822 165.367 84.0493 164.448 86.0165 163.66C89.9508 162.084 93.8851 160.639 97.6883 159.325C101.36 158.012 104.901 156.83 107.918 155.91C110.934 154.991 113.426 154.203 115.262 153.677C116.966 153.152 118.016 152.889 118.016 152.889C118.016 152.889 116.966 153.152 115.262 153.809C113.557 154.334 111.065 155.254 108.049 156.173C105.032 157.224 101.491 158.406 97.8194 159.719C94.1474 161.033 90.0819 162.478 86.2788 164.054C84.3116 164.842 82.3445 165.761 80.5084 166.681C80.115 166.944 79.5904 167.206 79.197 167.469C78.9347 167.6 78.8036 167.732 78.5413 167.863C78.279 167.994 78.1478 168.126 77.8856 168.257C77.0987 168.782 76.3118 169.439 75.525 170.096C72.3775 172.46 69.4924 174.693 67.0006 176.663C61.886 180.472 58.4763 182.968 58.4763 182.968ZM41.9521 187.171L52.5748 173.774L43.3947 186.514L55.9845 170.884L59.3943 166.418L57.5583 169.439C60.4434 169.045 66.2138 168.126 72.2464 166.944C72.1152 166.944 72.1152 166.944 71.9841 167.075C71.4595 167.206 71.0661 167.338 70.5415 167.469C69.4924 167.732 68.4432 167.994 67.394 168.257C62.9352 169.308 58.4763 169.965 58.4763 169.965C58.4763 169.965 62.9352 169.57 67.394 168.782C68.5743 168.651 69.6235 168.388 70.6726 168.126C71.1972 167.994 71.7218 167.863 72.1152 167.863C72.6398 167.732 73.0332 167.6 73.4267 167.469H73.5578L68.8366 171.409L73.1644 168.52C70.6726 170.359 67.7875 172.723 64.2466 175.612C54.8042 183.362 50.3453 186.12 48.3782 187.171C44.7062 187.565 41.9521 187.171 41.9521 187.171Z"
    fill="#333333" />
  <path
    d="M52.3125 180.604C52.9682 180.209 53.755 179.815 54.5419 179.421C55.3288 179.027 56.1156 178.633 56.7713 178.371C57.4271 177.977 58.2139 177.714 58.7385 177.451C59.9188 176.926 60.7057 176.532 60.7057 176.532C60.7057 176.532 59.9188 176.926 58.8696 177.583C58.3451 177.845 57.6894 178.239 56.9025 178.633C56.2468 179.027 55.4599 179.421 54.673 179.815C53.8862 180.209 53.0993 180.604 52.4436 180.866C51.7879 181.26 51.001 181.523 50.4764 181.786C49.2961 182.311 48.5093 182.705 48.5093 182.705C48.5093 182.705 49.2961 182.311 50.3453 181.654C51.001 181.392 51.6567 180.998 52.3125 180.604Z"
    fill="#333333" />
  <path
    d="M120.245 137.916C120.245 137.653 120.114 137.39 120.114 137.259C120.114 136.996 120.114 136.733 120.114 136.602C120.114 136.208 120.245 135.683 120.377 135.289C120.508 134.895 120.639 134.5 120.77 134.238C121.032 133.581 121.426 133.056 121.557 132.793C121.819 132.399 121.95 132.268 121.95 132.268C121.95 132.268 121.819 132.53 121.688 132.793C121.557 133.187 121.295 133.712 121.032 134.369C120.77 135.026 120.508 135.814 120.377 136.602C120.377 136.865 120.377 136.996 120.377 137.259C120.377 137.521 120.377 137.653 120.508 137.916C120.639 138.31 120.77 138.835 120.901 139.229C121.032 139.623 121.295 140.017 121.426 140.542C121.688 140.937 121.819 141.331 122.081 141.725C122.344 142.119 122.475 142.513 122.737 142.775C122.999 143.169 123.131 143.432 123.393 143.695C122.475 142.644 121.295 141.068 120.639 139.229C120.377 138.835 120.245 138.441 120.245 137.916Z"
    fill="#333333" />
  <path
    d="M79.2055 141.39V132.135L82.6531 133.769V141.39L87.9153 147.015L82.6531 145.019L76.1208 151.007L77.7539 145.019L68.3184 147.015L79.2055 141.39Z"
    fill="#EB9F59" />
  <path
    d="M101.161 145.019L95.5363 147.015L101.161 141.39V132.135H104.246V141.39L114.589 147.015L106.605 145.019L107.512 151.007L101.161 145.019Z"
    fill="#EB9F59" />
  <path
    d="M79.2055 141.39V132.135L82.6531 133.769V141.39L87.9153 147.015L82.6531 145.019L76.1208 151.007L77.7539 145.019L68.3184 147.015L79.2055 141.39Z"
    stroke="#423B3C" />
  <path
    d="M101.161 145.019L95.5363 147.015L101.161 141.39V132.135H104.246V141.39L114.589 147.015L106.605 145.019L107.512 151.007L101.161 145.019Z"
    stroke="#423B3C" />
  <path
    d="M120.994 101.107C120.994 120.031 107.435 135.264 90.8339 135.264C74.2328 135.264 60.6738 120.031 60.6738 101.107C60.6738 82.1829 74.2328 66.9495 90.8339 66.9495C107.435 66.9495 120.994 82.1829 120.994 101.107Z"
    fill="#D8FBD7" stroke="#423B3C" />
  <path
    d="M59.5991 95.7542C60.5817 69.3528 77 60.6883 77.4573 58.9191C77.9147 57.15 25.25 70.8266 25.25 70.8266C25.25 70.8266 65.6481 56.6471 77.2335 53.8143C67.7771 54.8342 39.75 57.0766 39.75 57.0766L86.75 48.3266L57.375 44.3268C56.884 44.2024 57.2609 44.2142 58.2468 44.3226C63.3911 44.2833 82.498 43.9614 91.5 43.3266C100.282 42.7072 89 36.5768 84.125 32.9519C96.3278 36.8271 103.538 49.0294 108.304 55.3647C120.577 71.6824 122.11 98.3853 122.11 98.3853C122.11 98.3853 121.297 99.7462 119.013 103.103C116.333 107.042 113.836 114.332 112.57 114.353C111.304 114.374 109.584 106.28 107.308 106.28C105.031 106.28 104.281 115.442 101.864 115.442C100.281 115.442 96.9995 107.732 95.3278 107.732C93.656 107.732 92.0221 116.955 90.3398 117.075C88.6575 117.195 86.8534 107.865 85.1704 107.732C83.4875 107.599 80.4496 117.16 78.3639 117.075C76.2783 116.989 75.672 106.476 74.1905 106.555C72.709 106.633 69.407 114.401 68.384 114.353C66.2596 114.253 66.2811 103.103 64.392 103.103C63.031 103.103 58.6166 122.156 59.5991 95.7542Z"
    fill="#F1EFE6" />
  <path
    d="M86.75 48.3266L39.75 57.0766C39.75 57.0766 84.414 53.5031 80 53.3266C75.6088 53.151 25.25 70.8266 25.25 70.8266C25.25 70.8266 77.9147 57.15 77.4573 58.9191C77 60.6883 60.5817 69.3528 59.5991 95.7542C58.6166 122.156 63.031 103.103 64.392 103.103C66.2811 103.103 66.2596 114.253 68.384 114.353C69.407 114.401 72.709 106.633 74.1905 106.555C75.672 106.476 76.2783 116.989 78.3639 117.075C80.4496 117.16 83.4875 107.599 85.1704 107.732C86.8534 107.865 88.6575 117.195 90.3398 117.075C92.0221 116.955 93.656 107.732 95.3278 107.732C96.9995 107.732 100.281 115.442 101.864 115.442C104.281 115.442 105.031 106.28 107.308 106.28C109.584 106.28 111.304 114.374 112.57 114.353C113.836 114.332 116.333 107.042 119.013 103.103C121.297 99.7462 122.11 98.3853 122.11 98.3853C122.11 98.3853 120.577 71.6824 108.304 55.3647C103.538 49.0294 96.3278 36.8271 84.125 32.9519C89 36.5768 100.282 42.7072 91.5 43.3266C81.863 44.0062 60.645 44.3271 57.375 44.3268M86.75 48.3266C86.75 48.3266 54.2273 43.5297 57.375 44.3268M86.75 48.3266L57.375 44.3268"
    stroke="#423B3C" stroke-linejoin="round" />
  <path
    d="M127.866 109.797C129.55 100.454 121.619 92.8105 121.619 92.8105L114.589 123.134C114.589 123.134 125.816 121.164 127.866 109.797Z"
    fill="#F1EFE6" stroke="#423B3C" />
  <path
    d="M54.7747 114.905C52.1299 104.024 59.3027 95.6863 59.3027 95.6863L68.3926 124.835C68.3926 124.835 56.5505 122.211 54.7747 114.905Z"
    fill="#F1EFE6" stroke="#423B3C" />
  <path
    d="M82.2852 89.5254C80.5731 92.7571 90.4242 105.604 90.4242 105.604C90.4242 105.604 99.4433 92.4261 97.5194 89.0383C95.9064 86.1978 93.057 85.7316 89.7921 85.836C86.5272 85.9404 83.8144 86.6388 82.2852 89.5254Z"
    fill="#EB9F59" stroke="#423B3C" />
  <circle cx="100.496" cy="79.1479" r="6.39521" fill="#F1EFE6" stroke="#423B3C" />
  <circle cx="102.887" cy="79.0857" r="4.50901" fill="#423B3C" />
  <circle cx="81.1716" cy="79.1479" r="6.39521" fill="#F1EFE6" stroke="#423B3C" />
  <circle cx="83.6101" cy="79.0857" r="4.50901" fill="#423B3C" />
  <circle cx="103.961" cy="78.3357" r="1.67704" fill="#FAF9F8" />
  <circle cx="85.2781" cy="78.3357" r="1.67704" fill="#FAF9F8" />
  <path d="M72.8352 70.4601C79.4478 66.4424 79.5612 66.3084 86.6615 68.9031" stroke="#423B3C" />
  <path d="M93.8034 69.846C100.152 71.0071 100.271 71.0615 106.043 68.6473" stroke="#423B3C" />
  <defs>
    <clipPath id="clip0_700_2740">
      <rect x="110" y="169.077" width="9" height="10" fill="white" />
    </clipPath>
  </defs>
</svg>