<svg width="180" height="264" viewBox="0 0 180 264" fill="none" xmlns="http://www.w3.org/2000/svg">
  <rect width="180" height="264" rx="15" fill="#423B3C" />
  <path
    d="M122.641 100.684C122.459 99.2869 122.269 97.881 122.096 96.4769C121.63 92.9077 121.164 89.3387 120.696 85.7864C115.953 83.7291 111.202 81.6793 106.459 79.6219C105.835 75.0584 105.209 70.5118 104.584 65.9483L103.224 59.3194L92.0199 49.747L90.0764 40.4896L89.4321 37.3957C89.6878 37.2942 89.9434 37.1927 90.1991 37.0912C90.3583 37.0223 90.5252 36.9628 90.6921 36.9033C92.7636 36.0853 94.8628 35.3382 96.9744 34.6434C97.1582 34.5856 97.3419 34.5277 97.5257 34.4699L97.5348 34.4623C97.7186 34.4045 97.9023 34.3467 98.0861 34.2889C98.4705 34.175 98.8563 34.0442 99.2407 33.9303C99.4674 33.8684 99.6863 33.7971 99.913 33.7352C100.611 33.5342 101.31 33.3332 102.016 33.1415C102.207 33.093 102.391 33.0352 102.582 32.9867C102.757 32.9364 102.948 32.8879 103.123 32.8376C103.149 32.8318 103.158 32.8242 103.184 32.8184C103.359 32.7681 103.541 32.7272 103.716 32.6769C104.299 32.5238 104.89 32.3799 105.489 32.2454C105.645 32.2103 105.794 32.1659 105.941 32.1383C105.984 32.1342 106.019 32.1208 106.071 32.1091C106.236 32.0664 106.409 32.033 106.566 31.9979C106.757 31.9494 106.947 31.9177 107.139 31.8692C107.321 31.8282 107.503 31.7873 107.702 31.748C107.711 31.7405 107.719 31.7498 107.728 31.7422C107.91 31.7012 108.11 31.662 108.292 31.6211C108.474 31.5801 108.673 31.5409 108.855 31.4999C108.865 31.4923 108.882 31.4941 108.891 31.4865C109.073 31.4455 109.263 31.4139 109.445 31.3729C109.644 31.3337 109.834 31.302 110.026 31.2535C110.13 31.2301 110.242 31.216 110.337 31.2001C110.493 31.165 110.648 31.1468 110.804 31.1117C111.314 31.0191 111.841 30.9282 112.351 30.8356C118.662 29.7865 124.999 29.4036 131.325 30.9674C140.389 33.2104 145.518 39.4496 145.941 48.7731C145.951 48.9527 145.951 49.1399 145.961 49.3195C145.958 49.3533 145.964 49.3794 145.961 49.4131C145.961 49.6003 145.971 49.7799 145.971 49.9671C145.98 50.1636 145.971 50.3583 145.97 50.5623C145.97 50.5623 145.977 50.5716 145.968 50.5792C145.969 50.7664 145.961 50.9443 145.962 51.1314C145.956 51.3861 145.949 51.6576 145.934 51.9197C145.935 52.0133 145.926 52.1145 145.926 52.2081C145.918 52.2924 145.919 52.386 145.911 52.4703C145.907 52.6144 145.893 52.7662 145.88 52.9179C145.871 53.0191 145.871 53.1127 145.862 53.2138C145.865 53.2737 145.852 53.3318 145.855 53.3917C145.846 53.4929 145.838 53.5772 145.829 53.6783C145.803 53.9818 145.768 54.276 145.741 54.5795C145.724 54.6714 145.715 54.7725 145.708 54.8568C145.702 54.9242 145.688 54.9824 145.682 55.0498C145.673 55.151 145.657 55.2429 145.639 55.3516C145.1 59.4052 143.952 63.3371 142.488 67.1857C139.872 74.1407 136.618 80.7159 132.761 86.8978C132.622 87.1218 132.483 87.3458 132.344 87.5698C132.254 87.7223 132.147 87.873 132.057 88.0254C131.701 88.5845 131.336 89.1513 130.973 89.7011C130.727 90.0758 130.474 90.4413 130.229 90.7991C130.102 90.9818 129.976 91.1645 129.849 91.3473C129.595 91.7127 129.342 92.0781 129.088 92.4435C128.961 92.6263 128.835 92.809 128.7 92.9824C128.058 93.8867 127.392 94.7799 126.711 95.6546C126.711 95.6546 126.711 95.6546 126.702 95.6622C126.567 95.8356 126.433 96.009 126.298 96.1824C126.164 96.3559 126.02 96.5369 125.886 96.7103C125.608 97.0647 125.339 97.4116 125.053 97.7567C125.033 97.7887 125.005 97.8114 124.986 97.8434C124.727 98.1658 124.478 98.4806 124.212 98.7938C124.212 98.7938 124.212 98.7938 124.203 98.8013C123.783 99.3199 123.346 99.8367 122.901 100.344C122.831 100.465 122.736 100.574 122.641 100.684Z"
    fill="#FAF9F8" />
  <path
    d="M145.732 55.3563C145.771 54.3393 145.769 53.3096 145.733 52.2765C145.308 42.9508 140.187 36.702 131.111 34.465C124.784 32.9001 118.445 33.2824 112.133 34.331C104.525 35.6045 97.2098 37.6993 90.1475 40.492L89.5028 37.3973C89.7585 37.2958 90.0142 37.1943 90.2699 37.0928C90.4292 37.024 90.5961 36.9644 90.763 36.9049C92.8348 36.087 94.9344 35.34 97.0464 34.6453C97.2301 34.5875 97.4139 34.5296 97.5977 34.4718L97.6069 34.4643C97.7907 34.4064 97.9745 34.3486 98.1582 34.2908C98.5427 34.1769 98.9286 34.0462 99.3131 33.9323C99.5397 33.8704 99.7588 33.7991 99.9855 33.7372C100.684 33.5363 101.382 33.3353 102.088 33.1437C102.28 33.0952 102.464 33.0374 102.655 32.9889C102.83 32.9386 103.021 32.8901 103.196 32.8399C103.222 32.834 103.231 32.8264 103.257 32.8206C103.432 32.7704 103.614 32.7294 103.789 32.6792C104.372 32.5261 104.963 32.3822 105.562 32.2477C105.719 32.2126 105.867 32.1682 106.014 32.1407C106.057 32.1366 106.092 32.1232 106.145 32.1115C106.31 32.0688 106.483 32.0354 106.639 32.0003C106.831 31.9518 107.021 31.9202 107.212 31.8717C107.395 31.8307 107.577 31.7898 107.776 31.7506C107.785 31.743 107.793 31.7523 107.802 31.7447C107.984 31.7038 108.184 31.6645 108.366 31.6236C108.548 31.5827 108.747 31.5434 108.93 31.5025C108.939 31.4949 108.956 31.4967 108.965 31.4891C109.147 31.4481 109.337 31.4165 109.519 31.3755C109.718 31.3363 109.908 31.3047 110.1 31.2562C110.204 31.2328 110.316 31.2187 110.411 31.2028C110.567 31.1677 110.722 31.1495 110.878 31.1144C111.388 31.0219 111.915 30.931 112.426 30.8385C118.738 29.7899 125.076 29.4076 131.403 30.9726C140.47 33.217 145.6 39.4583 146.025 48.784C146.035 48.9636 146.035 49.1508 146.045 49.3305C146.042 49.3642 146.048 49.3904 146.045 49.4241C146.046 49.6113 146.055 49.791 146.056 49.9782C146.064 50.1747 146.055 50.3695 146.054 50.5736C146.054 50.5736 146.062 50.5829 146.052 50.5904C146.053 50.7777 146.046 50.9556 146.046 51.1428C146.04 51.3975 146.033 51.669 146.019 51.9313C146.019 52.0249 146.01 52.1261 146.01 52.2197C146.003 52.304 146.003 52.3976 145.995 52.4819C145.991 52.6261 145.978 52.7779 145.964 52.9297C145.955 53.0309 145.956 53.1245 145.947 53.2256C145.95 53.2855 145.936 53.3437 145.939 53.4036C145.93 53.5048 145.923 53.5891 145.914 53.6903C145.887 53.9938 145.853 54.2881 145.826 54.5916C145.809 54.6835 145.8 54.7847 145.793 54.869C145.787 54.9364 145.773 54.9946 145.767 55.0621C145.758 55.1632 145.741 55.2551 145.732 55.3563Z"
    fill="#FAF9F8" />
  <path
    d="M50.7479 220.811C50.1039 220.811 49.5252 220.662 49.0119 220.363C48.5079 220.064 48.1112 219.644 47.8219 219.103C47.5325 218.552 47.3879 217.908 47.3879 217.171C47.3879 216.434 47.5325 215.794 47.8219 215.253C48.1205 214.712 48.5219 214.292 49.0259 213.993C49.5299 213.685 50.1039 213.531 50.7479 213.531C51.6345 213.531 52.3485 213.755 52.8899 214.203C53.4405 214.642 53.7905 215.248 53.9399 216.023H52.3859C52.2925 215.687 52.1012 215.421 51.8119 215.225C51.5319 215.029 51.1725 214.931 50.7339 214.931C50.4165 214.931 50.1132 215.015 49.8239 215.183C49.5439 215.351 49.3152 215.603 49.1379 215.939C48.9699 216.266 48.8859 216.676 48.8859 217.171C48.8859 217.656 48.9699 218.067 49.1379 218.403C49.3152 218.739 49.5439 218.996 49.8239 219.173C50.1132 219.341 50.4165 219.425 50.7339 219.425C51.1819 219.425 51.5412 219.327 51.8119 219.131C52.0825 218.935 52.2739 218.664 52.3859 218.319H53.9399C53.7532 219.084 53.3892 219.691 52.8479 220.139C52.3065 220.587 51.6065 220.811 50.7479 220.811ZM55.8664 220.643V210.563H57.3504V214.735C57.5371 214.39 57.8357 214.105 58.2464 213.881C58.6571 213.648 59.1191 213.531 59.6324 213.531C60.4911 213.531 61.1444 213.792 61.5924 214.315C62.0404 214.828 62.2644 215.57 62.2644 216.541V220.643H60.7804V216.751C60.7804 216.172 60.6404 215.724 60.3604 215.407C60.0804 215.09 59.6931 214.931 59.1984 214.931C58.6851 214.931 58.2464 215.104 57.8824 215.449C57.5277 215.794 57.3504 216.294 57.3504 216.947V220.643H55.8664ZM67.2989 212.635C66.9723 212.635 66.6969 212.532 66.4729 212.327C66.2583 212.112 66.1509 211.851 66.1509 211.543C66.1509 211.235 66.2583 210.978 66.4729 210.773C66.6969 210.568 66.9723 210.465 67.2989 210.465C67.6349 210.465 67.9103 210.568 68.1249 210.773C68.3489 210.978 68.4609 211.235 68.4609 211.543C68.4609 211.851 68.3489 212.112 68.1249 212.327C67.9103 212.532 67.6349 212.635 67.2989 212.635ZM64.5129 220.643V219.355H66.6969V215.449C66.6969 215.141 66.5476 214.987 66.2489 214.987H64.7089V213.699H66.5149C67.0936 213.699 67.5136 213.834 67.7749 214.105C68.0456 214.366 68.1809 214.786 68.1809 215.365V219.355H70.3649V220.643H64.5129ZM75.9315 220.811C75.2875 220.811 74.7088 220.662 74.1955 220.363C73.6915 220.064 73.2948 219.644 73.0055 219.103C72.7161 218.552 72.5715 217.908 72.5715 217.171C72.5715 216.434 72.7161 215.794 73.0055 215.253C73.3041 214.712 73.7055 214.292 74.2095 213.993C74.7135 213.685 75.2875 213.531 75.9315 213.531C76.8181 213.531 77.5321 213.755 78.0735 214.203C78.6241 214.642 78.9741 215.248 79.1235 216.023H77.5695C77.4761 215.687 77.2848 215.421 76.9955 215.225C76.7155 215.029 76.3561 214.931 75.9175 214.931C75.6001 214.931 75.2968 215.015 75.0075 215.183C74.7275 215.351 74.4988 215.603 74.3215 215.939C74.1535 216.266 74.0695 216.676 74.0695 217.171C74.0695 217.656 74.1535 218.067 74.3215 218.403C74.4988 218.739 74.7275 218.996 75.0075 219.173C75.2968 219.341 75.6001 219.425 75.9175 219.425C76.3655 219.425 76.7248 219.327 76.9955 219.131C77.2661 218.935 77.4575 218.664 77.5695 218.319H79.1235C78.9368 219.084 78.5728 219.691 78.0315 220.139C77.4901 220.587 76.7901 220.811 75.9315 220.811ZM81.4 220.643V210.563H82.884V216.611L85.544 213.699H87.406L84.508 216.779V216.891L87.784 220.643H85.978L82.884 217.073V220.643H81.4ZM92.7065 220.811C92.0345 220.811 91.4418 220.662 90.9285 220.363C90.4152 220.055 90.0138 219.63 89.7245 219.089C89.4352 218.548 89.2905 217.918 89.2905 217.199C89.2905 216.471 89.4305 215.832 89.7105 215.281C89.9998 214.73 90.4012 214.301 90.9145 213.993C91.4372 213.685 92.0392 213.531 92.7205 213.531C93.3925 213.531 93.9712 213.685 94.4565 213.993C94.9418 214.292 95.3152 214.693 95.5765 215.197C95.8472 215.701 95.9825 216.256 95.9825 216.863C95.9825 216.956 95.9825 217.059 95.9825 217.171C95.9825 217.274 95.9778 217.39 95.9685 217.521H90.7465C90.7932 218.165 91.0032 218.655 91.3765 218.991C91.7498 219.318 92.1885 219.481 92.6925 219.481C93.1312 219.481 93.4765 219.392 93.7285 219.215C93.9898 219.028 94.1812 218.776 94.3025 218.459H95.8005C95.6325 219.122 95.2825 219.682 94.7505 220.139C94.2185 220.587 93.5372 220.811 92.7065 220.811ZM92.7065 214.819C92.2492 214.819 91.8432 214.959 91.4885 215.239C91.1338 215.51 90.9052 215.892 90.8025 216.387H94.4985C94.4612 215.92 94.2792 215.542 93.9525 215.253C93.6258 214.964 93.2105 214.819 92.7065 214.819ZM97.909 220.643V213.699H99.197L99.323 214.735H99.393C99.5797 214.399 99.869 214.114 100.261 213.881C100.653 213.648 101.106 213.531 101.619 213.531C102.468 213.531 103.108 213.788 103.537 214.301C103.966 214.814 104.181 215.57 104.181 216.569V220.643H102.697V216.751C102.697 216.172 102.576 215.724 102.333 215.407C102.09 215.09 101.708 214.931 101.185 214.931C100.672 214.931 100.242 215.104 99.897 215.449C99.561 215.794 99.393 216.294 99.393 216.947V220.643H97.909ZM117.806 220.811C117.143 220.811 116.551 220.662 116.028 220.363C115.505 220.064 115.095 219.644 114.796 219.103C114.497 218.552 114.348 217.908 114.348 217.171C114.348 216.434 114.497 215.794 114.796 215.253C115.095 214.702 115.505 214.278 116.028 213.979C116.551 213.68 117.148 213.531 117.82 213.531C118.492 213.531 119.085 213.68 119.598 213.979C120.121 214.278 120.527 214.702 120.816 215.253C121.115 215.794 121.264 216.434 121.264 217.171C121.264 217.908 121.115 218.552 120.816 219.103C120.517 219.644 120.107 220.064 119.584 220.363C119.071 220.662 118.478 220.811 117.806 220.811ZM117.806 219.397C118.161 219.397 118.487 219.318 118.786 219.159C119.085 219 119.323 218.758 119.5 218.431C119.687 218.095 119.78 217.675 119.78 217.171C119.78 216.658 119.687 216.238 119.5 215.911C119.323 215.584 119.085 215.342 118.786 215.183C118.497 215.024 118.175 214.945 117.82 214.945C117.465 214.945 117.139 215.024 116.84 215.183C116.541 215.342 116.299 215.584 116.112 215.911C115.935 216.238 115.846 216.658 115.846 217.171C115.846 217.936 116.037 218.501 116.42 218.865C116.812 219.22 117.274 219.397 117.806 219.397ZM125.585 220.811C124.745 220.811 124.105 220.554 123.667 220.041C123.237 219.518 123.023 218.762 123.023 217.773V213.699H124.507V217.591C124.507 218.16 124.628 218.608 124.871 218.935C125.123 219.252 125.505 219.411 126.019 219.411C126.532 219.411 126.961 219.238 127.307 218.893C127.652 218.548 127.825 218.048 127.825 217.395V213.699H129.309V220.643H128.021L127.895 219.607H127.825C127.638 219.943 127.349 220.228 126.957 220.461C126.565 220.694 126.107 220.811 125.585 220.811ZM135.351 220.643C134.67 220.643 134.129 220.48 133.727 220.153C133.326 219.817 133.125 219.224 133.125 218.375V214.959H131.375V213.699H132.411C132.887 213.699 133.167 213.466 133.251 212.999L133.461 211.879H134.609V213.699H137.353V214.959H134.609V218.347C134.609 218.711 134.689 218.968 134.847 219.117C135.015 219.257 135.3 219.327 135.701 219.327H137.325V220.643H135.351Z"
    fill="#FAF9F8" />
  <path
    d="M75.4067 139.836V130.582L78.8543 132.215V139.836L84.1164 145.461L78.8543 143.465L72.322 149.453L73.9551 143.465L64.5195 145.461L75.4067 139.836Z"
    fill="#EB9F59" />
  <path
    d="M97.3625 143.465L91.7375 145.461L97.3625 139.836V130.582H100.447V139.836L110.79 145.461L102.806 143.465L103.713 149.453L97.3625 143.465Z"
    fill="#EB9F59" />
  <path
    d="M75.4067 139.836V130.582L78.8543 132.215V139.836L84.1164 145.461L78.8543 143.465L72.322 149.453L73.9551 143.465L64.5195 145.461L75.4067 139.836Z"
    stroke="#423B3C" />
  <path
    d="M97.3625 143.465L91.7375 145.461L97.3625 139.836V130.582H100.447V139.836L110.79 145.461L102.806 143.465L103.713 149.453L97.3625 143.465Z"
    stroke="#423B3C" />
  <path
    d="M117.195 99.5532C117.195 118.477 103.636 133.711 87.035 133.711C70.4339 133.711 56.875 118.477 56.875 99.5532C56.875 80.6292 70.4339 65.3958 87.035 65.3958C103.636 65.3958 117.195 80.6292 117.195 99.5532Z"
    fill="#EAC0E9" stroke="#423B3C" />
  <path
    d="M55.7995 94.2005C56.7821 67.7991 73.2003 59.1347 73.6577 57.3655C74.1151 55.5964 56.7819 52.0127 56.7819 52.0127C56.7819 52.0127 66.544 51.5649 70.9352 51.7405C75.3492 51.9171 82.1853 52.92 82.1853 52.92L55.6932 44.0288C55.6932 44.0288 93.1092 44.0024 106.504 61.8111C118.777 78.1288 118.31 96.8315 118.31 96.8315C118.31 96.8315 117.498 98.1924 115.214 101.549C112.534 105.488 110.036 112.778 108.77 112.799C107.504 112.82 105.785 104.727 103.508 104.727C101.231 104.727 100.481 113.888 98.0645 113.888C96.4814 113.888 93.1999 106.178 91.5281 106.178C89.8564 106.178 88.2225 115.401 86.5402 115.521C84.8579 115.641 83.0537 106.311 81.3708 106.178C79.6879 106.045 76.65 115.606 74.5643 115.521C72.4787 115.436 71.8724 104.922 70.3909 105.001C68.9094 105.08 65.6074 112.847 64.5844 112.799C62.46 112.7 62.4814 101.549 60.5924 101.549C59.2314 101.549 54.817 120.602 55.7995 94.2005Z"
    fill="#F1EFE6" stroke="#423B3C" stroke-linejoin="round" />
  <path
    d="M124.066 108.243C125.751 98.9001 117.819 91.2568 117.819 91.2568L110.79 121.581C110.79 121.581 122.017 119.61 124.066 108.243Z"
    fill="#F1EFE6" stroke="#423B3C" />
  <path
    d="M50.9754 113.352C48.3306 102.47 55.5034 94.1326 55.5034 94.1326L64.5933 123.281C64.5933 123.281 52.7512 120.658 50.9754 113.352Z"
    fill="#F1EFE6" stroke="#423B3C" />
  <path
    d="M78.6878 87.7247C76.8733 90.9001 86.3088 104.055 86.3088 104.055C86.3088 104.055 95.7444 91.1722 93.9298 87.7247C92.4084 84.8341 89.5754 84.2771 86.3088 84.2771C83.0423 84.2771 80.3085 84.8885 78.6878 87.7247Z"
    fill="#EB9F59" stroke="#423B3C" />
  <circle cx="96.697" cy="77.5942" r="6.39521" fill="#F1EFE6" stroke="#423B3C" />
  <circle cx="93.0887" cy="79.5943" r="2.44664" fill="#423B3C" />
  <circle cx="77.3727" cy="77.5942" r="6.39521" fill="#F1EFE6" stroke="#423B3C" />
  <circle cx="80.8114" cy="79.5943" r="2.44664" fill="#423B3C" />
  <path
    d="M125.639 144.836C125.663 147.388 125.447 149.893 125.004 152.314C124.956 152.554 124.908 152.793 124.86 153.045C124.812 153.285 124.764 153.524 124.704 153.776C124.464 154.855 124.177 155.921 123.841 156.976C123.733 157.335 123.613 157.695 123.482 158.043C123.398 158.282 123.314 158.51 123.23 158.75C123.146 158.989 123.05 159.217 122.966 159.445C122.87 159.672 122.787 159.912 122.691 160.14C122.595 160.368 122.499 160.595 122.391 160.823C122.091 161.506 121.768 162.177 121.432 162.848C121.264 163.184 121.085 163.508 120.905 163.831C120.845 163.939 120.785 164.047 120.725 164.155C120.605 164.37 120.474 164.586 120.354 164.802C120.294 164.91 120.222 165.018 120.162 165.125C120.03 165.341 119.898 165.545 119.766 165.761C119.635 165.964 119.503 166.18 119.359 166.384C119.227 166.588 119.083 166.791 118.939 166.995C118.796 167.199 118.652 167.403 118.508 167.606C118.304 167.882 118.101 168.158 117.897 168.421C117.693 168.697 117.477 168.961 117.262 169.224C117.118 169.404 116.974 169.572 116.83 169.751C116.686 169.931 116.531 170.099 116.387 170.267C116.231 170.435 116.087 170.602 115.931 170.77C115.776 170.938 115.62 171.106 115.464 171.274C115.308 171.441 115.152 171.609 114.997 171.765C114.913 171.849 114.841 171.933 114.757 172.005C114.661 172.112 114.553 172.208 114.457 172.304C114.146 172.604 113.846 172.903 113.522 173.191C113.103 173.575 112.672 173.958 112.228 174.33C111.785 174.701 111.329 175.061 110.874 175.408C110.598 175.624 110.323 175.828 110.035 176.031C109.939 176.103 109.843 176.163 109.747 176.235C109.556 176.367 109.364 176.499 109.172 176.631C108.98 176.762 108.789 176.894 108.585 177.014C108.093 177.338 107.59 177.637 107.087 177.937C106.883 178.057 106.679 178.177 106.476 178.285C105.241 178.98 103.947 179.615 102.604 180.19C98.0503 182.132 93.0648 183.126 88.0193 183.126C88.0193 183.126 87.9833 183.126 87.9234 183.126C87.8634 183.126 87.7796 183.126 87.6597 183.126C85.6463 183.102 83.6689 182.923 81.7393 182.587C81.7154 182.587 81.7034 182.575 81.6794 182.575C81.5835 182.563 81.4996 182.539 81.4038 182.527C81.3918 182.527 81.3678 182.527 81.3558 182.515C81.26 182.503 81.1641 182.479 81.0682 182.467C81.0682 182.467 81.0682 182.467 81.0562 182.467C80.9124 182.443 80.7806 182.419 80.6487 182.383C80.5409 182.359 80.433 182.335 80.3252 182.311C73.6378 180.909 67.5616 177.709 62.6599 173.239C62.564 173.143 62.4562 173.059 62.3603 172.963C62.2644 172.867 62.1565 172.784 62.0607 172.688C61.7371 172.376 61.4135 172.065 61.1019 171.741C61.03 171.669 60.97 171.609 60.8981 171.537C60.8023 171.441 60.7064 171.345 60.6225 171.238C60.5506 171.166 60.4787 171.082 60.4068 171.01C60.3469 170.938 60.2749 170.866 60.215 170.806C60.1551 170.746 60.1072 170.686 60.0472 170.626C59.9634 170.53 59.8794 170.435 59.7956 170.351C59.7956 170.351 59.7956 170.339 59.7836 170.339C59.6997 170.243 59.6038 170.135 59.5199 170.039C59.3641 169.859 59.1963 169.668 59.0405 169.476C58.9566 169.368 58.8608 169.26 58.7769 169.152C58.693 169.044 58.6091 168.937 58.5252 168.841C58.4173 168.709 58.3095 168.565 58.2016 168.433C57.89 168.026 57.5784 167.606 57.2788 167.187C57.2548 167.151 57.2309 167.115 57.2069 167.079C56.9792 166.767 56.7635 166.444 56.5478 166.12C56.4758 166 56.3919 165.892 56.32 165.773C56.2601 165.677 56.1882 165.569 56.1283 165.473C55.8167 164.982 55.5171 164.49 55.2294 163.975C55.1575 163.855 55.0976 163.735 55.0257 163.603C54.9418 163.46 54.8579 163.304 54.786 163.16C54.7381 163.064 54.6782 162.956 54.6302 162.86C54.5703 162.741 54.4984 162.609 54.4385 162.489C54.3785 162.369 54.3186 162.249 54.2587 162.129C54.1988 161.997 54.1268 161.866 54.0669 161.734C54.007 161.602 53.9471 161.482 53.8872 161.35C53.8272 161.218 53.7673 161.099 53.7074 160.967C53.6475 160.835 53.5875 160.715 53.5396 160.583C53.4797 160.451 53.4318 160.32 53.3718 160.2C53.3119 160.068 53.264 159.936 53.204 159.804C53.1561 159.672 53.0962 159.541 53.0482 159.409C53.0003 159.277 52.9404 159.145 52.8925 159.013C52.8445 158.881 52.7966 158.75 52.7366 158.618C52.6887 158.486 52.6408 158.366 52.5928 158.234C52.5928 158.222 52.5808 158.222 52.5808 158.21C52.5329 158.079 52.485 157.947 52.437 157.815C52.3891 157.683 52.3411 157.551 52.3052 157.407C52.2213 157.132 52.1254 156.868 52.0415 156.592C51.9936 156.461 51.9576 156.317 51.9217 156.185C51.8857 156.053 51.8378 155.909 51.8018 155.777C51.7659 155.634 51.7299 155.502 51.682 155.358C51.646 155.214 51.6101 155.082 51.5741 154.939C51.5382 154.807 51.5142 154.687 51.4783 154.555C51.4783 154.543 51.4663 154.519 51.4663 154.507C51.3704 154.088 51.2745 153.68 51.1906 153.261C51.1666 153.117 51.1307 152.973 51.1067 152.829C51.0828 152.685 51.0468 152.542 51.0228 152.398C51.0109 152.302 50.9869 152.206 50.9749 152.11C50.8671 151.487 50.7712 150.864 50.6993 150.229C50.5075 148.623 50.4116 147.017 50.4116 145.423C50.4116 145.231 50.4116 145.039 50.4116 144.848C50.4116 144.716 50.4116 144.584 50.4236 144.452C50.4236 144.236 50.4356 144.009 50.4476 143.793C50.4476 143.697 50.4596 143.601 50.4596 143.505C50.4596 143.421 50.4715 143.337 50.4715 143.254C50.4715 143.146 50.4835 143.038 50.4835 142.93C50.4835 142.858 50.4955 142.786 50.4955 142.726C50.5075 142.594 50.5075 142.463 50.5195 142.343C50.5315 142.223 50.5315 142.103 50.5435 141.971C50.5554 141.791 50.5674 141.624 50.5794 141.444C50.6034 141.228 50.6154 141.012 50.6393 140.797C50.6513 140.737 50.6513 140.665 50.6633 140.605C50.6753 140.533 50.6753 140.449 50.6873 140.365C50.7232 139.994 50.7712 139.622 50.8191 139.263L54.0669 136.902L57.6863 134.265L69.587 139.982L77.3889 134.265L84.6875 142.271L91.5547 138.268L104.366 143.194L111.928 138.735L119.323 141.48L125.567 143.805C125.579 144.045 125.579 144.272 125.591 144.512C125.639 144.596 125.639 144.716 125.639 144.836Z"
    fill="#FAF9F8" />
  <path
    d="M136.749 57.8021C136.749 65.0957 130.837 71.0083 123.543 71.0083C116.25 71.0083 110.337 65.0957 110.337 57.8021C110.337 50.5086 116.25 44.5959 123.543 44.5959C130.837 44.5959 136.749 50.5086 136.749 57.8021Z"
    fill="#D1BB9F" stroke="#FAF9F8" />
  <path
    d="M128.414 52.5442C131.104 55.2343 131.104 59.5958 128.414 62.2859C125.724 64.9759 121.363 64.9759 118.673 62.2859C115.983 59.5958 115.983 55.2343 118.673 52.5442C121.363 49.8541 125.724 49.8541 128.414 52.5442Z"
    fill="#FAF9F8" stroke="#FAF9F8" />
  <g clip-path="url(#clip0_709_2825)">
    <path
      d="M126.604 53.0242C126.466 52.9557 125.597 52.5522 124.768 53.2403C123.976 53.898 123.697 55.0528 123.51 55.8293C123.499 55.8745 123.487 55.9291 123.472 55.9907L121.52 55.7261L121.405 56.2597L123.351 56.52C123.282 56.8219 123.201 57.1829 123.113 57.5672L121.252 57.3182L121.136 57.851L122.991 58.1026C122.739 59.2054 122.462 60.3628 122.316 60.8209C122.202 61.1836 121.844 61.7536 121.508 61.7302C120.958 61.6912 121.007 61.2964 120.79 61.155C120.573 61.0135 120.343 61.1749 120.295 61.391C120.246 61.607 120.618 61.935 120.902 61.9853C121.448 62.0842 121.959 61.9966 122.539 61.4847C123.044 61.0378 123.476 59.6886 123.692 58.8609C123.737 58.6874 123.789 58.467 123.844 58.218L125.764 58.4783L125.88 57.9455L123.956 57.6852C124.028 57.3382 124.102 56.9729 124.169 56.6345L125.933 56.8731L126.048 56.3395L124.276 56.1001C124.33 55.8276 124.376 55.5994 124.409 55.4511C124.709 54.1001 125.147 53.1613 125.624 53.1648C125.991 53.1648 126.066 53.3843 126.243 53.5986C126.443 53.8442 126.702 53.8841 126.835 53.6646C126.997 53.4034 126.741 53.0945 126.604 53.0242Z"
      fill="black" />
  </g>
  <path d="M70.5228 65.5348C76.6376 64.3037 76.7483 64.2623 82.6978 65.0826" stroke="#423B3C" />
  <path d="M90.636 64.9116C96.8228 64.3101 96.9362 64.2802 102.798 65.7049" stroke="#423B3C" />
  <path
    d="M25.1882 153.756C23.418 148.934 23.2827 144.547 24.2625 140.786C26.4395 146.716 28.6351 148.276 31.7554 147.13C33.8356 146.367 35.4067 144.015 34.4259 141.344C33.5408 138.933 30.3128 135.163 28.5904 130.471C26.868 125.78 26.5861 120.189 31.5932 114.136C31.5506 118.441 32.1377 121.849 33.0946 124.455C35.6304 131.362 40.9391 132.963 44.6444 131.603C47.6347 130.505 50.0374 127.404 47.9561 121.735C50.7847 123.211 52.6278 125.418 53.5607 127.96C55.0439 132 54.1494 136.395 55.3455 139.653C56.3263 142.325 59.0457 143.101 61.1259 142.338C64.8313 140.978 64.7164 137.248 62.7069 131.775C64.5057 133.259 66.8444 136.615 68.0166 139.808C71.5093 149.322 65.0741 159.523 55.0631 163.198C62.3418 156.902 62.347 152.094 60.6007 147.337C59.884 151.815 57.9302 153.124 56.8901 153.506C50.5194 155.845 52.9366 141.129 38.7106 136.739C41.9661 139.98 43.9252 143.106 44.9299 145.843C47.0829 151.708 45.0698 156.07 42.0145 157.192C39.4142 158.147 36.0485 157.016 33.3816 152.967C35.6543 159.157 39.6275 164.354 49.2125 165.346C35.7707 167.914 28.1067 161.706 25.1882 153.756Z"
    fill="#F18F5C" />
  <path
    d="M102.158 140.007C105.415 135.874 109.171 133.401 112.978 132.237C108.973 137.32 108.79 140.073 111.464 142.18C113.247 143.585 116.142 143.694 117.946 141.404C119.575 139.338 121.131 134.499 124.3 130.478C127.47 126.457 132.196 123.21 140.165 124.33C136.386 126.603 133.728 128.945 131.967 131.178C127.302 137.098 128.754 142.589 131.93 145.092C134.493 147.112 138.487 147.544 142.317 142.685C142.547 145.945 141.611 148.738 139.894 150.916C137.165 154.379 132.85 155.957 130.649 158.75C128.845 161.04 129.627 163.829 131.409 165.234C134.585 167.737 137.777 165.635 141.474 160.944C141.145 163.31 139.472 167.152 137.315 169.888C130.889 178.042 118.535 177.902 109.955 171.14C119.354 174.112 123.552 171.536 126.766 167.459C122.474 169.237 120.283 168.235 119.392 167.532C113.932 163.229 128.069 157.44 124.264 142.671C123.183 147.252 121.507 150.639 119.658 152.984C115.697 158.011 110.81 158.596 108.191 156.532C105.963 154.775 105.143 151.232 107.245 146.732C103.063 152.037 100.662 158.293 104.941 167.188C95.4853 156.839 96.7882 146.82 102.158 140.007Z"
    fill="#E74D08" />
  <defs>
    <clipPath id="clip0_709_2825">
      <rect width="11.1059" height="11.1059" fill="white" transform="translate(118.037 51.8799)" />
    </clipPath>
  </defs>
</svg>